{
.appVersion = "1271";
copyright = "Copyright 2016 Google Inc. All Rights Reserved.";
customParameters = (
{
name = description;
value = "Designed by Monotype design team.";
},
{
name = vendorID;
value = GOOG;
},
{
name = glyphOrder;
value = (
.notdef,
NULL,
CR,
space,
uni0531,
uni0532,
uni0533,
uni0534,
uni0535,
uni0536,
uni0537,
uni0538,
uni0539,
uni053A,
uni053B,
uni053C,
uni053D,
uni053E,
uni053F,
uni0540,
uni0541,
uni0542,
uni0543,
uni0544,
uni0545,
uni0546,
uni0547,
uni0548,
uni0549,
uni054A,
uni054B,
uni054C,
uni054D,
uni054E,
uni054F,
uni0550,
uni0551,
uni0552,
uni0553,
uni0554,
uni0555,
uni0556,
uni0559,
uni055A,
uni055B,
uni055C,
uni055D,
uni055E,
uni055F,
uni0561,
uni0562,
uni0563,
uni0564,
uni0565,
uni0566,
uni0567,
uni0568,
uni0569,
uni056A,
uni056B,
uni056C,
uni056D,
uni056E,
uni056F,
uni0570,
uni0571,
uni0572,
uni0573,
uni0574,
uni0575,
uni0576,
uni0577,
uni0578,
uni0579,
uni057A,
uni057B,
uni057C,
uni057D,
uni057E,
uni057F,
uni0580,
uni0581,
uni0582,
uni0583,
uni0584,
uni0585,
uni0586,
uni0587,
uni0589,
uni058A,
uniFB13,
uniFB14,
uniFB15,
uniFB16,
uniFB17,
uni058F,
uni0548_uni0552,
uni0578_uni0582,
uniFEFF
);
},
{
name = fsType;
value = (
);
},
{
name = licenseURL;
value = "http://scripts.sil.org/OFL";
},
{
name = trademark;
value = "Noto is a trademark of Google Inc.";
},
{
name = license;
value = "This Font Software is licensed under the SIL Open Font License, Version 1.1. This Font Software is distributed on an \"AS IS\" BASIS, WITHOUT WARRANTIES OR CONDITIONS OF ANY KIND, either express or implied. See the SIL Open Font License for the specific language, permissions and limitations governing your use of this Font Software.";
},
{
name = versionString;
value = "Version 2.040";
},
{
name = "Has WWS Names";
value = 1;
},
{
name = unicodeRanges;
value = (
0,
1,
10,
31,
62
);
}
);
date = "2016-12-02 00:52:26 +0000";
designer = "Monotype Design Team";
designerURL = "http://www.monotype.com/studio";
disablesAutomaticAlignment = 1;

glyphs = (
{
glyphname = .notdef;
lastChange = "2016-11-04 15:54:44 +0000";
layers = (
{
layerId = "A6CE5D2C-1F2B-4AA6-9C7F-4C063FA35791";
paths = (
{
closed = 1;
nodes = (
"505 0 LINE",
"505 714 LINE",
"94 714 LINE",
"94 0 LINE"
);
},
{
closed = 1;
nodes = (
"145 663 LINE",
"454 663 LINE",
"454 51 LINE",
"145 51 LINE"
);
}
);
width = 600;
},
{
layerId = "D8F6BD40-B230-4FAA-9AA6-14649630F8F8";
paths = (
{
closed = 1;
nodes = (
"487 0 LINE",
"487 714 LINE",
"76 714 LINE",
"76 0 LINE"
);
},
{
closed = 1;
nodes = (
"127 663 LINE",
"436 663 LINE",
"436 51 LINE",
"127 51 LINE"
);
}
);
width = 564;
},
{
layerId = "0157BCDF-0421-4A1B-8779-FA1232BA51D7";
paths = (
{
closed = 1;
nodes = (
"505 0 LINE",
"505 714 LINE",
"94 714 LINE",
"94 0 LINE"
);
},
{
closed = 1;
nodes = (
"145 663 LINE",
"454 663 LINE",
"454 51 LINE",
"145 51 LINE"
);
}
);
width = 600;
},
{
layerId = "4F0D3757-41F6-4952-AF2C-391AA5989938";
paths = (
{
closed = 1;
nodes = (
"505 0 LINE",
"505 714 LINE",
"94 714 LINE",
"94 0 LINE"
);
},
{
closed = 1;
nodes = (
"145 663 LINE",
"454 663 LINE",
"454 51 LINE",
"145 51 LINE"
);
}
);
width = 600;
},
{
layerId = "029FEF0C-5FA4-4A3E-AC23-838A1147A554";
paths = (
{
closed = 1;
nodes = (
"496 0 LINE",
"496 714 LINE",
"85 714 LINE",
"85 0 LINE"
);
},
{
closed = 1;
nodes = (
"136 663 LINE",
"445 663 LINE",
"445 51 LINE",
"136 51 LINE"
);
}
);
width = 600;
},
{
layerId = "98E204A9-1C79-49C7-AB3E-40A925F56409";
paths = (
{
closed = 1;
nodes = (
"496 0 LINE",
"496 714 LINE",
"85 714 LINE",
"85 0 LINE"
);
},
{
closed = 1;
nodes = (
"136 663 LINE",
"445 663 LINE",
"445 51 LINE",
"136 51 LINE"
);
}
);
width = 582;
},
{
layerId = "A1853AD3-B2DD-40FD-B6DE-455F76E0019F";
paths = (
{
closed = 1;
nodes = (
"505 0 LINE",
"505 714 LINE",
"94 714 LINE",
"94 0 LINE"
);
},
{
closed = 1;
nodes = (
"145 663 LINE",
"454 663 LINE",
"454 51 LINE",
"145 51 LINE"
);
}
);
width = 600;
},
{
layerId = "D2208E43-FD40-4479-A9D4-232E25B1FBE9";
paths = (
{
closed = 1;
nodes = (
"505 0 LINE",
"505 714 LINE",
"94 714 LINE",
"94 0 LINE"
);
},
{
closed = 1;
nodes = (
"145 663 LINE",
"454 663 LINE",
"454 51 LINE",
"145 51 LINE"
);
}
);
width = 600;
}
);
note = .notdef;
},
{
glyphname = uni0531;
lastChange = "2016-06-08 19:30:48 +0000";
layers = (
{
layerId = "A6CE5D2C-1F2B-4AA6-9C7F-4C063FA35791";
paths = (
{
closed = 1;
nodes = (
"505 -10 OFFCURVE",
"613 74 OFFCURVE",
"613 252 CURVE SMOOTH",
"613 714 LINE",
"587 714 LINE",
"587 244 LINE SMOOTH",
"587 92 OFFCURVE",
"493 15 OFFCURVE",
"351 15 CURVE SMOOTH",
"202 15 OFFCURVE",
"116 96 OFFCURVE",
"116 256 CURVE SMOOTH",
"116 714 LINE",
"90 714 LINE",
"90 254 LINE SMOOTH",
"90 81 OFFCURVE",
"185 -10 OFFCURVE",
"350 -10 CURVE SMOOTH"
);
},
{
closed = 1;
nodes = (
"594 179 LINE",
"605 182 OFFCURVE",
"617 183 OFFCURVE",
"629 183 CURVE SMOOTH",
"701 183 OFFCURVE",
"744 142 OFFCURVE",
"744 35 CURVE SMOOTH",
"744 0 LINE",
"770 0 LINE",
"770 36 LINE SMOOTH",
"770 157 OFFCURVE",
"719 208 OFFCURVE",
"631 208 CURVE SMOOTH",
"618 208 OFFCURVE",
"607 207 OFFCURVE",
"596 204 CURVE"
);
}
);
width = 792;
},
{
layerId = "D8F6BD40-B230-4FAA-9AA6-14649630F8F8";
paths = (
{
closed = 1;
nodes = (
"563 -10 OFFCURVE",
"653 114 OFFCURVE",
"653 252 CURVE SMOOTH",
"653 714 LINE",
"462 714 LINE",
"462 287 LINE SMOOTH",
"462 189 OFFCURVE",
"440 148 OFFCURVE",
"364 148 CURVE SMOOTH",
"296 148 OFFCURVE",
"264 177 OFFCURVE",
"264 282 CURVE SMOOTH",
"264 714 LINE",
"73 714 LINE",
"73 254 LINE SMOOTH",
"73 99 OFFCURVE",
"172 -10 OFFCURVE",
"359 -10 CURVE SMOOTH"
);
},
{
closed = 1;
nodes = (
"606 99 LINE",
"615 102 OFFCURVE",
"634 104 OFFCURVE",
"647 104 CURVE SMOOTH",
"677 104 OFFCURVE",
"688 93 OFFCURVE",
"688 51 CURVE SMOOTH",
"688 0 LINE",
"851 0 LINE",
"851 62 LINE SMOOTH",
"851 191 OFFCURVE",
"791 244 OFFCURVE",
"678 244 CURVE SMOOTH",
"669 244 OFFCURVE",
"657 243 OFFCURVE",
"646 241 CURVE"
);
}
);
width = 861;
},
{
layerId = "0157BCDF-0421-4A1B-8779-FA1232BA51D7";
paths = (
{
closed = 1;
nodes = (
"553 -10 OFFCURVE",
"649 102 OFFCURVE",
"649 252 CURVE SMOOTH",
"649 714 LINE",
"508 714 LINE",
"508 275 LINE SMOOTH",
"508 160 OFFCURVE",
"464 108 OFFCURVE",
"368 108 CURVE SMOOTH",
"275 108 OFFCURVE",
"227 153 OFFCURVE",
"227 275 CURVE SMOOTH",
"227 714 LINE",
"86 714 LINE",
"86 254 LINE SMOOTH",
"86 94 OFFCURVE",
"184 -10 OFFCURVE",
"364 -10 CURVE SMOOTH"
);
},
{
closed = 1;
nodes = (
"615 125 LINE",
"622 127 OFFCURVE",
"637 128 OFFCURVE",
"650 128 CURVE SMOOTH",
"693 128 OFFCURVE",
"713 108 OFFCURVE",
"713 46 CURVE SMOOTH",
"713 0 LINE",
"835 0 LINE",
"835 54 LINE SMOOTH",
"835 181 OFFCURVE",
"778 233 OFFCURVE",
"672 233 CURVE SMOOTH",
"662 233 OFFCURVE",
"650 232 OFFCURVE",
"639 230 CURVE"
);
}
);
width = 851;
},
{
layerId = "4F0D3757-41F6-4952-AF2C-391AA5989938";
paths = (
{
closed = 1;
nodes = (
"534 -10 OFFCURVE",
"635 89 OFFCURVE",
"635 252 CURVE SMOOTH",
"635 714 LINE",
"545 714 LINE",
"545 261 LINE SMOOTH",
"545 130 OFFCURVE",
"479 66 OFFCURVE",
"363 66 CURVE SMOOTH",
"245 66 OFFCURVE",
"180 128 OFFCURVE",
"180 267 CURVE SMOOTH",
"180 714 LINE",
"90 714 LINE",
"90 254 LINE SMOOTH",
"90 88 OFFCURVE",
"187 -10 OFFCURVE",
"360 -10 CURVE SMOOTH"
);
},
{
closed = 1;
nodes = (
"608 149 LINE",
"617 151 OFFCURVE",
"630 152 OFFCURVE",
"643 152 CURVE SMOOTH",
"699 152 OFFCURVE",
"729 123 OFFCURVE",
"729 41 CURVE SMOOTH",
"729 0 LINE",
"809 0 LINE",
"809 46 LINE SMOOTH",
"809 170 OFFCURVE",
"754 222 OFFCURVE",
"656 222 CURVE SMOOTH",
"645 222 OFFCURVE",
"633 221 OFFCURVE",
"622 218 CURVE"
);
}
);
width = 831;
},
{
layerId = "029FEF0C-5FA4-4A3E-AC23-838A1147A554";
paths = (
{
closed = 1;
nodes = (
"338 -10 OFFCURVE",
"414 42 OFFCURVE",
"414 217 CURVE SMOOTH",
"414 714 LINE",
"388 714 LINE",
"388 221 LINE SMOOTH",
"388 63 OFFCURVE",
"328 15 OFFCURVE",
"243 15 CURVE SMOOTH",
"152 15 OFFCURVE",
"98 71 OFFCURVE",
"98 221 CURVE SMOOTH",
"98 714 LINE",
"72 714 LINE",
"72 217 LINE SMOOTH",
"72 59 OFFCURVE",
"133 -10 OFFCURVE",
"243 -10 CURVE SMOOTH"
);
},
{
closed = 1;
nodes = (
"405 181 LINE",
"410 183 OFFCURVE",
"417 184 OFFCURVE",
"426 184 CURVE SMOOTH",
"471 184 OFFCURVE",
"491 152 OFFCURVE",
"491 87 CURVE SMOOTH",
"491 -3 LINE",
"517 -3 LINE",
"517 88 LINE SMOOTH",
"517 169 OFFCURVE",
"485 209 OFFCURVE",
"429 209 CURVE SMOOTH",
"421 209 OFFCURVE",
"411 208 OFFCURVE",
"405 206 CURVE"
);
}
);
width = 529;
},
{
layerId = "98E204A9-1C79-49C7-AB3E-40A925F56409";
paths = (
{
closed = 1;
nodes = (
"448 -10 OFFCURVE",
"533 77 OFFCURVE",
"533 242 CURVE SMOOTH",
"533 714 LINE",
"363 714 LINE",
"363 247 LINE SMOOTH",
"363 163 OFFCURVE",
"342 135 OFFCURVE",
"294 135 CURVE SMOOTH",
"249 135 OFFCURVE",
"226 164 OFFCURVE",
"226 246 CURVE SMOOTH",
"226 714 LINE",
"56 714 LINE",
"56 238 LINE SMOOTH",
"56 72 OFFCURVE",
"140 -10 OFFCURVE",
"292 -10 CURVE SMOOTH"
);
},
{
closed = 1;
nodes = (
"490 98 LINE",
"500 102 OFFCURVE",
"515 104 OFFCURVE",
"529 104 CURVE SMOOTH",
"551 104 OFFCURVE",
"562 90 OFFCURVE",
"562 51 CURVE SMOOTH",
"562 0 LINE",
"708 0 LINE",
"708 62 LINE",
"708 187 OFFCURVE",
"660 244 OFFCURVE",
"559 244 CURVE SMOOTH",
"548 244 OFFCURVE",
"535 242 OFFCURVE",
"527 240 CURVE"
);
}
);
width = 716;
},
{
layerId = "A1853AD3-B2DD-40FD-B6DE-455F76E0019F";
paths = (
{
closed = 1;
nodes = (
"382 -10 OFFCURVE",
"462 56 OFFCURVE",
"462 227 CURVE SMOOTH",
"462 714 LINE",
"378 714 LINE",
"378 231 LINE SMOOTH",
"378 104 OFFCURVE",
"334 64 OFFCURVE",
"264 64 CURVE SMOOTH",
"191 64 OFFCURVE",
"149 110 OFFCURVE",
"149 231 CURVE SMOOTH",
"149 714 LINE",
"66 714 LINE",
"66 225 LINE SMOOTH",
"66 64 OFFCURVE",
"136 -10 OFFCURVE",
"263 -10 CURVE SMOOTH"
);
},
{
closed = 1;
nodes = (
"439 148 LINE",
"446 151 OFFCURVE",
"456 152 OFFCURVE",
"467 152 CURVE SMOOTH",
"503 152 OFFCURVE",
"519 127 OFFCURVE",
"519 73 CURVE SMOOTH",
"519 -2 LINE",
"593 -2 LINE",
"593 78 LINE SMOOTH",
"593 176 OFFCURVE",
"555 223 OFFCURVE",
"481 223 CURVE SMOOTH",
"472 223 OFFCURVE",
"461 222 OFFCURVE",
"454 220 CURVE"
);
}
);
width = 604;
},
{
layerId = "D2208E43-FD40-4479-A9D4-232E25B1FBE9";
paths = (
{
closed = 1;
nodes = (
"423 -10 OFFCURVE",
"506 69 OFFCURVE",
"506 236 CURVE SMOOTH",
"506 714 LINE",
"369 714 LINE",
"369 241 LINE SMOOTH",
"369 143 OFFCURVE",
"339 110 OFFCURVE",
"283 110 CURVE SMOOTH",
"227 110 OFFCURVE",
"197 146 OFFCURVE",
"197 240 CURVE SMOOTH",
"197 714 LINE",
"60 714 LINE",
"60 233 LINE SMOOTH",
"60 69 OFFCURVE",
"139 -10 OFFCURVE",
"281 -10 CURVE SMOOTH"
);
},
{
closed = 1;
nodes = (
"470 117 LINE",
"479 121 OFFCURVE",
"492 122 OFFCURVE",
"505 122 CURVE SMOOTH",
"532 122 OFFCURVE",
"545 104 OFFCURVE",
"545 59 CURVE SMOOTH",
"545 -1 LINE",
"664 -1 LINE",
"664 68 LINE SMOOTH",
"664 183 OFFCURVE",
"619 236 OFFCURVE",
"529 236 CURVE SMOOTH",
"518 236 OFFCURVE",
"506 234 OFFCURVE",
"498 232 CURVE"
);
}
);
width = 673;
}
);
leftKerningGroup = uni0531;
note = uni0531;
unicode = 0531;
},
{
glyphname = uni0532;
lastChange = "2016-11-04 15:54:44 +0000";
layers = (
{
layerId = "A6CE5D2C-1F2B-4AA6-9C7F-4C063FA35791";
paths = (
{
closed = 1;
nodes = (
"116 0 LINE",
"116 470 LINE SMOOTH",
"116 622 OFFCURVE",
"200 699 OFFCURVE",
"342 699 CURVE SMOOTH",
"491 699 OFFCURVE",
"567 620 OFFCURVE",
"567 460 CURVE",
"593 460 LINE",
"593 633 OFFCURVE",
"508 724 OFFCURVE",
"343 724 CURVE SMOOTH",
"188 724 OFFCURVE",
"90 640 OFFCURVE",
"90 462 CURVE SMOOTH",
"90 0 LINE"
);
},
{
closed = 1;
nodes = (
"109 304 LINE",
"595 304 LINE",
"595 329 LINE",
"109 329 LINE"
);
}
);
width = 663;
},
{
layerId = "D8F6BD40-B230-4FAA-9AA6-14649630F8F8";
paths = (
{
closed = 1;
nodes = (
"264 0 LINE",
"264 425 LINE SMOOTH",
"264 525 OFFCURVE",
"289 566 OFFCURVE",
"365 566 CURVE SMOOTH",
"442 566 OFFCURVE",
"468 528 OFFCURVE",
"468 420 CURVE",
"659 420 LINE",
"659 618 OFFCURVE",
"569 724 OFFCURVE",
"370 724 CURVE SMOOTH",
"166 724 OFFCURVE",
"73 600 OFFCURVE",
"73 462 CURVE SMOOTH",
"73 0 LINE"
);
},
{
closed = 1;
nodes = (
"248 202 LINE",
"665 202 LINE",
"665 360 LINE",
"248 360 LINE"
);
}
);
width = 721;
},
{
layerId = "0157BCDF-0421-4A1B-8779-FA1232BA51D7";
paths = (
{
closed = 1;
nodes = (
"227 0 LINE",
"227 439 LINE SMOOTH",
"227 554 OFFCURVE",
"270 606 OFFCURVE",
"366 606 CURVE SMOOTH",
"465 606 OFFCURVE",
"506 556 OFFCURVE",
"506 432 CURVE",
"647 432 LINE",
"647 623 OFFCURVE",
"558 724 OFFCURVE",
"369 724 CURVE SMOOTH",
"180 724 OFFCURVE",
"86 612 OFFCURVE",
"86 462 CURVE SMOOTH",
"86 0 LINE"
);
},
{
closed = 1;
nodes = (
"213 233 LINE",
"651 233 LINE",
"651 351 LINE",
"213 351 LINE"
);
}
);
width = 717;
},
{
layerId = "4F0D3757-41F6-4952-AF2C-391AA5989938";
paths = (
{
closed = 1;
nodes = (
"180 0 LINE",
"180 453 LINE SMOOTH",
"180 584 OFFCURVE",
"241 648 OFFCURVE",
"357 648 CURVE SMOOTH",
"479 648 OFFCURVE",
"535 584 OFFCURVE",
"535 445 CURVE",
"625 445 LINE",
"625 627 OFFCURVE",
"538 724 OFFCURVE",
"360 724 CURVE SMOOTH",
"186 724 OFFCURVE",
"90 625 OFFCURVE",
"90 462 CURVE SMOOTH",
"90 0 LINE"
);
},
{
closed = 1;
nodes = (
"169 265 LINE",
"628 265 LINE",
"628 341 LINE",
"169 341 LINE"
);
}
);
width = 696;
},
{
layerId = "029FEF0C-5FA4-4A3E-AC23-838A1147A554";
paths = (
{
closed = 1;
nodes = (
"98 0 LINE",
"98 493 LINE SMOOTH",
"98 651 OFFCURVE",
"158 699 OFFCURVE",
"243 699 CURVE SMOOTH",
"334 699 OFFCURVE",
"388 643 OFFCURVE",
"388 493 CURVE",
"414 493 LINE",
"414 655 OFFCURVE",
"353 724 OFFCURVE",
"243 724 CURVE SMOOTH",
"148 724 OFFCURVE",
"72 672 OFFCURVE",
"72 497 CURVE SMOOTH",
"72 0 LINE"
);
},
{
closed = 1;
nodes = (
"91 303 LINE",
"414 303 LINE",
"414 328 LINE",
"91 328 LINE"
);
}
);
width = 472;
},
{
layerId = "98E204A9-1C79-49C7-AB3E-40A925F56409";
paths = (
{
closed = 1;
nodes = (
"226 0 LINE",
"226 467 LINE SMOOTH",
"226 551 OFFCURVE",
"247 579 OFFCURVE",
"295 579 CURVE SMOOTH",
"351 579 OFFCURVE",
"363 543 OFFCURVE",
"363 430 CURVE",
"533 430 LINE",
"533 645 OFFCURVE",
"471 724 OFFCURVE",
"297 724 CURVE SMOOTH",
"141 724 OFFCURVE",
"56 637 OFFCURVE",
"56 472 CURVE SMOOTH",
"56 0 LINE"
);
},
{
closed = 1;
nodes = (
"210 216 LINE",
"533 216 LINE",
"533 361 LINE",
"210 361 LINE"
);
}
);
width = 581;
},
{
layerId = "A1853AD3-B2DD-40FD-B6DE-455F76E0019F";
paths = (
{
closed = 1;
nodes = (
"149 0 LINE",
"149 483 LINE SMOOTH",
"149 610 OFFCURVE",
"194 650 OFFCURVE",
"264 650 CURVE SMOOTH",
"341 650 OFFCURVE",
"378 602 OFFCURVE",
"378 468 CURVE",
"462 468 LINE",
"462 651 OFFCURVE",
"400 724 OFFCURVE",
"265 724 CURVE SMOOTH",
"146 724 OFFCURVE",
"66 658 OFFCURVE",
"66 487 CURVE SMOOTH",
"66 0 LINE"
);
},
{
closed = 1;
nodes = (
"138 267 LINE",
"461 267 LINE",
"461 341 LINE",
"138 341 LINE"
);
}
);
width = 515;
},
{
layerId = "D2208E43-FD40-4479-A9D4-232E25B1FBE9";
paths = (
{
closed = 1;
nodes = (
"197 0 LINE",
"197 473 LINE SMOOTH",
"197 571 OFFCURVE",
"227 604 OFFCURVE",
"283 604 CURVE SMOOTH",
"347 604 OFFCURVE",
"369 563 OFFCURVE",
"369 445 CURVE",
"506 445 LINE",
"506 647 OFFCURVE",
"444 724 OFFCURVE",
"285 724 CURVE SMOOTH",
"143 724 OFFCURVE",
"60 645 OFFCURVE",
"60 478 CURVE SMOOTH",
"60 0 LINE"
);
},
{
closed = 1;
nodes = (
"183 233 LINE",
"506 233 LINE",
"506 353 LINE",
"183 353 LINE"
);
}
);
width = 556;
}
);
leftKerningGroup = uni0538;
note = uni0532;
rightKerningGroup = uni0532;
unicode = 0532;
},
{
glyphname = uni0533;
lastChange = "2016-11-04 15:54:44 +0000";
layers = (
{
layerId = "A6CE5D2C-1F2B-4AA6-9C7F-4C063FA35791";
paths = (
{
closed = 1;
nodes = (
"535 452 LINE SMOOTH",
"535 640 OFFCURVE",
"448 724 OFFCURVE",
"299 724 CURVE SMOOTH",
"144 724 OFFCURVE",
"65 642 OFFCURVE",
"65 514 CURVE SMOOTH",
"65 376 OFFCURVE",
"150 304 OFFCURVE",
"315 304 CURVE SMOOTH",
"713 304 LINE",
"713 329 LINE",
"316 329 LINE SMOOTH",
"167 329 OFFCURVE",
"91 390 OFFCURVE",
"91 514 CURVE SMOOTH",
"91 628 OFFCURVE",
"161 699 OFFCURVE",
"300 699 CURVE SMOOTH",
"431 699 OFFCURVE",
"509 622 OFFCURVE",
"509 460 CURVE SMOOTH",
"509 0 LINE",
"535 0 LINE"
);
}
);
width = 735;
},
{
layerId = "D8F6BD40-B230-4FAA-9AA6-14649630F8F8";
paths = (
{
closed = 1;
nodes = (
"630 416 LINE SMOOTH",
"630 630 OFFCURVE",
"538 724 OFFCURVE",
"340 724 CURVE SMOOTH",
"164 724 OFFCURVE",
"48 620 OFFCURVE",
"48 465 CURVE SMOOTH",
"48 297 OFFCURVE",
"146 204 OFFCURVE",
"319 204 CURVE SMOOTH",
"755 204 LINE",
"755 362 LINE",
"344 362 LINE SMOOTH",
"269 362 OFFCURVE",
"246 393 OFFCURVE",
"246 465 CURVE SMOOTH",
"246 532 OFFCURVE",
"280 566 OFFCURVE",
"338 566 CURVE SMOOTH",
"414 566 OFFCURVE",
"439 519 OFFCURVE",
"439 398 CURVE SMOOTH",
"439 0 LINE",
"630 0 LINE"
);
}
);
width = 779;
},
{
layerId = "0157BCDF-0421-4A1B-8779-FA1232BA51D7";
paths = (
{
closed = 1;
nodes = (
"607 427 LINE",
"607 630 OFFCURVE",
"515 724 OFFCURVE",
"333 724 CURVE SMOOTH",
"164 724 OFFCURVE",
"59 630 OFFCURVE",
"59 480 CURVE SMOOTH",
"59 324 OFFCURVE",
"149 235 OFFCURVE",
"330 235 CURVE SMOOTH",
"748 235 LINE",
"748 353 LINE",
"347 353 LINE SMOOTH",
"240 353 OFFCURVE",
"205 396 OFFCURVE",
"205 480 CURVE SMOOTH",
"205 564 OFFCURVE",
"250 606 OFFCURVE",
"333 606 CURVE SMOOTH",
"425 606 OFFCURVE",
"466 547 OFFCURVE",
"466 417 CURVE",
"466 0 LINE",
"607 0 LINE"
);
}
);
width = 773;
},
{
layerId = "4F0D3757-41F6-4952-AF2C-391AA5989938";
paths = (
{
closed = 1;
nodes = (
"579 438 LINE",
"579 630 OFFCURVE",
"487 724 OFFCURVE",
"322 724 CURVE SMOOTH",
"158 724 OFFCURVE",
"65 640 OFFCURVE",
"65 495 CURVE SMOOTH",
"65 347 OFFCURVE",
"157 265 OFFCURVE",
"336 265 CURVE SMOOTH",
"736 265 LINE",
"736 341 LINE",
"346 341 LINE SMOOTH",
"215 341 OFFCURVE",
"158 393 OFFCURVE",
"158 495 CURVE SMOOTH",
"158 596 OFFCURVE",
"214 648 OFFCURVE",
"322 648 CURVE SMOOTH",
"431 648 OFFCURVE",
"489 575 OFFCURVE",
"489 436 CURVE",
"489 0 LINE",
"579 0 LINE"
);
}
);
width = 758;
},
{
layerId = "029FEF0C-5FA4-4A3E-AC23-838A1147A554";
paths = (
{
closed = 1;
nodes = (
"390 497 LINE SMOOTH",
"390 672 OFFCURVE",
"314 724 OFFCURVE",
"219 724 CURVE SMOOTH",
"109 724 OFFCURVE",
"48 655 OFFCURVE",
"48 503 CURVE SMOOTH",
"48 380 OFFCURVE",
"106 302 OFFCURVE",
"222 302 CURVE SMOOTH",
"492 302 LINE",
"492 327 LINE",
"224 327 LINE SMOOTH",
"123 327 OFFCURVE",
"74 392 OFFCURVE",
"74 503 CURVE SMOOTH",
"74 643 OFFCURVE",
"128 699 OFFCURVE",
"219 699 CURVE SMOOTH",
"304 699 OFFCURVE",
"364 651 OFFCURVE",
"364 493 CURVE SMOOTH",
"364 0 LINE",
"390 0 LINE"
);
}
);
width = 504;
},
{
layerId = "98E204A9-1C79-49C7-AB3E-40A925F56409";
paths = (
{
closed = 1;
nodes = (
"514 472 LINE SMOOTH",
"514 637 OFFCURVE",
"429 724 OFFCURVE",
"273 724 CURVE SMOOTH",
"131 724 OFFCURVE",
"38 638 OFFCURVE",
"38 465 CURVE SMOOTH",
"38 307 OFFCURVE",
"119 219 OFFCURVE",
"269 219 CURVE SMOOTH",
"638 219 LINE",
"638 364 LINE",
"290 364 LINE SMOOTH",
"225 364 OFFCURVE",
"208 401 OFFCURVE",
"208 465 CURVE SMOOTH",
"208 545 OFFCURVE",
"227 579 OFFCURVE",
"275 579 CURVE SMOOTH",
"323 579 OFFCURVE",
"344 551 OFFCURVE",
"344 467 CURVE SMOOTH",
"344 0 LINE",
"514 0 LINE"
);
}
);
width = 653;
},
{
layerId = "A1853AD3-B2DD-40FD-B6DE-455F76E0019F";
paths = (
{
closed = 1;
nodes = (
"439 487 LINE SMOOTH",
"439 658 OFFCURVE",
"360 724 OFFCURVE",
"241 724 CURVE SMOOTH",
"118 724 OFFCURVE",
"44 648 OFFCURVE",
"44 488 CURVE SMOOTH",
"44 351 OFFCURVE",
"113 269 OFFCURVE",
"241 269 CURVE SMOOTH",
"550 269 LINE",
"550 343 LINE",
"250 343 LINE SMOOTH",
"168 343 OFFCURVE",
"127 396 OFFCURVE",
"127 488 CURVE SMOOTH",
"127 602 OFFCURVE",
"167 650 OFFCURVE",
"241 650 CURVE SMOOTH",
"312 650 OFFCURVE",
"356 610 OFFCURVE",
"356 483 CURVE SMOOTH",
"356 0 LINE",
"439 0 LINE"
);
}
);
width = 563;
},
{
layerId = "D2208E43-FD40-4479-A9D4-232E25B1FBE9";
paths = (
{
closed = 1;
nodes = (
"485 478 LINE SMOOTH",
"485 645 OFFCURVE",
"402 724 OFFCURVE",
"260 724 CURVE SMOOTH",
"126 724 OFFCURVE",
"40 642 OFFCURVE",
"40 474 CURVE SMOOTH",
"40 324 OFFCURVE",
"110 235 OFFCURVE",
"258 235 CURVE SMOOTH",
"604 235 LINE",
"604 355 LINE",
"274 355 LINE SMOOTH",
"199 355 OFFCURVE",
"177 399 OFFCURVE",
"177 474 CURVE SMOOTH",
"177 565 OFFCURVE",
"204 604 OFFCURVE",
"262 604 CURVE SMOOTH",
"318 604 OFFCURVE",
"348 571 OFFCURVE",
"348 473 CURVE SMOOTH",
"348 0 LINE",
"485 0 LINE"
);
}
);
width = 619;
}
);
leftKerningGroup = uni0533;
note = uni0533;
rightKerningGroup = uni0533;
unicode = 0533;
},
{
glyphname = uni0534;
lastChange = "2016-11-04 15:54:44 +0000";
layers = (
{
layerId = "A6CE5D2C-1F2B-4AA6-9C7F-4C063FA35791";
paths = (
{
closed = 1;
nodes = (
"542 462 LINE SMOOTH",
"542 640 OFFCURVE",
"449 724 OFFCURVE",
"299 724 CURVE SMOOTH",
"139 724 OFFCURVE",
"59 633 OFFCURVE",
"59 460 CURVE",
"85 460 LINE",
"85 620 OFFCURVE",
"156 699 OFFCURVE",
"300 699 CURVE SMOOTH",
"437 699 OFFCURVE",
"516 622 OFFCURVE",
"516 470 CURVE SMOOTH",
"516 0 LINE",
"542 0 LINE"
);
},
{
closed = 1;
nodes = (
"528 304 LINE",
"694 304 LINE",
"694 329 LINE",
"528 329 LINE"
);
}
);
width = 726;
},
{
layerId = "D8F6BD40-B230-4FAA-9AA6-14649630F8F8";
paths = (
{
closed = 1;
nodes = (
"630 459 LINE SMOOTH",
"630 612 OFFCURVE",
"530 724 OFFCURVE",
"338 724 CURVE SMOOTH",
"135 724 OFFCURVE",
"37 601 OFFCURVE",
"37 422 CURVE",
"228 422 LINE",
"228 526 OFFCURVE",
"257 566 OFFCURVE",
"332 566 CURVE SMOOTH",
"404 566 OFFCURVE",
"439 536 OFFCURVE",
"439 426 CURVE SMOOTH",
"439 0 LINE",
"630 0 LINE"
);
},
{
closed = 1;
nodes = (
"613 203 LINE",
"771 203 LINE",
"771 361 LINE",
"613 361 LINE"
);
}
);
width = 789;
},
{
layerId = "0157BCDF-0421-4A1B-8779-FA1232BA51D7";
paths = (
{
closed = 1;
nodes = (
"609 460 LINE SMOOTH",
"609 621 OFFCURVE",
"512 724 OFFCURVE",
"332 724 CURVE SMOOTH",
"143 724 OFFCURVE",
"50 611 OFFCURVE",
"50 433 CURVE",
"191 433 LINE",
"191 554 OFFCURVE",
"233 606 OFFCURVE",
"329 606 CURVE SMOOTH",
"421 606 OFFCURVE",
"468 561 OFFCURVE",
"468 440 CURVE SMOOTH",
"468 0 LINE",
"609 0 LINE"
);
},
{
closed = 1;
nodes = (
"593 233 LINE",
"753 233 LINE",
"753 351 LINE",
"593 351 LINE"
);
}
);
width = 780;
},
{
layerId = "4F0D3757-41F6-4952-AF2C-391AA5989938";
paths = (
{
closed = 1;
nodes = (
"584 461 LINE SMOOTH",
"584 629 OFFCURVE",
"489 724 OFFCURVE",
"323 724 CURVE SMOOTH",
"146 724 OFFCURVE",
"59 621 OFFCURVE",
"59 445 CURVE",
"149 445 LINE",
"149 583 OFFCURVE",
"204 648 OFFCURVE",
"321 648 CURVE SMOOTH",
"433 648 OFFCURVE",
"494 588 OFFCURVE",
"494 453 CURVE SMOOTH",
"494 0 LINE",
"584 0 LINE"
);
},
{
closed = 1;
nodes = (
"569 265 LINE",
"732 265 LINE",
"732 341 LINE",
"569 341 LINE"
);
}
);
width = 764;
},
{
layerId = "029FEF0C-5FA4-4A3E-AC23-838A1147A554";
paths = (
{
closed = 1;
nodes = (
"384 497 LINE SMOOTH",
"384 655 OFFCURVE",
"323 724 OFFCURVE",
"213 724 CURVE SMOOTH",
"118 724 OFFCURVE",
"42 668 OFFCURVE",
"42 493 CURVE",
"68 493 LINE",
"68 651 OFFCURVE",
"128 699 OFFCURVE",
"213 699 CURVE SMOOTH",
"304 699 OFFCURVE",
"358 643 OFFCURVE",
"358 493 CURVE SMOOTH",
"358 0 LINE",
"384 0 LINE"
);
},
{
closed = 1;
nodes = (
"375 302 LINE",
"512 302 LINE",
"512 327 LINE",
"375 327 LINE"
);
}
);
width = 524;
},
{
layerId = "98E204A9-1C79-49C7-AB3E-40A925F56409";
paths = (
{
closed = 1;
nodes = (
"517 476 LINE SMOOTH",
"517 642 OFFCURVE",
"433 724 OFFCURVE",
"281 724 CURVE SMOOTH",
"125 724 OFFCURVE",
"40 632 OFFCURVE",
"40 427 CURVE",
"210 427 LINE",
"210 551 OFFCURVE",
"231 579 OFFCURVE",
"279 579 CURVE SMOOTH",
"324 579 OFFCURVE",
"347 550 OFFCURVE",
"347 468 CURVE SMOOTH",
"347 0 LINE",
"517 0 LINE"
);
},
{
closed = 1;
nodes = (
"508 219 LINE",
"652 219 LINE",
"652 364 LINE",
"508 364 LINE"
);
}
);
width = 667;
},
{
layerId = "A1853AD3-B2DD-40FD-B6DE-455F76E0019F";
paths = (
{
closed = 1;
nodes = (
"437 489 LINE SMOOTH",
"437 650 OFFCURVE",
"367 724 OFFCURVE",
"240 724 CURVE SMOOTH",
"121 724 OFFCURVE",
"41 654 OFFCURVE",
"41 467 CURVE",
"124 467 LINE",
"124 610 OFFCURVE",
"169 650 OFFCURVE",
"239 650 CURVE SMOOTH",
"312 650 OFFCURVE",
"353 604 OFFCURVE",
"353 483 CURVE SMOOTH",
"353 0 LINE",
"437 0 LINE"
);
},
{
closed = 1;
nodes = (
"428 269 LINE",
"568 269 LINE",
"568 343 LINE",
"428 343 LINE"
);
}
);
width = 581;
},
{
layerId = "D2208E43-FD40-4479-A9D4-232E25B1FBE9";
paths = (
{
closed = 1;
nodes = (
"486 481 LINE SMOOTH",
"486 645 OFFCURVE",
"407 724 OFFCURVE",
"265 724 CURVE SMOOTH",
"123 724 OFFCURVE",
"40 640 OFFCURVE",
"40 442 CURVE",
"177 442 LINE",
"177 571 OFFCURVE",
"207 604 OFFCURVE",
"263 604 CURVE SMOOTH",
"319 604 OFFCURVE",
"349 568 OFFCURVE",
"349 474 CURVE SMOOTH",
"349 0 LINE",
"486 0 LINE"
);
},
{
closed = 1;
nodes = (
"477 248 LINE",
"619 248 LINE",
"619 368 LINE",
"477 368 LINE"
);
}
);
width = 634;
}
);
leftKerningGroup = uni0534;
note = uni0534;
rightKerningGroup = uni0533;
unicode = 0534;
},
{
glyphname = uni0535;
lastChange = "2016-11-04 15:54:44 +0000";
layers = (
{
layerId = "A6CE5D2C-1F2B-4AA6-9C7F-4C063FA35791";
paths = (
{
closed = 1;
nodes = (
"90 252 LINE SMOOTH",
"90 74 OFFCURVE",
"188 -10 OFFCURVE",
"343 -10 CURVE SMOOTH",
"508 -10 OFFCURVE",
"593 81 OFFCURVE",
"593 254 CURVE",
"567 254 LINE",
"567 94 OFFCURVE",
"491 15 OFFCURVE",
"342 15 CURVE SMOOTH",
"200 15 OFFCURVE",
"116 92 OFFCURVE",
"116 244 CURVE SMOOTH",
"116 714 LINE",
"90 714 LINE"
);
},
{
closed = 1;
nodes = (
"595 609 LINE",
"595 634 LINE",
"109 634 LINE",
"109 609 LINE"
);
}
);
width = 663;
},
{
layerId = "D8F6BD40-B230-4FAA-9AA6-14649630F8F8";
paths = (
{
closed = 1;
nodes = (
"73 252 LINE SMOOTH",
"73 114 OFFCURVE",
"166 -10 OFFCURVE",
"370 -10 CURVE SMOOTH",
"569 -10 OFFCURVE",
"659 96 OFFCURVE",
"659 294 CURVE",
"468 294 LINE",
"468 186 OFFCURVE",
"442 148 OFFCURVE",
"365 148 CURVE SMOOTH",
"289 148 OFFCURVE",
"264 189 OFFCURVE",
"264 289 CURVE SMOOTH",
"264 714 LINE",
"73 714 LINE"
);
},
{
closed = 1;
nodes = (
"665 398 LINE",
"665 556 LINE",
"248 556 LINE",
"248 398 LINE"
);
}
);
width = 721;
},
{
layerId = "0157BCDF-0421-4A1B-8779-FA1232BA51D7";
paths = (
{
closed = 1;
nodes = (
"86 252 LINE SMOOTH",
"86 102 OFFCURVE",
"180 -10 OFFCURVE",
"369 -10 CURVE SMOOTH",
"558 -10 OFFCURVE",
"647 91 OFFCURVE",
"647 282 CURVE",
"506 282 LINE",
"506 158 OFFCURVE",
"465 108 OFFCURVE",
"366 108 CURVE SMOOTH",
"270 108 OFFCURVE",
"227 160 OFFCURVE",
"227 275 CURVE SMOOTH",
"227 714 LINE",
"86 714 LINE"
);
},
{
closed = 1;
nodes = (
"651 462 LINE",
"651 580 LINE",
"213 580 LINE",
"213 462 LINE"
);
}
);
width = 717;
},
{
layerId = "4F0D3757-41F6-4952-AF2C-391AA5989938";
paths = (
{
closed = 1;
nodes = (
"90 252 LINE SMOOTH",
"90 89 OFFCURVE",
"186 -10 OFFCURVE",
"360 -10 CURVE SMOOTH",
"538 -10 OFFCURVE",
"625 87 OFFCURVE",
"625 269 CURVE",
"535 269 LINE",
"535 130 OFFCURVE",
"479 66 OFFCURVE",
"357 66 CURVE SMOOTH",
"241 66 OFFCURVE",
"180 130 OFFCURVE",
"180 261 CURVE SMOOTH",
"180 714 LINE",
"90 714 LINE"
);
},
{
closed = 1;
nodes = (
"628 528 LINE",
"628 604 LINE",
"169 604 LINE",
"169 528 LINE"
);
}
);
width = 696;
},
{
layerId = "029FEF0C-5FA4-4A3E-AC23-838A1147A554";
paths = (
{
closed = 1;
nodes = (
"72 217 LINE SMOOTH",
"72 42 OFFCURVE",
"148 -10 OFFCURVE",
"243 -10 CURVE SMOOTH",
"353 -10 OFFCURVE",
"414 59 OFFCURVE",
"414 221 CURVE",
"388 221 LINE",
"388 71 OFFCURVE",
"334 15 OFFCURVE",
"243 15 CURVE SMOOTH",
"158 15 OFFCURVE",
"98 63 OFFCURVE",
"98 221 CURVE SMOOTH",
"98 714 LINE",
"72 714 LINE"
);
},
{
closed = 1;
nodes = (
"414 609 LINE",
"414 634 LINE",
"91 634 LINE",
"91 609 LINE"
);
}
);
width = 472;
},
{
layerId = "98E204A9-1C79-49C7-AB3E-40A925F56409";
paths = (
{
closed = 1;
nodes = (
"56 242 LINE SMOOTH",
"56 77 OFFCURVE",
"141 -10 OFFCURVE",
"297 -10 CURVE SMOOTH",
"461 -10 OFFCURVE",
"533 69 OFFCURVE",
"533 284 CURVE",
"363 284 LINE",
"363 171 OFFCURVE",
"351 135 OFFCURVE",
"295 135 CURVE SMOOTH",
"247 135 OFFCURVE",
"226 163 OFFCURVE",
"226 247 CURVE SMOOTH",
"226 714 LINE",
"56 714 LINE"
);
},
{
closed = 1;
nodes = (
"533 411 LINE",
"533 556 LINE",
"210 556 LINE",
"210 411 LINE"
);
}
);
width = 581;
},
{
layerId = "A1853AD3-B2DD-40FD-B6DE-455F76E0019F";
paths = (
{
closed = 1;
nodes = (
"66 227 LINE SMOOTH",
"66 56 OFFCURVE",
"146 -10 OFFCURVE",
"265 -10 CURVE SMOOTH",
"400 -10 OFFCURVE",
"462 63 OFFCURVE",
"462 246 CURVE",
"378 246 LINE",
"378 112 OFFCURVE",
"341 64 OFFCURVE",
"264 64 CURVE SMOOTH",
"194 64 OFFCURVE",
"149 104 OFFCURVE",
"149 231 CURVE SMOOTH",
"149 714 LINE",
"66 714 LINE"
);
},
{
closed = 1;
nodes = (
"461 529 LINE",
"461 603 LINE",
"138 603 LINE",
"138 529 LINE"
);
}
);
width = 515;
},
{
layerId = "D2208E43-FD40-4479-A9D4-232E25B1FBE9";
paths = (
{
closed = 1;
nodes = (
"60 236 LINE SMOOTH",
"60 69 OFFCURVE",
"143 -10 OFFCURVE",
"285 -10 CURVE SMOOTH",
"444 -10 OFFCURVE",
"506 67 OFFCURVE",
"506 269 CURVE",
"369 269 LINE",
"369 151 OFFCURVE",
"347 110 OFFCURVE",
"283 110 CURVE SMOOTH",
"227 110 OFFCURVE",
"197 143 OFFCURVE",
"197 241 CURVE SMOOTH",
"197 714 LINE",
"60 714 LINE"
);
},
{
closed = 1;
nodes = (
"506 454 LINE",
"506 574 LINE",
"183 574 LINE",
"183 454 LINE"
);
}
);
width = 556;
}
);
leftKerningGroup = uni0531;
note = uni0535;
rightKerningGroup = uni0535;
unicode = 0535;
},
{
glyphname = uni0536;
lastChange = "2016-11-04 15:54:44 +0000";
layers = (
{
layerId = "A6CE5D2C-1F2B-4AA6-9C7F-4C063FA35791";
paths = (
{
closed = 1;
nodes = (
"467 285 OFFCURVE",
"542 382 OFFCURVE",
"542 507 CURVE SMOOTH",
"542 631 OFFCURVE",
"475 728 OFFCURVE",
"309 728 CURVE SMOOTH",
"156 728 OFFCURVE",
"66 642 OFFCURVE",
"66 507 CURVE SMOOTH",
"66 380 OFFCURVE",
"144 285 OFFCURVE",
"303 285 CURVE SMOOTH"
);
},
{
closed = 1;
nodes = (
"588 -1 LINE",
"588 49 LINE SMOOTH",
"588 114 OFFCURVE",
"555 145 OFFCURVE",
"498 145 CURVE SMOOTH",
"102 145 LINE",
"102 204 LINE",
"76 204 LINE",
"76 0 LINE",
"102 0 LINE",
"102 120 LINE",
"498 120 LINE SMOOTH",
"538 120 OFFCURVE",
"562 98 OFFCURVE",
"562 48 CURVE SMOOTH",
"562 -1 LINE"
);
},
{
closed = 1;
nodes = (
"301 126 OFFCURVE",
"542 224 OFFCURVE",
"542 507 CURVE",
"520 507 LINE",
"520 248 OFFCURVE",
"294 145 OFFCURVE",
"105 145 CURVE",
"105 126 LINE"
);
},
{
closed = 1;
nodes = (
"161 310 OFFCURVE",
"93 391 OFFCURVE",
"93 507 CURVE SMOOTH",
"93 630 OFFCURVE",
"171 703 OFFCURVE",
"309 703 CURVE SMOOTH",
"457 703 OFFCURVE",
"515 616 OFFCURVE",
"515 507 CURVE SMOOTH",
"515 392 OFFCURVE",
"450 310 OFFCURVE",
"303 310 CURVE SMOOTH"
);
}
);
width = 628;
},
{
layerId = "D8F6BD40-B230-4FAA-9AA6-14649630F8F8";
paths = (
{
closed = 1;
nodes = (
"458 290 OFFCURVE",
"606 377 OFFCURVE",
"606 485 CURVE SMOOTH",
"606 646 OFFCURVE",
"486 729 OFFCURVE",
"329 729 CURVE SMOOTH",
"167 729 OFFCURVE",
"53 638 OFFCURVE",
"53 510 CURVE SMOOTH",
"53 379 OFFCURVE",
"172 290 OFFCURVE",
"302 290 CURVE SMOOTH"
);
},
{
closed = 1;
nodes = (
"684 0 LINE",
"684 73 LINE SMOOTH",
"684 177 OFFCURVE",
"635 208 OFFCURVE",
"538 208 CURVE SMOOTH",
"215 208 LINE",
"215 262 LINE",
"57 262 LINE",
"57 0 LINE",
"215 0 LINE",
"215 58 LINE",
"461 58 LINE SMOOTH",
"511 58 OFFCURVE",
"522 47 OFFCURVE",
"522 18 CURVE SMOOTH",
"522 0 LINE"
);
},
{
closed = 1;
nodes = (
"436 75 OFFCURVE",
"603 277 OFFCURVE",
"606 485 CURVE",
"428 485 LINE",
"428 346 OFFCURVE",
"357 208 OFFCURVE",
"227 208 CURVE",
"227 75 LINE"
);
},
{
closed = 1;
nodes = (
"274 440 OFFCURVE",
"244 464 OFFCURVE",
"244 510 CURVE SMOOTH",
"244 552 OFFCURVE",
"269 579 OFFCURVE",
"328 579 CURVE SMOOTH",
"384 579 OFFCURVE",
"415 557 OFFCURVE",
"415 510 CURVE SMOOTH",
"415 463 OFFCURVE",
"387 440 OFFCURVE",
"331 440 CURVE SMOOTH"
);
}
);
width = 708;
},
{
layerId = "0157BCDF-0421-4A1B-8779-FA1232BA51D7";
paths = (
{
closed = 1;
nodes = (
"467 289 OFFCURVE",
"592 378 OFFCURVE",
"592 491 CURVE SMOOTH",
"592 638 OFFCURVE",
"489 729 OFFCURVE",
"329 729 CURVE SMOOTH",
"170 729 OFFCURVE",
"63 639 OFFCURVE",
"63 509 CURVE SMOOTH",
"63 379 OFFCURVE",
"170 289 OFFCURVE",
"308 289 CURVE SMOOTH"
);
},
{
closed = 1;
nodes = (
"660 0 LINE",
"660 66 LINE SMOOTH",
"660 158 OFFCURVE",
"616 190 OFFCURVE",
"531 190 CURVE SMOOTH",
"186 189 LINE",
"186 244 LINE",
"68 244 LINE",
"68 0 LINE",
"186 0 LINE",
"186 71 LINE",
"477 71 LINE SMOOTH",
"524 71 OFFCURVE",
"539 63 OFFCURVE",
"539 27 CURVE SMOOTH",
"539 0 LINE"
);
},
{
closed = 1;
nodes = (
"400 90 OFFCURVE",
"590 261 OFFCURVE",
"592 491 CURVE",
"461 491 LINE",
"461 316 OFFCURVE",
"343 189 OFFCURVE",
"195 189 CURVE",
"195 90 LINE"
);
},
{
closed = 1;
nodes = (
"245 401 OFFCURVE",
"204 442 OFFCURVE",
"204 509 CURVE SMOOTH",
"204 579 OFFCURVE",
"245 617 OFFCURVE",
"328 617 CURVE SMOOTH",
"412 617 OFFCURVE",
"451 578 OFFCURVE",
"451 509 CURVE SMOOTH",
"451 442 OFFCURVE",
"412 401 OFFCURVE",
"328 401 CURVE SMOOTH"
);
}
);
width = 693;
},
{
layerId = "4F0D3757-41F6-4952-AF2C-391AA5989938";
paths = (
{
closed = 1;
nodes = (
"469 287 OFFCURVE",
"572 395 OFFCURVE",
"572 498 CURVE SMOOTH",
"572 635 OFFCURVE",
"484 729 OFFCURVE",
"322 729 CURVE SMOOTH",
"165 729 OFFCURVE",
"66 640 OFFCURVE",
"66 508 CURVE SMOOTH",
"66 379 OFFCURVE",
"160 287 OFFCURVE",
"308 287 CURVE SMOOTH"
);
},
{
closed = 1;
nodes = (
"630 0 LINE",
"630 58 LINE SMOOTH",
"630 139 OFFCURVE",
"590 170 OFFCURVE",
"518 170 CURVE SMOOTH",
"152 170 LINE",
"152 227 LINE",
"73 227 LINE",
"73 0 LINE",
"152 0 LINE",
"152 94 LINE",
"488 94 LINE SMOOTH",
"532 94 OFFCURVE",
"551 80 OFFCURVE",
"551 36 CURVE SMOOTH",
"551 0 LINE"
);
},
{
closed = 1;
nodes = (
"358 110 OFFCURVE",
"570 244 OFFCURVE",
"571 498 CURVE",
"489 498 LINE",
"489 286 OFFCURVE",
"323 170 OFFCURVE",
"157 170 CURVE",
"157 110 LINE"
);
},
{
closed = 1;
nodes = (
"209 361 OFFCURVE",
"156 419 OFFCURVE",
"156 508 CURVE SMOOTH",
"156 602 OFFCURVE",
"214 655 OFFCURVE",
"321 655 CURVE SMOOTH",
"433 655 OFFCURVE",
"481 595 OFFCURVE",
"481 508 CURVE SMOOTH",
"481 420 OFFCURVE",
"430 361 OFFCURVE",
"318 361 CURVE SMOOTH"
);
}
);
width = 670;
},
{
layerId = "029FEF0C-5FA4-4A3E-AC23-838A1147A554";
paths = (
{
closed = 1;
nodes = (
"280 282 OFFCURVE",
"331 381 OFFCURVE",
"331 508 CURVE SMOOTH",
"331 632 OFFCURVE",
"286 727 OFFCURVE",
"189 727 CURVE SMOOTH",
"100 727 OFFCURVE",
"42 645 OFFCURVE",
"42 507 CURVE SMOOTH",
"42 378 OFFCURVE",
"93 282 OFFCURVE",
"184 282 CURVE SMOOTH"
);
},
{
closed = 1;
nodes = (
"361 0 LINE",
"361 48 LINE SMOOTH",
"361 112 OFFCURVE",
"335 145 OFFCURVE",
"274 145 CURVE SMOOTH",
"79 145 LINE",
"79 205 LINE",
"53 205 LINE",
"53 0 LINE",
"79 0 LINE",
"79 120 LINE",
"265 120 LINE SMOOTH",
"318 120 OFFCURVE",
"336 96 OFFCURVE",
"336 49 CURVE SMOOTH",
"336 0 LINE"
);
},
{
closed = 1;
nodes = (
"200 127 OFFCURVE",
"331 219 OFFCURVE",
"331 508 CURVE",
"309 508 LINE",
"309 247 OFFCURVE",
"193 145 OFFCURVE",
"83 145 CURVE",
"83 127 LINE"
);
},
{
closed = 1;
nodes = (
"105 307 OFFCURVE",
"68 389 OFFCURVE",
"68 507 CURVE SMOOTH",
"68 632 OFFCURVE",
"111 702 OFFCURVE",
"189 702 CURVE SMOOTH",
"273 702 OFFCURVE",
"305 617 OFFCURVE",
"305 507 CURVE SMOOTH",
"305 390 OFFCURVE",
"270 307 OFFCURVE",
"186 307 CURVE SMOOTH"
);
}
);
width = 385;
},
{
layerId = "98E204A9-1C79-49C7-AB3E-40A925F56409";
paths = (
{
closed = 1;
nodes = (
"402 290 OFFCURVE",
"525 396 OFFCURVE",
"525 485 CURVE SMOOTH",
"525 643 OFFCURVE",
"431 724 OFFCURVE",
"288 724 CURVE SMOOTH",
"150 724 OFFCURVE",
"52 637 OFFCURVE",
"52 510 CURVE SMOOTH",
"52 379 OFFCURVE",
"132 290 OFFCURVE",
"266 290 CURVE SMOOTH"
);
},
{
closed = 1;
nodes = (
"580 0 LINE",
"580 73 LINE",
"580 171 OFFCURVE",
"533 208 OFFCURVE",
"443 208 CURVE SMOOTH",
"212 208 LINE",
"212 262 LINE",
"56 262 LINE",
"56 0 LINE",
"212 0 LINE",
"212 63 LINE",
"379 63 LINE SMOOTH",
"419 63 OFFCURVE",
"424 48 OFFCURVE",
"424 18 CURVE SMOOTH",
"424 0 LINE"
);
},
{
closed = 1;
nodes = (
"386 94 OFFCURVE",
"525 261 OFFCURVE",
"525 485 CURVE",
"364 485 LINE",
"367 329 OFFCURVE",
"311 208 OFFCURVE",
"210 208 CURVE",
"210 94 LINE"
);
},
{
closed = 1;
nodes = (
"244 439 OFFCURVE",
"222 465 OFFCURVE",
"222 505 CURVE SMOOTH",
"222 547 OFFCURVE",
"242 575 OFFCURVE",
"288 575 CURVE SMOOTH",
"336 575 OFFCURVE",
"355 548 OFFCURVE",
"355 505 CURVE SMOOTH",
"355 464 OFFCURVE",
"335 439 OFFCURVE",
"290 439 CURVE SMOOTH"
);
}
);
width = 616;
},
{
layerId = "A1853AD3-B2DD-40FD-B6DE-455F76E0019F";
paths = (
{
closed = 1;
nodes = (
"329 285 OFFCURVE",
"408 401 OFFCURVE",
"408 499 CURVE SMOOTH",
"408 636 OFFCURVE",
"344 726 OFFCURVE",
"228 726 CURVE SMOOTH",
"120 726 OFFCURVE",
"46 642 OFFCURVE",
"46 508 CURVE SMOOTH",
"46 381 OFFCURVE",
"115 285 OFFCURVE",
"217 285 CURVE SMOOTH"
);
},
{
closed = 1;
nodes = (
"448 0 LINE",
"448 58 LINE SMOOTH",
"448 136 OFFCURVE",
"414 170 OFFCURVE",
"341 170 CURVE SMOOTH",
"132 170 LINE",
"132 228 LINE",
"54 228 LINE",
"54 0 LINE",
"132 0 LINE",
"132 96 LINE",
"310 96 LINE SMOOTH",
"358 96 OFFCURVE",
"371 75 OFFCURVE",
"371 35 CURVE SMOOTH",
"371 0 LINE"
);
},
{
closed = 1;
nodes = (
"275 111 OFFCURVE",
"408 236 OFFCURVE",
"408 499 CURVE",
"331 499 LINE",
"332 280 OFFCURVE",
"240 170 OFFCURVE",
"134 170 CURVE",
"134 111 LINE"
);
},
{
closed = 1;
nodes = (
"160 359 OFFCURVE",
"129 419 OFFCURVE",
"129 506 CURVE SMOOTH",
"129 598 OFFCURVE",
"163 652 OFFCURVE",
"228 652 CURVE SMOOTH",
"298 652 OFFCURVE",
"325 589 OFFCURVE",
"325 506 CURVE SMOOTH",
"325 419 OFFCURVE",
"296 359 OFFCURVE",
"227 359 CURVE SMOOTH"
);
}
);
width = 477;
},
{
layerId = "D2208E43-FD40-4479-A9D4-232E25B1FBE9";
paths = (
{
closed = 1;
nodes = (
"374 288 OFFCURVE",
"481 391 OFFCURVE",
"481 490 CURVE SMOOTH",
"481 640 OFFCURVE",
"398 725 OFFCURVE",
"265 725 CURVE SMOOTH",
"139 725 OFFCURVE",
"50 639 OFFCURVE",
"50 509 CURVE SMOOTH",
"50 384 OFFCURVE",
"135 288 OFFCURVE",
"247 288 CURVE SMOOTH"
);
},
{
closed = 1;
nodes = (
"529 0 LINE",
"529 67 LINE SMOOTH",
"529 157 OFFCURVE",
"487 193 OFFCURVE",
"404 193 CURVE SMOOTH",
"181 193 LINE",
"181 249 LINE",
"55 249 LINE",
"55 0 LINE",
"181 0 LINE",
"181 73 LINE",
"352 73 LINE SMOOTH",
"395 73 OFFCURVE",
"403 56 OFFCURVE",
"403 25 CURVE SMOOTH",
"403 0 LINE"
);
},
{
closed = 1;
nodes = (
"343 100 OFFCURVE",
"481 251 OFFCURVE",
"481 490 CURVE",
"352 490 LINE",
"354 310 OFFCURVE",
"284 193 OFFCURVE",
"181 193 CURVE",
"181 100 LINE"
);
},
{
closed = 1;
nodes = (
"211 409 OFFCURVE",
"186 447 OFFCURVE",
"186 505 CURVE SMOOTH",
"186 567 OFFCURVE",
"211 604 OFFCURVE",
"265 604 CURVE SMOOTH",
"321 604 OFFCURVE",
"343 564 OFFCURVE",
"343 505 CURVE SMOOTH",
"343 447 OFFCURVE",
"320 409 OFFCURVE",
"266 409 CURVE SMOOTH"
);
}
);
width = 563;
}
);
leftKerningGroup = uni0536;
note = uni0536;
rightKerningGroup = uni0536;
unicode = 0536;
},
{
glyphname = uni0537;
lastChange = "2016-11-04 15:54:44 +0000";
layers = (
{
layerId = "A6CE5D2C-1F2B-4AA6-9C7F-4C063FA35791";
paths = (
{
closed = 1;
nodes = (
"107 454 LINE",
"523 454 LINE",
"523 479 LINE",
"107 479 LINE"
);
},
{
closed = 1;
nodes = (
"505 0 OFFCURVE",
"529 -22 OFFCURVE",
"529 -72 CURVE SMOOTH",
"529 -140 LINE",
"555 -140 LINE",
"555 -71 LINE SMOOTH",
"555 -6 OFFCURVE",
"522 25 OFFCURVE",
"465 25 CURVE",
"122 25 LINE",
"122 714 LINE",
"96 714 LINE",
"96 0 LINE",
"465 0 LINE"
);
}
);
width = 619;
},
{
layerId = "D8F6BD40-B230-4FAA-9AA6-14649630F8F8";
paths = (
{
closed = 1;
nodes = (
"234 355 LINE",
"572 355 LINE",
"572 513 LINE",
"234 513 LINE"
);
},
{
closed = 1;
nodes = (
"353 0 OFFCURVE",
"371 -23 OFFCURVE",
"371 -72 CURVE SMOOTH",
"371 -148 LINE",
"562 -148 LINE",
"562 -53 LINE SMOOTH",
"562 81 OFFCURVE",
"479 158 OFFCURVE",
"327 158 CURVE SMOOTH",
"268 158 LINE",
"268 714 LINE",
"77 714 LINE",
"77 0 LINE",
"301 0 LINE SMOOTH"
);
}
);
width = 626;
},
{
layerId = "0157BCDF-0421-4A1B-8779-FA1232BA51D7";
paths = (
{
closed = 1;
nodes = (
"204 385 LINE",
"566 385 LINE",
"566 503 LINE",
"204 503 LINE"
);
},
{
closed = 1;
nodes = (
"407 0 OFFCURVE",
"427 -23 OFFCURVE",
"427 -72 CURVE SMOOTH",
"427 -146 LINE",
"568 -146 LINE",
"568 -58 LINE SMOOTH",
"568 55 OFFCURVE",
"500 118 OFFCURVE",
"377 118 CURVE SMOOTH",
"232 118 LINE",
"232 714 LINE",
"91 714 LINE",
"91 0 LINE",
"359 0 LINE SMOOTH"
);
}
);
width = 632;
},
{
layerId = "4F0D3757-41F6-4952-AF2C-391AA5989938";
paths = (
{
closed = 1;
nodes = (
"164 416 LINE",
"550 416 LINE",
"550 492 LINE",
"164 492 LINE"
);
},
{
closed = 1;
nodes = (
"453 0 OFFCURVE",
"475 -23 OFFCURVE",
"475 -72 CURVE SMOOTH",
"475 -143 LINE",
"565 -143 LINE",
"565 -64 LINE SMOOTH",
"565 28 OFFCURVE",
"513 76 OFFCURVE",
"419 76 CURVE SMOOTH",
"186 76 LINE",
"186 714 LINE",
"96 714 LINE",
"96 0 LINE",
"409 0 LINE SMOOTH"
);
}
);
width = 629;
},
{
layerId = "029FEF0C-5FA4-4A3E-AC23-838A1147A554";
paths = (
{
closed = 1;
nodes = (
"95 456 LINE",
"337 456 LINE",
"337 481 LINE",
"95 481 LINE"
);
},
{
closed = 1;
nodes = (
"307 0 OFFCURVE",
"327 -23 OFFCURVE",
"327 -69 CURVE SMOOTH",
"327 -143 LINE",
"353 -143 LINE",
"353 -69 LINE SMOOTH",
"353 -8 OFFCURVE",
"323 25 OFFCURVE",
"263 25 CURVE SMOOTH",
"104 25 LINE",
"104 717 LINE",
"78 717 LINE",
"78 0 LINE",
"259 0 LINE SMOOTH"
);
}
);
width = 407;
},
{
layerId = "98E204A9-1C79-49C7-AB3E-40A925F56409";
paths = (
{
closed = 1;
nodes = (
"152 371 LINE",
"472 371 LINE",
"472 516 LINE",
"152 516 LINE"
);
},
{
closed = 1;
nodes = (
"292 0 OFFCURVE",
"300 -23 OFFCURVE",
"300 -70 CURVE SMOOTH",
"300 -148 LINE",
"470 -148 LINE",
"470 -31 LINE SMOOTH",
"470 96 OFFCURVE",
"410 145 OFFCURVE",
"295 145 CURVE SMOOTH",
"226 145 LINE",
"226 714 LINE",
"56 714 LINE",
"56 0 LINE",
"230 0 LINE"
);
}
);
width = 520;
},
{
layerId = "A1853AD3-B2DD-40FD-B6DE-455F76E0019F";
paths = (
{
closed = 1;
nodes = (
"117 421 LINE",
"390 421 LINE",
"390 495 LINE",
"117 495 LINE"
);
},
{
closed = 1;
nodes = (
"301 0 OFFCURVE",
"316 -23 OFFCURVE",
"316 -69 CURVE SMOOTH",
"316 -145 LINE",
"399 -145 LINE",
"399 -54 LINE SMOOTH",
"399 33 OFFCURVE",
"357 74 OFFCURVE",
"276 74 CURVE SMOOTH",
"152 74 LINE",
"152 716 LINE",
"69 716 LINE",
"69 0 LINE",
"247 0 LINE SMOOTH"
);
}
);
width = 453;
},
{
layerId = "D2208E43-FD40-4479-A9D4-232E25B1FBE9";
paths = (
{
closed = 1;
nodes = (
"138 388 LINE",
"440 388 LINE",
"440 508 LINE",
"138 508 LINE"
);
},
{
closed = 1;
nodes = (
"295 0 OFFCURVE",
"306 -23 OFFCURVE",
"306 -70 CURVE SMOOTH",
"306 -147 LINE",
"443 -147 LINE",
"443 -40 LINE SMOOTH",
"443 75 OFFCURVE",
"390 120 OFFCURVE",
"288 120 CURVE SMOOTH",
"198 120 LINE",
"198 715 LINE",
"61 715 LINE",
"61 0 LINE",
"237 0 LINE SMOOTH"
);
}
);
width = 497;
}
);
note = uni0537;
rightKerningGroup = uni0537;
unicode = 0537;
},
{
glyphname = uni0538;
lastChange = "2016-11-04 15:54:44 +0000";
layers = (
{
layerId = "A6CE5D2C-1F2B-4AA6-9C7F-4C063FA35791";
paths = (
{
closed = 1;
nodes = (
"116 0 LINE",
"116 470 LINE SMOOTH",
"116 622 OFFCURVE",
"200 699 OFFCURVE",
"342 699 CURVE SMOOTH",
"491 699 OFFCURVE",
"567 620 OFFCURVE",
"567 460 CURVE",
"593 460 LINE",
"593 633 OFFCURVE",
"508 724 OFFCURVE",
"343 724 CURVE SMOOTH",
"188 724 OFFCURVE",
"90 640 OFFCURVE",
"90 462 CURVE SMOOTH",
"90 0 LINE"
);
},
{
closed = 1;
nodes = (
"109 0 LINE",
"595 0 LINE",
"595 25 LINE",
"109 25 LINE"
);
}
);
width = 663;
},
{
layerId = "D8F6BD40-B230-4FAA-9AA6-14649630F8F8";
paths = (
{
closed = 1;
nodes = (
"264 0 LINE",
"264 425 LINE SMOOTH",
"264 523 OFFCURVE",
"289 564 OFFCURVE",
"365 564 CURVE SMOOTH",
"442 564 OFFCURVE",
"468 526 OFFCURVE",
"468 420 CURVE",
"659 420 LINE",
"659 618 OFFCURVE",
"569 724 OFFCURVE",
"370 724 CURVE SMOOTH",
"166 724 OFFCURVE",
"73 600 OFFCURVE",
"73 462 CURVE SMOOTH",
"73 0 LINE"
);
},
{
closed = 1;
nodes = (
"248 0 LINE",
"665 0 LINE",
"665 158 LINE",
"248 158 LINE"
);
}
);
width = 721;
},
{
layerId = "0157BCDF-0421-4A1B-8779-FA1232BA51D7";
paths = (
{
closed = 1;
nodes = (
"227 0 LINE",
"227 439 LINE SMOOTH",
"227 554 OFFCURVE",
"270 606 OFFCURVE",
"366 606 CURVE SMOOTH",
"465 606 OFFCURVE",
"506 556 OFFCURVE",
"506 432 CURVE",
"647 432 LINE",
"647 623 OFFCURVE",
"558 724 OFFCURVE",
"369 724 CURVE SMOOTH",
"180 724 OFFCURVE",
"86 612 OFFCURVE",
"86 462 CURVE SMOOTH",
"86 0 LINE"
);
},
{
closed = 1;
nodes = (
"213 0 LINE",
"651 0 LINE",
"651 118 LINE",
"213 118 LINE"
);
}
);
width = 717;
},
{
layerId = "4F0D3757-41F6-4952-AF2C-391AA5989938";
paths = (
{
closed = 1;
nodes = (
"180 0 LINE",
"180 453 LINE SMOOTH",
"180 585 OFFCURVE",
"241 648 OFFCURVE",
"357 648 CURVE SMOOTH",
"479 648 OFFCURVE",
"535 585 OFFCURVE",
"535 445 CURVE",
"625 445 LINE",
"625 627 OFFCURVE",
"538 724 OFFCURVE",
"360 724 CURVE SMOOTH",
"186 724 OFFCURVE",
"90 625 OFFCURVE",
"90 462 CURVE SMOOTH",
"90 0 LINE"
);
},
{
closed = 1;
nodes = (
"169 0 LINE",
"628 0 LINE",
"628 76 LINE",
"169 76 LINE"
);
}
);
width = 696;
},
{
layerId = "029FEF0C-5FA4-4A3E-AC23-838A1147A554";
paths = (
{
closed = 1;
nodes = (
"98 0 LINE",
"98 493 LINE SMOOTH",
"98 651 OFFCURVE",
"158 699 OFFCURVE",
"243 699 CURVE SMOOTH",
"334 699 OFFCURVE",
"388 643 OFFCURVE",
"388 493 CURVE",
"414 493 LINE",
"414 655 OFFCURVE",
"353 724 OFFCURVE",
"243 724 CURVE SMOOTH",
"148 724 OFFCURVE",
"72 672 OFFCURVE",
"72 497 CURVE SMOOTH",
"72 0 LINE"
);
},
{
closed = 1;
nodes = (
"91 0 LINE",
"414 0 LINE",
"414 25 LINE",
"91 25 LINE"
);
}
);
width = 472;
},
{
layerId = "98E204A9-1C79-49C7-AB3E-40A925F56409";
paths = (
{
closed = 1;
nodes = (
"226 0 LINE",
"226 467 LINE SMOOTH",
"226 551 OFFCURVE",
"247 579 OFFCURVE",
"295 579 CURVE SMOOTH",
"351 579 OFFCURVE",
"363 543 OFFCURVE",
"363 430 CURVE",
"533 430 LINE",
"533 645 OFFCURVE",
"461 724 OFFCURVE",
"297 724 CURVE SMOOTH",
"141 724 OFFCURVE",
"56 637 OFFCURVE",
"56 472 CURVE SMOOTH",
"56 0 LINE"
);
},
{
closed = 1;
nodes = (
"210 0 LINE",
"533 0 LINE",
"533 145 LINE",
"210 145 LINE"
);
}
);
width = 581;
},
{
layerId = "A1853AD3-B2DD-40FD-B6DE-455F76E0019F";
paths = (
{
closed = 1;
nodes = (
"149 0 LINE",
"149 483 LINE SMOOTH",
"149 610 OFFCURVE",
"194 650 OFFCURVE",
"264 650 CURVE SMOOTH",
"341 650 OFFCURVE",
"378 602 OFFCURVE",
"378 468 CURVE",
"462 468 LINE",
"462 651 OFFCURVE",
"400 724 OFFCURVE",
"265 724 CURVE SMOOTH",
"146 724 OFFCURVE",
"66 658 OFFCURVE",
"66 487 CURVE SMOOTH",
"66 0 LINE"
);
},
{
closed = 1;
nodes = (
"138 0 LINE",
"461 0 LINE",
"461 74 LINE",
"138 74 LINE"
);
}
);
width = 515;
},
{
layerId = "D2208E43-FD40-4479-A9D4-232E25B1FBE9";
paths = (
{
closed = 1;
nodes = (
"197 0 LINE",
"197 473 LINE SMOOTH",
"197 571 OFFCURVE",
"227 604 OFFCURVE",
"283 604 CURVE SMOOTH",
"347 604 OFFCURVE",
"369 563 OFFCURVE",
"369 445 CURVE",
"506 445 LINE",
"506 647 OFFCURVE",
"444 724 OFFCURVE",
"285 724 CURVE SMOOTH",
"143 724 OFFCURVE",
"60 645 OFFCURVE",
"60 478 CURVE SMOOTH",
"60 0 LINE"
);
},
{
closed = 1;
nodes = (
"183 0 LINE",
"506 0 LINE",
"506 120 LINE",
"183 120 LINE"
);
}
);
width = 556;
}
);
leftKerningGroup = uni0538;
note = uni0538;
rightKerningGroup = uni0532;
unicode = 0538;
},
{
glyphname = uni0539;
lastChange = "2016-11-04 15:54:44 +0000";
layers = (
{
layerId = "A6CE5D2C-1F2B-4AA6-9C7F-4C063FA35791";
paths = (
{
closed = 1;
nodes = (
"116 0 LINE",
"116 470 LINE SMOOTH",
"116 622 OFFCURVE",
"200 699 OFFCURVE",
"342 699 CURVE SMOOTH",
"491 699 OFFCURVE",
"567 610 OFFCURVE",
"567 450 CURVE",
"593 450 LINE",
"593 623 OFFCURVE",
"508 724 OFFCURVE",
"343 724 CURVE SMOOTH",
"188 724 OFFCURVE",
"90 640 OFFCURVE",
"90 462 CURVE SMOOTH",
"90 0 LINE"
);
},
{
closed = 1;
nodes = (
"484 468 LINE SMOOTH",
"354 468 OFFCURVE",
"285 421 OFFCURVE",
"285 316 CURVE SMOOTH",
"285 222 OFFCURVE",
"344 175 OFFCURVE",
"429 175 CURVE SMOOTH",
"545 175 OFFCURVE",
"593 241 OFFCURVE",
"593 443 CURVE",
"696 443 LINE",
"696 468 LINE"
);
},
{
closed = 1;
nodes = (
"567 257 OFFCURVE",
"525 200 OFFCURVE",
"432 200 CURVE SMOOTH",
"364 200 OFFCURVE",
"312 241 OFFCURVE",
"312 316 CURVE SMOOTH",
"312 407 OFFCURVE",
"371 443 OFFCURVE",
"484 443 CURVE SMOOTH",
"567 443 LINE"
);
}
);
width = 693;
},
{
layerId = "D8F6BD40-B230-4FAA-9AA6-14649630F8F8";
paths = (
{
closed = 1;
nodes = (
"264 0 LINE",
"264 386 LINE SMOOTH",
"264 507 OFFCURVE",
"330 566 OFFCURVE",
"456 566 CURVE SMOOTH",
"601 566 OFFCURVE",
"653 539 OFFCURVE",
"653 424 CURVE",
"844 424 LINE",
"844 614 OFFCURVE",
"718 724 OFFCURVE",
"456 724 CURVE SMOOTH",
"204 724 OFFCURVE",
"73 583 OFFCURVE",
"73 389 CURVE SMOOTH",
"73 0 LINE"
);
},
{
closed = 1;
nodes = (
"590 503 LINE SMOOTH",
"424 503 OFFCURVE",
"338 425 OFFCURVE",
"338 292 CURVE SMOOTH",
"338 166 OFFCURVE",
"417 75 OFFCURVE",
"594 75 CURVE SMOOTH",
"735 75 OFFCURVE",
"844 179 OFFCURVE",
"844 345 CURVE",
"983 345 LINE",
"983 503 LINE"
);
},
{
closed = 1;
nodes = (
"653 255 OFFCURVE",
"622 233 OFFCURVE",
"589 233 CURVE SMOOTH",
"546 233 OFFCURVE",
"535 262 OFFCURVE",
"535 292 CURVE SMOOTH",
"535 330 OFFCURVE",
"554 345 OFFCURVE",
"587 345 CURVE SMOOTH",
"653 345 LINE"
);
}
);
width = 1021;
},
{
layerId = "0157BCDF-0421-4A1B-8779-FA1232BA51D7";
paths = (
{
closed = 1;
nodes = (
"227 0 LINE",
"227 411 LINE SMOOTH",
"227 536 OFFCURVE",
"298 606 OFFCURVE",
"429 606 CURVE SMOOTH",
"575 606 OFFCURVE",
"635 555 OFFCURVE",
"635 432 CURVE",
"775 432 LINE",
"775 622 OFFCURVE",
"656 724 OFFCURVE",
"429 724 CURVE SMOOTH",
"206 724 OFFCURVE",
"86 593 OFFCURVE",
"86 411 CURVE SMOOTH",
"86 0 LINE"
);
},
{
closed = 1;
nodes = (
"570 499 LINE SMOOTH",
"421 499 OFFCURVE",
"343 433 OFFCURVE",
"343 318 CURVE SMOOTH",
"343 208 OFFCURVE",
"425 130 OFFCURVE",
"556 130 CURVE SMOOTH",
"685 130 OFFCURVE",
"775 219 OFFCURVE",
"775 381 CURVE",
"903 381 LINE",
"903 499 LINE"
);
},
{
closed = 1;
nodes = (
"635 279 OFFCURVE",
"604 248 OFFCURVE",
"557 248 CURVE SMOOTH",
"505 248 OFFCURVE",
"489 279 OFFCURVE",
"489 319 CURVE SMOOTH",
"489 360 OFFCURVE",
"523 381 OFFCURVE",
"571 381 CURVE SMOOTH",
"635 381 LINE"
);
}
);
width = 924;
},
{
layerId = "4F0D3757-41F6-4952-AF2C-391AA5989938";
paths = (
{
closed = 1;
nodes = (
"180 0 LINE",
"180 437 LINE SMOOTH",
"180 574 OFFCURVE",
"257 648 OFFCURVE",
"393 648 CURVE SMOOTH",
"540 648 OFFCURVE",
"607 580 OFFCURVE",
"607 440 CURVE",
"697 440 LINE",
"697 622 OFFCURVE",
"599 724 OFFCURVE",
"396 724 CURVE SMOOTH",
"203 724 OFFCURVE",
"90 614 OFFCURVE",
"90 434 CURVE SMOOTH",
"90 0 LINE"
);
},
{
closed = 1;
nodes = (
"534 485 LINE SMOOTH",
"394 485 OFFCURVE",
"320 428 OFFCURVE",
"320 317 CURVE SMOOTH",
"320 214 OFFCURVE",
"392 150 OFFCURVE",
"502 150 CURVE SMOOTH",
"626 150 OFFCURVE",
"697 229 OFFCURVE",
"697 409 CURVE",
"814 409 LINE",
"814 485 LINE"
);
},
{
closed = 1;
nodes = (
"607 269 OFFCURVE",
"571 226 OFFCURVE",
"504 226 CURVE SMOOTH",
"445 226 OFFCURVE",
"413 261 OFFCURVE",
"413 318 CURVE SMOOTH",
"413 381 OFFCURVE",
"458 409 OFFCURVE",
"535 409 CURVE SMOOTH",
"607 409 LINE"
);
}
);
width = 811;
},
{
layerId = "029FEF0C-5FA4-4A3E-AC23-838A1147A554";
paths = (
{
closed = 1;
nodes = (
"98 0 LINE",
"98 493 LINE SMOOTH",
"98 651 OFFCURVE",
"158 699 OFFCURVE",
"243 699 CURVE SMOOTH",
"334 699 OFFCURVE",
"388 633 OFFCURVE",
"388 458 CURVE",
"414 458 LINE",
"414 645 OFFCURVE",
"353 724 OFFCURVE",
"243 724 CURVE SMOOTH",
"148 724 OFFCURVE",
"72 672 OFFCURVE",
"72 490 CURVE SMOOTH",
"72 0 LINE"
);
},
{
closed = 1;
nodes = (
"320 469 LINE SMOOTH",
"227 469 OFFCURVE",
"188 424 OFFCURVE",
"188 316 CURVE SMOOTH",
"188 228 OFFCURVE",
"227 175 OFFCURVE",
"295 175 CURVE SMOOTH",
"387 175 OFFCURVE",
"414 248 OFFCURVE",
"414 444 CURVE",
"508 444 LINE",
"508 469 LINE"
);
},
{
closed = 1;
nodes = (
"389 270 OFFCURVE",
"366 200 OFFCURVE",
"296 200 CURVE SMOOTH",
"244 200 OFFCURVE",
"215 244 OFFCURVE",
"215 316 CURVE SMOOTH",
"215 405 OFFCURVE",
"241 444 OFFCURVE",
"320 444 CURVE SMOOTH",
"388 444 LINE"
);
}
);
width = 520;
},
{
layerId = "98E204A9-1C79-49C7-AB3E-40A925F56409";
paths = (
{
closed = 1;
nodes = (
"226 0 LINE",
"226 452 LINE SMOOTH",
"226 536 OFFCURVE",
"273 579 OFFCURVE",
"381 579 CURVE SMOOTH",
"507 579 OFFCURVE",
"534 543 OFFCURVE",
"534 430 CURVE",
"704 430 LINE",
"704 635 OFFCURVE",
"595 724 OFFCURVE",
"383 724 CURVE SMOOTH",
"171 724 OFFCURVE",
"56 622 OFFCURVE",
"56 457 CURVE SMOOTH",
"56 0 LINE"
);
},
{
closed = 1;
nodes = (
"490 502 LINE SMOOTH",
"360 502 OFFCURVE",
"280 440 OFFCURVE",
"280 312 CURVE SMOOTH",
"280 183 OFFCURVE",
"357 106 OFFCURVE",
"494 106 CURVE SMOOTH",
"616 106 OFFCURVE",
"701 187 OFFCURVE",
"704 357 CURVE",
"819 357 LINE",
"819 502 LINE"
);
},
{
closed = 1;
nodes = (
"535 277 OFFCURVE",
"516 251 OFFCURVE",
"492 251 CURVE SMOOTH",
"460 251 OFFCURVE",
"450 267 OFFCURVE",
"450 303 CURVE SMOOTH",
"450 334 OFFCURVE",
"466 357 OFFCURVE",
"498 357 CURVE SMOOTH",
"534 357 LINE"
);
}
);
width = 834;
},
{
layerId = "A1853AD3-B2DD-40FD-B6DE-455F76E0019F";
paths = (
{
closed = 1;
nodes = (
"149 0 LINE",
"149 483 LINE SMOOTH",
"149 600 OFFCURVE",
"199 650 OFFCURVE",
"298 650 CURVE SMOOTH",
"403 650 OFFCURVE",
"447 590 OFFCURVE",
"447 447 CURVE",
"530 447 LINE",
"530 635 OFFCURVE",
"460 724 OFFCURVE",
"299 724 CURVE SMOOTH",
"153 724 OFFCURVE",
"66 648 OFFCURVE",
"66 487 CURVE SMOOTH",
"66 0 LINE"
);
},
{
closed = 1;
nodes = (
"382 487 LINE SMOOTH",
"281 487 OFFCURVE",
"227 428 OFFCURVE",
"227 317 CURVE SMOOTH",
"227 215 OFFCURVE",
"285 153 OFFCURVE",
"374 153 CURVE SMOOTH",
"469 153 OFFCURVE",
"528 224 OFFCURVE",
"530 413 CURVE",
"632 413 LINE",
"632 487 LINE"
);
},
{
closed = 1;
nodes = (
"446 281 OFFCURVE",
"426 227 OFFCURVE",
"374 227 CURVE SMOOTH",
"332 227 OFFCURVE",
"311 259 OFFCURVE",
"311 314 CURVE SMOOTH",
"311 383 OFFCURVE",
"339 413 OFFCURVE",
"397 413 CURVE SMOOTH",
"446 413 LINE"
);
}
);
width = 645;
},
{
layerId = "D2208E43-FD40-4479-A9D4-232E25B1FBE9";
paths = (
{
closed = 1;
nodes = (
"197 0 LINE",
"197 463 LINE SMOOTH",
"197 561 OFFCURVE",
"247 604 OFFCURVE",
"349 604 CURVE SMOOTH",
"467 604 OFFCURVE",
"501 557 OFFCURVE",
"501 435 CURVE",
"637 435 LINE",
"637 634 OFFCURVE",
"549 724 OFFCURVE",
"351 724 CURVE SMOOTH",
"166 724 OFFCURVE",
"60 635 OFFCURVE",
"60 468 CURVE SMOOTH",
"60 0 LINE"
);
},
{
closed = 1;
nodes = (
"448 502 LINE SMOOTH",
"329 502 OFFCURVE",
"263 435 OFFCURVE",
"263 317 CURVE SMOOTH",
"263 202 OFFCURVE",
"338 133 OFFCURVE",
"448 133 CURVE SMOOTH",
"559 133 OFFCURVE",
"634 202 OFFCURVE",
"637 382 CURVE",
"747 382 LINE",
"747 502 LINE"
);
},
{
closed = 1;
nodes = (
"501 281 OFFCURVE",
"481 253 OFFCURVE",
"446 253 CURVE SMOOTH",
"414 253 OFFCURVE",
"400 273 OFFCURVE",
"400 311 CURVE SMOOTH",
"400 361 OFFCURVE",
"420 382 OFFCURVE",
"459 382 CURVE SMOOTH",
"500 382 LINE"
);
}
);
width = 762;
}
);
leftKerningGroup = uni0538;
note = uni0539;
rightKerningGroup = uni0539;
unicode = 0539;
},
{
glyphname = uni053A;
lastChange = "2016-11-04 15:54:44 +0000";
layers = (
{
layerId = "A6CE5D2C-1F2B-4AA6-9C7F-4C063FA35791";
paths = (
{
closed = 1;
nodes = (
"542 714 LINE",
"542 254 LINE SMOOTH",
"542 102 OFFCURVE",
"458 15 OFFCURVE",
"316 15 CURVE SMOOTH",
"167 15 OFFCURVE",
"91 88 OFFCURVE",
"91 235 CURVE",
"65 235 LINE",
"65 74 OFFCURVE",
"150 -10 OFFCURVE",
"315 -10 CURVE SMOOTH",
"470 -10 OFFCURVE",
"568 84 OFFCURVE",
"568 262 CURVE SMOOTH",
"568 714 LINE"
);
},
{
closed = 1;
nodes = (
"170 480 OFFCURVE",
"65 396 OFFCURVE",
"65 235 CURVE",
"91 235 LINE",
"91 382 OFFCURVE",
"187 455 OFFCURVE",
"336 455 CURVE",
"713 455 LINE",
"713 480 LINE",
"335 480 LINE"
);
}
);
width = 742;
},
{
layerId = "D8F6BD40-B230-4FAA-9AA6-14649630F8F8";
paths = (
{
closed = 1;
nodes = (
"429 714 LINE",
"429 316 LINE SMOOTH",
"429 197 OFFCURVE",
"405 148 OFFCURVE",
"333 148 CURVE SMOOTH",
"278 148 OFFCURVE",
"246 183 OFFCURVE",
"246 240 CURVE",
"48 240 LINE",
"48 92 OFFCURVE",
"162 -10 OFFCURVE",
"335 -10 CURVE SMOOTH",
"530 -10 OFFCURVE",
"620 94 OFFCURVE",
"620 308 CURVE SMOOTH",
"620 714 LINE"
);
},
{
closed = 1;
nodes = (
"146 509 OFFCURVE",
"48 399 OFFCURVE",
"48 240 CURVE",
"246 240 LINE",
"246 313 OFFCURVE",
"269 351 OFFCURVE",
"344 351 CURVE SMOOTH",
"755 351 LINE",
"755 509 LINE",
"319 509 LINE SMOOTH"
);
}
);
width = 770;
},
{
layerId = "0157BCDF-0421-4A1B-8779-FA1232BA51D7";
paths = (
{
closed = 1;
nodes = (
"469 714 LINE",
"469 297 LINE SMOOTH",
"469 167 OFFCURVE",
"427 108 OFFCURVE",
"334 108 CURVE SMOOTH",
"250 108 OFFCURVE",
"205 153 OFFCURVE",
"205 239 CURVE",
"59 239 LINE",
"59 87 OFFCURVE",
"164 -10 OFFCURVE",
"335 -10 CURVE SMOOTH",
"517 -10 OFFCURVE",
"610 92 OFFCURVE",
"610 295 CURVE SMOOTH",
"610 714 LINE"
);
},
{
closed = 1;
nodes = (
"152 500 OFFCURVE",
"59 368 OFFCURVE",
"59 239 CURVE",
"205 239 LINE",
"205 334 OFFCURVE",
"250 382 OFFCURVE",
"347 382 CURVE SMOOTH",
"748 382 LINE",
"748 500 LINE",
"330 500 LINE SMOOTH"
);
}
);
width = 772;
},
{
layerId = "4F0D3757-41F6-4952-AF2C-391AA5989938";
paths = (
{
closed = 1;
nodes = (
"505 714 LINE",
"505 278 LINE SMOOTH",
"505 139 OFFCURVE",
"444 66 OFFCURVE",
"329 66 CURVE SMOOTH",
"217 66 OFFCURVE",
"158 125 OFFCURVE",
"158 237 CURVE",
"65 237 LINE",
"65 81 OFFCURVE",
"161 -10 OFFCURVE",
"329 -10 CURVE SMOOTH",
"500 -10 OFFCURVE",
"595 84 OFFCURVE",
"595 276 CURVE SMOOTH",
"595 714 LINE"
);
},
{
closed = 1;
nodes = (
"167 491 OFFCURVE",
"65 397 OFFCURVE",
"65 237 CURVE",
"158 237 LINE",
"158 355 OFFCURVE",
"225 415 OFFCURVE",
"346 415 CURVE SMOOTH",
"736 415 LINE",
"736 491 LINE",
"336 491 LINE SMOOTH"
);
}
);
width = 765;
},
{
layerId = "029FEF0C-5FA4-4A3E-AC23-838A1147A554";
paths = (
{
closed = 1;
nodes = (
"364 714 LINE",
"364 221 LINE SMOOTH",
"364 63 OFFCURVE",
"304 15 OFFCURVE",
"219 15 CURVE SMOOTH",
"128 15 OFFCURVE",
"74 71 OFFCURVE",
"74 231 CURVE",
"48 231 LINE",
"48 59 OFFCURVE",
"109 -10 OFFCURVE",
"219 -10 CURVE SMOOTH",
"314 -10 OFFCURVE",
"390 42 OFFCURVE",
"390 217 CURVE SMOOTH",
"390 714 LINE"
);
},
{
closed = 1;
nodes = (
"117 482 OFFCURVE",
"48 394 OFFCURVE",
"48 231 CURVE",
"74 231 LINE",
"74 382 OFFCURVE",
"133 457 OFFCURVE",
"246 457 CURVE SMOOTH",
"492 457 LINE",
"492 482 LINE",
"245 482 LINE SMOOTH"
);
}
);
width = 504;
},
{
layerId = "98E204A9-1C79-49C7-AB3E-40A925F56409";
paths = (
{
closed = 1;
nodes = (
"344 714 LINE",
"344 247 LINE SMOOTH",
"344 163 OFFCURVE",
"323 135 OFFCURVE",
"275 135 CURVE SMOOTH",
"227 135 OFFCURVE",
"208 174 OFFCURVE",
"208 254 CURVE",
"38 254 LINE",
"38 81 OFFCURVE",
"131 -10 OFFCURVE",
"273 -10 CURVE SMOOTH",
"429 -10 OFFCURVE",
"514 77 OFFCURVE",
"514 242 CURVE SMOOTH",
"514 714 LINE"
);
},
{
closed = 1;
nodes = (
"124 505 OFFCURVE",
"38 412 OFFCURVE",
"38 254 CURVE",
"208 254 LINE",
"208 318 OFFCURVE",
"235 360 OFFCURVE",
"290 360 CURVE SMOOTH",
"638 360 LINE",
"638 505 LINE",
"269 505 LINE SMOOTH"
);
}
);
width = 653;
},
{
layerId = "A1853AD3-B2DD-40FD-B6DE-455F76E0019F";
paths = (
{
closed = 1;
nodes = (
"356 714 LINE",
"356 231 LINE SMOOTH",
"356 104 OFFCURVE",
"312 64 OFFCURVE",
"241 64 CURVE SMOOTH",
"167 64 OFFCURVE",
"127 114 OFFCURVE",
"127 240 CURVE",
"44 240 LINE",
"44 68 OFFCURVE",
"118 -10 OFFCURVE",
"241 -10 CURVE SMOOTH",
"360 -10 OFFCURVE",
"439 56 OFFCURVE",
"439 227 CURVE SMOOTH",
"439 714 LINE"
);
},
{
closed = 1;
nodes = (
"119 491 OFFCURVE",
"44 401 OFFCURVE",
"44 240 CURVE",
"127 240 LINE",
"127 356 OFFCURVE",
"174 417 OFFCURVE",
"256 417 CURVE SMOOTH",
"550 417 LINE",
"550 491 LINE",
"247 491 LINE SMOOTH"
);
}
);
width = 563;
},
{
layerId = "D2208E43-FD40-4479-A9D4-232E25B1FBE9";
paths = (
{
closed = 1;
nodes = (
"348 714 LINE",
"348 241 LINE SMOOTH",
"348 143 OFFCURVE",
"318 110 OFFCURVE",
"262 110 CURVE SMOOTH",
"204 110 OFFCURVE",
"177 153 OFFCURVE",
"177 249 CURVE",
"40 249 LINE",
"40 76 OFFCURVE",
"126 -10 OFFCURVE",
"260 -10 CURVE SMOOTH",
"402 -10 OFFCURVE",
"485 69 OFFCURVE",
"485 236 CURVE SMOOTH",
"485 714 LINE"
);
},
{
closed = 1;
nodes = (
"122 500 OFFCURVE",
"40 408 OFFCURVE",
"40 249 CURVE",
"177 249 LINE",
"177 333 OFFCURVE",
"211 380 OFFCURVE",
"277 380 CURVE SMOOTH",
"604 380 LINE",
"604 500 LINE",
"260 500 LINE SMOOTH"
);
}
);
width = 619;
}
);
leftKerningGroup = uni053A;
note = uni053A;
rightKerningGroup = uni053A;
unicode = 053A;
},
{
glyphname = uni053B;
lastChange = "2016-11-04 15:54:44 +0000";
layers = (
{
layerId = "A6CE5D2C-1F2B-4AA6-9C7F-4C063FA35791";
paths = (
{
closed = 1;
nodes = (
"96 0 LINE",
"122 0 LINE",
"122 399 LINE",
"119 399 LINE",
"121 447 OFFCURVE",
"122 485 OFFCURVE",
"122 528 CURVE SMOOTH",
"122 714 LINE",
"96 714 LINE"
);
},
{
closed = 1;
nodes = (
"122 200 LINE",
"122 284 LINE SMOOTH",
"122 433 OFFCURVE",
"208 513 OFFCURVE",
"350 513 CURVE SMOOTH",
"493 513 OFFCURVE",
"565 441 OFFCURVE",
"565 294 CURVE SMOOTH",
"565 274 LINE",
"591 274 LINE",
"591 294 LINE SMOOTH",
"591 456 OFFCURVE",
"508 538 OFFCURVE",
"351 538 CURVE SMOOTH",
"196 538 OFFCURVE",
"106 452 OFFCURVE",
"106 296 CURVE SMOOTH",
"106 200 LINE"
);
}
);
width = 651;
},
{
layerId = "D8F6BD40-B230-4FAA-9AA6-14649630F8F8";
paths = (
{
closed = 1;
nodes = (
"77 0 LINE",
"268 0 LINE",
"268 427 LINE",
"260 427 LINE",
"266 460 OFFCURVE",
"268 494 OFFCURVE",
"268 529 CURVE SMOOTH",
"268 714 LINE",
"77 714 LINE"
);
},
{
closed = 1;
nodes = (
"268 189 LINE",
"268 215 LINE SMOOTH",
"268 296 OFFCURVE",
"335 346 OFFCURVE",
"413 346 CURVE SMOOTH",
"477 346 OFFCURVE",
"512 306 OFFCURVE",
"512 233 CURVE SMOOTH",
"512 172 LINE",
"703 172 LINE",
"703 248 LINE SMOOTH",
"703 395 OFFCURVE",
"607 504 OFFCURVE",
"463 504 CURVE SMOOTH",
"390 504 OFFCURVE",
"312 473 OFFCURVE",
"258 416 CURVE",
"258 189 LINE"
);
}
);
width = 739;
},
{
layerId = "0157BCDF-0421-4A1B-8779-FA1232BA51D7";
paths = (
{
closed = 1;
nodes = (
"91 0 LINE",
"232 0 LINE",
"232 403 LINE",
"225 403 LINE",
"230 440 OFFCURVE",
"232 476 OFFCURVE",
"232 513 CURVE SMOOTH",
"232 714 LINE",
"91 714 LINE"
);
},
{
closed = 1;
nodes = (
"232 206 LINE",
"232 232 LINE SMOOTH",
"232 341 OFFCURVE",
"304 396 OFFCURVE",
"402 396 CURVE SMOOTH",
"490 396 OFFCURVE",
"536 347 OFFCURVE",
"536 252 CURVE SMOOTH",
"536 203 LINE",
"677 203 LINE",
"677 262 LINE SMOOTH",
"677 414 OFFCURVE",
"585 514 OFFCURVE",
"437 514 CURVE SMOOTH",
"339 514 OFFCURVE",
"262 473 OFFCURVE",
"224 387 CURVE",
"224 206 LINE"
);
}
);
width = 727;
},
{
layerId = "4F0D3757-41F6-4952-AF2C-391AA5989938";
paths = (
{
closed = 1;
nodes = (
"96 0 LINE",
"186 0 LINE",
"186 397 LINE",
"181 397 LINE",
"184 439 OFFCURVE",
"186 475 OFFCURVE",
"186 515 CURVE SMOOTH",
"186 714 LINE",
"96 714 LINE"
);
},
{
closed = 1;
nodes = (
"186 204 LINE",
"186 255 LINE SMOOTH",
"186 383 OFFCURVE",
"265 449 OFFCURVE",
"382 449 CURVE SMOOTH",
"494 449 OFFCURVE",
"552 389 OFFCURVE",
"552 270 CURVE SMOOTH",
"552 235 LINE",
"642 235 LINE",
"642 276 LINE SMOOTH",
"642 432 OFFCURVE",
"554 525 OFFCURVE",
"402 525 CURVE SMOOTH",
"279 525 OFFCURVE",
"196 474 OFFCURVE",
"175 357 CURVE",
"175 204 LINE"
);
}
);
width = 702;
},
{
layerId = "029FEF0C-5FA4-4A3E-AC23-838A1147A554";
paths = (
{
closed = 1;
nodes = (
"78 0 LINE",
"104 0 LINE",
"104 447 LINE",
"99 447 LINE",
"102 480 OFFCURVE",
"104 512 OFFCURVE",
"104 545 CURVE SMOOTH",
"104 714 LINE",
"78 714 LINE"
);
},
{
closed = 1;
nodes = (
"104 300 LINE",
"104 373 LINE SMOOTH",
"104 440 OFFCURVE",
"156 509 OFFCURVE",
"250 509 CURVE SMOOTH",
"346 509 OFFCURVE",
"372 464 OFFCURVE",
"372 359 CURVE SMOOTH",
"372 277 LINE",
"398 277 LINE",
"398 371 LINE SMOOTH",
"398 476 OFFCURVE",
"360 534 OFFCURVE",
"250 534 CURVE SMOOTH",
"191 534 OFFCURVE",
"136 511 OFFCURVE",
"95 433 CURVE",
"95 300 LINE"
);
}
);
width = 440;
},
{
layerId = "98E204A9-1C79-49C7-AB3E-40A925F56409";
paths = (
{
closed = 1;
nodes = (
"56 0 LINE",
"226 0 LINE",
"226 419 LINE",
"221 419 LINE",
"224 442 OFFCURVE",
"226 477 OFFCURVE",
"226 521 CURVE SMOOTH",
"226 714 LINE",
"56 714 LINE"
);
},
{
closed = 1;
nodes = (
"226 164 LINE",
"226 215 LINE SMOOTH",
"226 302 OFFCURVE",
"257 347 OFFCURVE",
"302 347 CURVE SMOOTH",
"355 347 OFFCURVE",
"367 312 OFFCURVE",
"367 251 CURVE SMOOTH",
"367 175 LINE",
"537 175 LINE",
"537 304 LINE SMOOTH",
"537 438 OFFCURVE",
"470 494 OFFCURVE",
"365 494 CURVE SMOOTH",
"306 494 OFFCURVE",
"253 468 OFFCURVE",
"212 398 CURVE",
"212 164 LINE"
);
}
);
width = 577;
},
{
layerId = "A1853AD3-B2DD-40FD-B6DE-455F76E0019F";
paths = (
{
closed = 1;
nodes = (
"69 0 LINE",
"152 0 LINE",
"152 436 LINE",
"147 436 LINE",
"150 465 OFFCURVE",
"152 498 OFFCURVE",
"152 535 CURVE SMOOTH",
"152 714 LINE",
"69 714 LINE"
);
},
{
closed = 1;
nodes = (
"153 246 LINE",
"153 310 LINE SMOOTH",
"153 385 OFFCURVE",
"197 444 OFFCURVE",
"271 444 CURVE SMOOTH",
"350 444 OFFCURVE",
"370 403 OFFCURVE",
"370 316 CURVE SMOOTH",
"370 236 LINE",
"454 236 LINE",
"454 344 LINE SMOOTH",
"454 461 OFFCURVE",
"404 518 OFFCURVE",
"296 518 CURVE SMOOTH",
"237 518 OFFCURVE",
"183 494 OFFCURVE",
"142 419 CURVE",
"142 246 LINE"
);
}
);
width = 495;
},
{
layerId = "D2208E43-FD40-4479-A9D4-232E25B1FBE9";
paths = (
{
closed = 1;
nodes = (
"61 0 LINE",
"198 0 LINE",
"198 425 LINE",
"193 425 LINE",
"196 451 OFFCURVE",
"198 485 OFFCURVE",
"198 527 CURVE SMOOTH",
"198 714 LINE",
"61 714 LINE"
);
},
{
closed = 1;
nodes = (
"198 195 LINE",
"198 251 LINE SMOOTH",
"198 334 OFFCURVE",
"234 383 OFFCURVE",
"290 383 CURVE SMOOTH",
"353 383 OFFCURVE",
"368 347 OFFCURVE",
"368 276 CURVE SMOOTH",
"368 199 LINE",
"505 199 LINE",
"505 319 LINE SMOOTH",
"505 447 OFFCURVE",
"445 503 OFFCURVE",
"338 503 CURVE SMOOTH",
"279 503 OFFCURVE",
"226 478 OFFCURVE",
"185 406 CURVE",
"185 195 LINE"
);
}
);
width = 545;
}
);
leftKerningGroup = uni053B;
note = uni053B;
rightKerningGroup = uni053B;
unicode = 053B;
},
{
glyphname = uni053C;
lastChange = "2016-11-04 15:54:44 +0000";
layers = (
{
layerId = "A6CE5D2C-1F2B-4AA6-9C7F-4C063FA35791";
paths = (
{
closed = 1;
nodes = (
"341 0 LINE",
"341 25 LINE",
"122 25 LINE",
"122 714 LINE",
"96 714 LINE",
"96 0 LINE"
);
}
);
width = 364;
},
{
layerId = "D8F6BD40-B230-4FAA-9AA6-14649630F8F8";
paths = (
{
closed = 1;
nodes = (
"445 0 LINE",
"445 158 LINE",
"268 158 LINE",
"268 714 LINE",
"77 714 LINE",
"77 0 LINE"
);
}
);
width = 468;
},
{
layerId = "0157BCDF-0421-4A1B-8779-FA1232BA51D7";
paths = (
{
closed = 1;
nodes = (
"422 0 LINE",
"422 118 LINE",
"232 118 LINE",
"232 714 LINE",
"91 714 LINE",
"91 0 LINE"
);
}
);
width = 446;
},
{
layerId = "4F0D3757-41F6-4952-AF2C-391AA5989938";
paths = (
{
closed = 1;
nodes = (
"389 0 LINE",
"389 76 LINE",
"186 76 LINE",
"186 714 LINE",
"96 714 LINE",
"96 0 LINE"
);
}
);
width = 412;
},
{
layerId = "029FEF0C-5FA4-4A3E-AC23-838A1147A554";
paths = (
{
closed = 1;
nodes = (
"232 0 LINE",
"232 25 LINE",
"104 25 LINE",
"104 714 LINE",
"78 714 LINE",
"78 0 LINE"
);
}
);
width = 244;
},
{
layerId = "98E204A9-1C79-49C7-AB3E-40A925F56409";
paths = (
{
closed = 1;
nodes = (
"374 0 LINE",
"374 145 LINE",
"226 145 LINE",
"226 714 LINE",
"56 714 LINE",
"56 0 LINE"
);
}
);
width = 389;
},
{
layerId = "A1853AD3-B2DD-40FD-B6DE-455F76E0019F";
paths = (
{
closed = 1;
nodes = (
"288 0 LINE",
"288 74 LINE",
"152 74 LINE",
"152 714 LINE",
"69 714 LINE",
"69 0 LINE"
);
}
);
width = 302;
},
{
layerId = "D2208E43-FD40-4479-A9D4-232E25B1FBE9";
paths = (
{
closed = 1;
nodes = (
"341 0 LINE",
"341 120 LINE",
"198 120 LINE",
"198 714 LINE",
"61 714 LINE",
"61 0 LINE"
);
}
);
width = 356;
}
);
note = uni053C;
rightKerningGroup = uni0533;
unicode = 053C;
},
{
glyphname = uni053D;
lastChange = "2016-11-04 15:54:44 +0000";
layers = (
{
layerId = "A6CE5D2C-1F2B-4AA6-9C7F-4C063FA35791";
paths = (
{
closed = 1;
nodes = (
"122 0 LINE",
"122 714 LINE",
"96 714 LINE",
"96 0 LINE"
);
},
{
closed = 1;
nodes = (
"330 379 LINE SMOOTH",
"330 259 OFFCURVE",
"380 197 OFFCURVE",
"492 197 CURVE SMOOTH",
"593 197 OFFCURVE",
"650 259 OFFCURVE",
"650 379 CURVE SMOOTH",
"650 482 LINE",
"624 482 LINE",
"624 384 LINE SMOOTH",
"624 271 OFFCURVE",
"582 222 OFFCURVE",
"492 222 CURVE SMOOTH",
"398 222 OFFCURVE",
"356 271 OFFCURVE",
"356 384 CURVE SMOOTH",
"356 482 LINE",
"330 482 LINE"
);
},
{
closed = 1;
nodes = (
"109 457 LINE",
"356 457 LINE",
"356 482 LINE",
"109 482 LINE"
);
}
);
width = 698;
},
{
layerId = "D8F6BD40-B230-4FAA-9AA6-14649630F8F8";
paths = (
{
closed = 1;
nodes = (
"268 0 LINE",
"268 714 LINE",
"77 714 LINE",
"77 0 LINE"
);
},
{
closed = 1;
nodes = (
"412 378 LINE SMOOTH",
"412 210 OFFCURVE",
"504 124 OFFCURVE",
"677 124 CURVE SMOOTH",
"851 124 OFFCURVE",
"942 219 OFFCURVE",
"942 391 CURVE SMOOTH",
"942 596 LINE",
"751 596 LINE",
"751 398 LINE SMOOTH",
"751 314 OFFCURVE",
"729 282 OFFCURVE",
"677 282 CURVE SMOOTH",
"627 282 OFFCURVE",
"603 317 OFFCURVE",
"603 398 CURVE SMOOTH",
"603 596 LINE",
"412 596 LINE"
);
},
{
closed = 1;
nodes = (
"156 438 LINE",
"528 438 LINE",
"528 596 LINE",
"156 596 LINE"
);
}
);
width = 985;
},
{
layerId = "0157BCDF-0421-4A1B-8779-FA1232BA51D7";
paths = (
{
closed = 1;
nodes = (
"232 0 LINE",
"232 714 LINE",
"91 714 LINE",
"91 0 LINE"
);
},
{
closed = 1;
nodes = (
"396 378 LINE SMOOTH",
"396 225 OFFCURVE",
"475 146 OFFCURVE",
"630 146 CURVE SMOOTH",
"781 146 OFFCURVE",
"862 231 OFFCURVE",
"862 387 CURVE SMOOTH",
"862 561 LINE",
"721 561 LINE",
"721 394 LINE SMOOTH",
"721 301 OFFCURVE",
"693 264 OFFCURVE",
"630 264 CURVE SMOOTH",
"566 264 OFFCURVE",
"537 303 OFFCURVE",
"537 394 CURVE SMOOTH",
"537 561 LINE",
"396 561 LINE"
);
},
{
closed = 1;
nodes = (
"150 443 LINE",
"484 443 LINE",
"484 561 LINE",
"150 561 LINE"
);
}
);
width = 910;
},
{
layerId = "4F0D3757-41F6-4952-AF2C-391AA5989938";
paths = (
{
closed = 1;
nodes = (
"186 0 LINE",
"186 714 LINE",
"96 714 LINE",
"96 0 LINE"
);
},
{
closed = 1;
nodes = (
"370 378 LINE SMOOTH",
"370 240 OFFCURVE",
"436 169 OFFCURVE",
"572 169 CURVE SMOOTH",
"701 169 OFFCURVE",
"771 244 OFFCURVE",
"771 384 CURVE SMOOTH",
"771 526 LINE",
"681 526 LINE",
"681 390 LINE SMOOTH",
"681 288 OFFCURVE",
"647 245 OFFCURVE",
"572 245 CURVE SMOOTH",
"495 245 OFFCURVE",
"460 289 OFFCURVE",
"460 390 CURVE SMOOTH",
"460 526 LINE",
"370 526 LINE"
);
},
{
closed = 1;
nodes = (
"135 449 LINE",
"431 449 LINE",
"431 526 LINE",
"135 526 LINE"
);
}
);
width = 819;
},
{
layerId = "029FEF0C-5FA4-4A3E-AC23-838A1147A554";
paths = (
{
closed = 1;
nodes = (
"104 -3 LINE",
"104 717 LINE",
"78 717 LINE",
"78 -3 LINE"
);
},
{
closed = 1;
nodes = (
"225 339 LINE SMOOTH",
"225 237 OFFCURVE",
"261 197 OFFCURVE",
"329 197 CURVE SMOOTH",
"394 197 OFFCURVE",
"431 240 OFFCURVE",
"431 338 CURVE SMOOTH",
"431 480 LINE",
"405 480 LINE",
"405 343 LINE SMOOTH",
"405 250 OFFCURVE",
"376 222 OFFCURVE",
"329 222 CURVE SMOOTH",
"279 222 OFFCURVE",
"251 250 OFFCURVE",
"251 343 CURVE SMOOTH",
"251 480 LINE",
"225 480 LINE"
);
},
{
closed = 1;
nodes = (
"91 455 LINE",
"246 455 LINE",
"246 480 LINE",
"91 480 LINE"
);
}
);
width = 473;
},
{
layerId = "98E204A9-1C79-49C7-AB3E-40A925F56409";
paths = (
{
closed = 1;
nodes = (
"226 0 LINE",
"226 714 LINE",
"56 714 LINE",
"56 0 LINE"
);
},
{
closed = 1;
nodes = (
"336 378 LINE SMOOTH",
"336 246 OFFCURVE",
"414 170 OFFCURVE",
"562 170 CURVE SMOOTH",
"709 170 OFFCURVE",
"788 252 OFFCURVE",
"788 391 CURVE",
"788 596 LINE",
"618 596 LINE",
"618 400 LINE SMOOTH",
"618 340 OFFCURVE",
"602 315 OFFCURVE",
"562 315 CURVE SMOOTH",
"524 315 OFFCURVE",
"506 341 OFFCURVE",
"506 400 CURVE",
"506 596 LINE",
"336 596 LINE"
);
},
{
closed = 1;
nodes = (
"122 451 LINE",
"442 451 LINE",
"442 596 LINE",
"122 596 LINE"
);
}
);
width = 828;
},
{
layerId = "A1853AD3-B2DD-40FD-B6DE-455F76E0019F";
paths = (
{
closed = 1;
nodes = (
"152 -2 LINE",
"152 716 LINE",
"69 716 LINE",
"69 -2 LINE"
);
},
{
closed = 1;
nodes = (
"269 355 LINE SMOOTH",
"269 241 OFFCURVE",
"322 186 OFFCURVE",
"422 186 CURVE SMOOTH",
"519 186 OFFCURVE",
"573 245 OFFCURVE",
"573 359 CURVE SMOOTH",
"573 526 LINE",
"490 526 LINE",
"490 366 LINE SMOOTH",
"490 287 OFFCURVE",
"466 260 OFFCURVE",
"422 260 CURVE SMOOTH",
"376 260 OFFCURVE",
"352 287 OFFCURVE",
"352 366 CURVE SMOOTH",
"352 526 LINE",
"269 526 LINE"
);
},
{
closed = 1;
nodes = (
"103 452 LINE",
"324 452 LINE",
"324 526 LINE",
"103 526 LINE"
);
}
);
width = 615;
},
{
layerId = "D2208E43-FD40-4479-A9D4-232E25B1FBE9";
paths = (
{
closed = 1;
nodes = (
"198 -1 LINE",
"198 715 LINE",
"61 715 LINE",
"61 -1 LINE"
);
},
{
closed = 1;
nodes = (
"310 369 LINE SMOOTH",
"310 244 OFFCURVE",
"378 176 OFFCURVE",
"508 176 CURVE SMOOTH",
"636 176 OFFCURVE",
"705 249 OFFCURVE",
"705 379 CURVE SMOOTH",
"705 569 LINE",
"568 569 LINE",
"568 387 LINE SMOOTH",
"568 321 OFFCURVE",
"549 296 OFFCURVE",
"508 296 CURVE SMOOTH",
"467 296 OFFCURVE",
"447 322 OFFCURVE",
"447 387 CURVE SMOOTH",
"447 569 LINE",
"310 569 LINE"
);
},
{
closed = 1;
nodes = (
"115 449 LINE",
"397 449 LINE",
"397 569 LINE",
"115 569 LINE"
);
}
);
width = 746;
}
);
leftKerningGroup = uni053B;
note = uni053D;
rightKerningGroup = uni053D;
unicode = 053D;
},
{
glyphname = uni053E;
lastChange = "2016-11-04 15:54:44 +0000";
layers = (
{
layerId = "A6CE5D2C-1F2B-4AA6-9C7F-4C063FA35791";
paths = (
{
closed = 1;
nodes = (
"61 101 OFFCURVE",
"145 -10 OFFCURVE",
"325 -10 CURVE SMOOTH",
"501 -10 OFFCURVE",
"591 107 OFFCURVE",
"591 276 CURVE SMOOTH",
"591 432 OFFCURVE",
"484 557 OFFCURVE",
"248 595 CURVE SMOOTH",
"136 613 OFFCURVE",
"91 645 OFFCURVE",
"84 714 CURVE",
"60 714 LINE",
"66 631 OFFCURVE",
"123 592 OFFCURVE",
"229 575 CURVE SMOOTH",
"459 538 OFFCURVE",
"564 422 OFFCURVE",
"564 276 CURVE SMOOTH",
"564 124 OFFCURVE",
"487 15 OFFCURVE",
"325 15 CURVE SMOOTH",
"167 15 OFFCURVE",
"88 116 OFFCURVE",
"88 277 CURVE SMOOTH",
"88 507 OFFCURVE",
"353 699 OFFCURVE",
"603 699 CURVE",
"603 724 LINE",
"342 724 OFFCURVE",
"61 518 OFFCURVE",
"61 277 CURVE SMOOTH"
);
}
);
width = 663;
},
{
layerId = "D8F6BD40-B230-4FAA-9AA6-14649630F8F8";
paths = (
{
closed = 1;
nodes = (
"52 93 OFFCURVE",
"170 -10 OFFCURVE",
"379 -10 CURVE SMOOTH",
"574 -10 OFFCURVE",
"704 95 OFFCURVE",
"704 246 CURVE SMOOTH",
"704 406 OFFCURVE",
"647 486 OFFCURVE",
"379 588 CURVE SMOOTH",
"229 645 OFFCURVE",
"225 659 OFFCURVE",
"225 714 CURVE",
"33 714 LINE",
"33 579 OFFCURVE",
"58 538 OFFCURVE",
"275 456 CURVE SMOOTH",
"457 388 OFFCURVE",
"512 343 OFFCURVE",
"512 255 CURVE SMOOTH",
"512 179 OFFCURVE",
"451 148 OFFCURVE",
"379 148 CURVE SMOOTH",
"284 148 OFFCURVE",
"244 188 OFFCURVE",
"244 259 CURVE SMOOTH",
"244 445 OFFCURVE",
"447 572 OFFCURVE",
"700 564 CURVE",
"700 722 LINE",
"364 727 OFFCURVE",
"52 512 OFFCURVE",
"52 256 CURVE SMOOTH"
);
}
);
width = 751;
},
{
layerId = "0157BCDF-0421-4A1B-8779-FA1232BA51D7";
paths = (
{
closed = 1;
nodes = (
"62 101 OFFCURVE",
"182 -10 OFFCURVE",
"365 -10 CURVE SMOOTH",
"547 -10 OFFCURVE",
"677 100 OFFCURVE",
"677 262 CURVE SMOOTH",
"677 411 OFFCURVE",
"608 514 OFFCURVE",
"346 604 CURVE SMOOTH",
"201 654 OFFCURVE",
"189 669 OFFCURVE",
"189 714 CURVE",
"48 714 LINE",
"48 609 OFFCURVE",
"89 571 OFFCURVE",
"298 498 CURVE SMOOTH",
"464 441 OFFCURVE",
"535 367 OFFCURVE",
"535 261 CURVE SMOOTH",
"535 163 OFFCURVE",
"469 108 OFFCURVE",
"365 108 CURVE SMOOTH",
"265 108 OFFCURVE",
"204 168 OFFCURVE",
"204 264 CURVE SMOOTH",
"204 460 OFFCURVE",
"449 606 OFFCURVE",
"677 606 CURVE",
"677 724 LINE",
"389 724 OFFCURVE",
"62 512 OFFCURVE",
"62 262 CURVE SMOOTH"
);
}
);
width = 736;
},
{
layerId = "4F0D3757-41F6-4952-AF2C-391AA5989938";
paths = (
{
closed = 1;
nodes = (
"68 101 OFFCURVE",
"172 -10 OFFCURVE",
"354 -10 CURVE SMOOTH",
"533 -10 OFFCURVE",
"645 103 OFFCURVE",
"645 268 CURVE SMOOTH",
"645 420 OFFCURVE",
"549 536 OFFCURVE",
"309 600 CURVE SMOOTH",
"179 635 OFFCURVE",
"152 658 OFFCURVE",
"149 714 CURVE",
"60 714 LINE",
"63 619 OFFCURVE",
"110 580 OFFCURVE",
"274 535 CURVE SMOOTH",
"480 478 OFFCURVE",
"554 391 OFFCURVE",
"554 268 CURVE SMOOTH",
"554 146 OFFCURVE",
"483 66 OFFCURVE",
"354 66 CURVE SMOOTH",
"228 66 OFFCURVE",
"159 145 OFFCURVE",
"159 270 CURVE SMOOTH",
"159 478 OFFCURVE",
"414 648 OFFCURVE",
"651 648 CURVE",
"651 724 LINE",
"375 724 OFFCURVE",
"68 515 OFFCURVE",
"68 269 CURVE SMOOTH"
);
}
);
width = 711;
},
{
layerId = "029FEF0C-5FA4-4A3E-AC23-838A1147A554";
paths = (
{
closed = 1;
nodes = (
"42 89 OFFCURVE",
"98 -10 OFFCURVE",
"214 -10 CURVE SMOOTH",
"328 -10 OFFCURVE",
"389 80 OFFCURVE",
"389 252 CURVE SMOOTH",
"389 420 OFFCURVE",
"304 523 OFFCURVE",
"162 567 CURVE SMOOTH",
"91 589 OFFCURVE",
"80 626 OFFCURVE",
"76 714 CURVE",
"51 714 LINE",
"54 612 OFFCURVE",
"78 566 OFFCURVE",
"151 544 CURVE SMOOTH",
"286 504 OFFCURVE",
"362 408 OFFCURVE",
"362 252 CURVE SMOOTH",
"362 98 OFFCURVE",
"317 15 OFFCURVE",
"214 15 CURVE SMOOTH",
"116 15 OFFCURVE",
"69 98 OFFCURVE",
"69 249 CURVE SMOOTH",
"69 497 OFFCURVE",
"236 699 OFFCURVE",
"385 699 CURVE",
"385 724 LINE",
"221 724 OFFCURVE",
"42 510 OFFCURVE",
"42 254 CURVE SMOOTH"
);
}
);
width = 433;
},
{
layerId = "98E204A9-1C79-49C7-AB3E-40A925F56409";
paths = (
{
closed = 1;
nodes = (
"36 95 OFFCURVE",
"139 -10 OFFCURVE",
"311 -10 CURVE SMOOTH",
"470 -10 OFFCURVE",
"577 93 OFFCURVE",
"577 256 CURVE SMOOTH",
"577 397 OFFCURVE",
"511 496 OFFCURVE",
"328 582 CURVE SMOOTH",
"216 635 OFFCURVE",
"213 658 OFFCURVE",
"213 714 CURVE",
"43 714 LINE",
"43 590 OFFCURVE",
"66 545 OFFCURVE",
"215 473 CURVE SMOOTH",
"369 399 OFFCURVE",
"407 341 OFFCURVE",
"407 255 CURVE SMOOTH",
"407 175 OFFCURVE",
"376 135 OFFCURVE",
"306 135 CURVE SMOOTH",
"244 135 OFFCURVE",
"206 182 OFFCURVE",
"206 259 CURVE SMOOTH",
"206 424 OFFCURVE",
"366 579 OFFCURVE",
"575 579 CURVE",
"575 724 LINE",
"293 724 OFFCURVE",
"36 490 OFFCURVE",
"36 256 CURVE SMOOTH"
);
}
);
width = 619;
},
{
layerId = "A1853AD3-B2DD-40FD-B6DE-455F76E0019F";
paths = (
{
closed = 1;
nodes = (
"40 94 OFFCURVE",
"116 -10 OFFCURVE",
"253 -10 CURVE SMOOTH",
"385 -10 OFFCURVE",
"464 89 OFFCURVE",
"464 254 CURVE SMOOTH",
"464 411 OFFCURVE",
"387 512 OFFCURVE",
"229 577 CURVE SMOOTH",
"142 613 OFFCURVE",
"128 633 OFFCURVE",
"128 714 CURVE",
"48 714 LINE",
"48 603 OFFCURVE",
"75 565 OFFCURVE",
"177 520 CURVE SMOOTH",
"319 462 OFFCURVE",
"380 387 OFFCURVE",
"380 253 CURVE SMOOTH",
"380 129 OFFCURVE",
"341 64 OFFCURVE",
"251 64 CURVE SMOOTH",
"167 64 OFFCURVE",
"124 132 OFFCURVE",
"124 253 CURVE SMOOTH",
"124 468 OFFCURVE",
"287 650 OFFCURVE",
"461 650 CURVE",
"461 724 LINE",
"250 724 OFFCURVE",
"40 502 OFFCURVE",
"40 255 CURVE SMOOTH"
);
}
);
width = 507;
},
{
layerId = "D2208E43-FD40-4479-A9D4-232E25B1FBE9";
paths = (
{
closed = 1;
nodes = (
"37 99 OFFCURVE",
"131 -10 OFFCURVE",
"288 -10 CURVE SMOOTH",
"437 -10 OFFCURVE",
"533 98 OFFCURVE",
"533 255 CURVE SMOOTH",
"533 402 OFFCURVE",
"463 502 OFFCURVE",
"289 586 CURVE SMOOTH",
"188 635 OFFCURVE",
"179 658 OFFCURVE",
"179 714 CURVE",
"44 714 LINE",
"44 595 OFFCURVE",
"71 564 OFFCURVE",
"200 497 CURVE SMOOTH",
"349 423 OFFCURVE",
"396 349 OFFCURVE",
"396 254 CURVE SMOOTH",
"396 158 OFFCURVE",
"362 110 OFFCURVE",
"284 110 CURVE SMOOTH",
"214 110 OFFCURVE",
"174 163 OFFCURVE",
"174 257 CURVE SMOOTH",
"174 441 OFFCURVE",
"348 604 OFFCURVE",
"531 604 CURVE",
"531 724 LINE",
"276 721 OFFCURVE",
"37 495 OFFCURVE",
"37 256 CURVE SMOOTH"
);
}
);
width = 576;
}
);
leftKerningGroup = uni053E;
note = uni053E;
rightKerningGroup = uni053E;
unicode = 053E;
},
{
glyphname = uni053F;
lastChange = "2016-11-04 15:54:44 +0000";
layers = (
{
layerId = "A6CE5D2C-1F2B-4AA6-9C7F-4C063FA35791";
paths = (
{
closed = 1;
nodes = (
"564 524 LINE",
"538 524 LINE",
"538 366 LINE",
"541 366 LINE",
"539 318 OFFCURVE",
"538 279 OFFCURVE",
"538 236 CURVE SMOOTH",
"538 0 LINE",
"564 0 LINE"
);
},
{
closed = 1;
nodes = (
"538 514 LINE",
"538 480 LINE SMOOTH",
"538 328 OFFCURVE",
"452 251 OFFCURVE",
"310 251 CURVE SMOOTH",
"161 251 OFFCURVE",
"105 330 OFFCURVE",
"105 490 CURVE",
"105 714 LINE",
"79 714 LINE",
"79 490 LINE",
"79 317 OFFCURVE",
"144 226 OFFCURVE",
"309 226 CURVE SMOOTH",
"464 226 OFFCURVE",
"554 312 OFFCURVE",
"554 468 CURVE SMOOTH",
"554 514 LINE"
);
}
);
width = 657;
},
{
layerId = "D8F6BD40-B230-4FAA-9AA6-14649630F8F8";
paths = (
{
closed = 1;
nodes = (
"684 625 LINE",
"493 625 LINE",
"493 277 LINE",
"501 277 LINE",
"495 245 OFFCURVE",
"493 190 OFFCURVE",
"493 175 CURVE SMOOTH",
"493 0 LINE",
"684 0 LINE"
);
},
{
closed = 1;
nodes = (
"493 605 LINE",
"493 568 LINE SMOOTH",
"493 434 OFFCURVE",
"472 350 OFFCURVE",
"358 350 CURVE SMOOTH",
"292 350 OFFCURVE",
"257 391 OFFCURVE",
"257 470 CURVE SMOOTH",
"257 714 LINE",
"66 714 LINE",
"66 421 LINE SMOOTH",
"66 259 OFFCURVE",
"169 192 OFFCURVE",
"296 192 CURVE SMOOTH",
"447 192 OFFCURVE",
"554 299 OFFCURVE",
"554 444 CURVE SMOOTH",
"554 605 LINE"
);
}
);
width = 756;
},
{
layerId = "0157BCDF-0421-4A1B-8779-FA1232BA51D7";
paths = (
{
closed = 1;
nodes = (
"654 618 LINE",
"513 618 LINE",
"513 300 LINE",
"520 300 LINE",
"515 263 OFFCURVE",
"513 213 OFFCURVE",
"513 189 CURVE SMOOTH",
"513 0 LINE",
"654 0 LINE"
);
},
{
closed = 1;
nodes = (
"513 599 LINE",
"513 542 LINE SMOOTH",
"513 402 OFFCURVE",
"472 320 OFFCURVE",
"349 320 CURVE SMOOTH",
"258 320 OFFCURVE",
"217 372 OFFCURVE",
"217 476 CURVE SMOOTH",
"217 714 LINE",
"76 714 LINE",
"76 442 LINE SMOOTH",
"76 277 OFFCURVE",
"168 202 OFFCURVE",
"306 202 CURVE SMOOTH",
"458 202 OFFCURVE",
"560 303 OFFCURVE",
"560 451 CURVE SMOOTH",
"560 599 LINE"
);
}
);
width = 741;
},
{
layerId = "4F0D3757-41F6-4952-AF2C-391AA5989938";
paths = (
{
closed = 1;
nodes = (
"616 576 LINE",
"526 576 LINE",
"526 329 LINE",
"531 329 LINE",
"528 287 OFFCURVE",
"526 242 OFFCURVE",
"526 210 CURVE SMOOTH",
"526 0 LINE",
"616 0 LINE"
);
},
{
closed = 1;
nodes = (
"526 561 LINE",
"526 514 LINE SMOOTH",
"526 369 OFFCURVE",
"465 289 OFFCURVE",
"334 289 CURVE SMOOTH",
"217 289 OFFCURVE",
"169 354 OFFCURVE",
"169 482 CURVE SMOOTH",
"169 714 LINE",
"79 714 LINE",
"79 463 LINE SMOOTH",
"79 294 OFFCURVE",
"159 213 OFFCURVE",
"309 213 CURVE SMOOTH",
"462 213 OFFCURVE",
"559 307 OFFCURVE",
"559 459 CURVE SMOOTH",
"559 561 LINE"
);
}
);
width = 709;
},
{
layerId = "029FEF0C-5FA4-4A3E-AC23-838A1147A554";
paths = (
{
closed = 1;
nodes = (
"372 524 LINE",
"346 524 LINE",
"346 319 LINE",
"351 319 LINE",
"348 286 OFFCURVE",
"346 254 OFFCURVE",
"346 221 CURVE SMOOTH",
"346 0 LINE",
"372 0 LINE"
);
},
{
closed = 1;
nodes = (
"346 457 LINE",
"346 389 LINE SMOOTH",
"346 322 OFFCURVE",
"294 248 OFFCURVE",
"211 248 CURVE SMOOTH",
"104 248 OFFCURVE",
"78 293 OFFCURVE",
"78 398 CURVE SMOOTH",
"78 714 LINE",
"52 714 LINE",
"52 386 LINE SMOOTH",
"52 281 OFFCURVE",
"90 223 OFFCURVE",
"210 223 CURVE SMOOTH",
"264 223 OFFCURVE",
"355 261 OFFCURVE",
"355 372 CURVE SMOOTH",
"355 457 LINE"
);
}
);
width = 450;
},
{
layerId = "98E204A9-1C79-49C7-AB3E-40A925F56409";
paths = (
{
closed = 1;
nodes = (
"521 625 LINE",
"351 625 LINE",
"351 265 LINE",
"356 265 LINE",
"353 242 OFFCURVE",
"351 207 OFFCURVE",
"351 163 CURVE SMOOTH",
"351 0 LINE",
"521 0 LINE"
);
},
{
closed = 1;
nodes = (
"351 520 LINE",
"351 469 LINE SMOOTH",
"351 382 OFFCURVE",
"320 337 OFFCURVE",
"275 337 CURVE SMOOTH",
"222 337 OFFCURVE",
"210 372 OFFCURVE",
"210 433 CURVE SMOOTH",
"210 714 LINE",
"40 714 LINE",
"40 380 LINE SMOOTH",
"40 246 OFFCURVE",
"107 190 OFFCURVE",
"212 190 CURVE SMOOTH",
"271 190 OFFCURVE",
"324 216 OFFCURVE",
"365 286 CURVE",
"365 520 LINE"
);
}
);
width = 577;
},
{
layerId = "A1853AD3-B2DD-40FD-B6DE-455F76E0019F";
paths = (
{
closed = 1;
nodes = (
"425 564 LINE",
"342 564 LINE",
"342 302 LINE",
"347 302 LINE",
"344 273 OFFCURVE",
"342 240 OFFCURVE",
"342 203 CURVE SMOOTH",
"342 0 LINE",
"425 0 LINE"
);
},
{
closed = 1;
nodes = (
"342 482 LINE",
"342 421 LINE SMOOTH",
"342 351 OFFCURVE",
"298 284 OFFCURVE",
"230 284 CURVE SMOOTH",
"145 284 OFFCURVE",
"124 325 OFFCURVE",
"124 412 CURVE SMOOTH",
"124 714 LINE",
"41 714 LINE",
"41 384 LINE SMOOTH",
"41 267 OFFCURVE",
"91 210 OFFCURVE",
"205 210 CURVE SMOOTH",
"261 210 OFFCURVE",
"336 243 OFFCURVE",
"353 338 CURVE SMOOTH",
"353 482 LINE"
);
}
);
width = 495;
},
{
layerId = "D2208E43-FD40-4479-A9D4-232E25B1FBE9";
paths = (
{
closed = 1;
nodes = (
"485 602 LINE",
"348 602 LINE",
"348 280 LINE",
"353 280 LINE",
"350 255 OFFCURVE",
"348 221 OFFCURVE",
"348 179 CURVE SMOOTH",
"348 0 LINE",
"485 0 LINE"
);
},
{
closed = 1;
nodes = (
"348 505 LINE",
"348 451 LINE SMOOTH",
"348 368 OFFCURVE",
"311 318 OFFCURVE",
"257 318 CURVE SMOOTH",
"192 318 OFFCURVE",
"177 356 OFFCURVE",
"177 425 CURVE SMOOTH",
"177 714 LINE",
"40 714 LINE",
"40 381 LINE SMOOTH",
"40 254 OFFCURVE",
"100 198 OFFCURVE",
"209 198 CURVE SMOOTH",
"267 198 OFFCURVE",
"329 226 OFFCURVE",
"361 306 CURVE",
"361 505 LINE"
);
}
);
width = 545;
}
);
leftKerningGroup = uni053F;
note = uni053F;
rightKerningGroup = uni0535;
unicode = 053F;
},
{
glyphname = uni0540;
lastChange = "2016-11-04 15:54:44 +0000";
layers = (
{
layerId = "A6CE5D2C-1F2B-4AA6-9C7F-4C063FA35791";
paths = (
{
closed = 1;
nodes = (
"453 702 LINE",
"416 717 OFFCURVE",
"373 724 OFFCURVE",
"325 724 CURVE SMOOTH",
"193 724 OFFCURVE",
"107 645 OFFCURVE",
"89 484 CURVE SMOOTH",
"43 62 LINE",
"69 62 LINE",
"115 485 LINE SMOOTH",
"130 622 OFFCURVE",
"204 699 OFFCURVE",
"324 699 CURVE SMOOTH",
"369 699 OFFCURVE",
"409 692 OFFCURVE",
"443 679 CURVE"
);
},
{
closed = 1;
nodes = (
"355 30 LINE SMOOTH",
"395 26 OFFCURVE",
"419 -4 OFFCURVE",
"419 -54 CURVE SMOOTH",
"419 -62 LINE",
"445 -62 LINE",
"445 -53 LINE SMOOTH",
"445 12 OFFCURVE",
"414 49 OFFCURVE",
"357 55 CURVE SMOOTH",
"71 84 LINE",
"43 62 LINE"
);
}
);
width = 489;
},
{
layerId = "D8F6BD40-B230-4FAA-9AA6-14649630F8F8";
paths = (
{
closed = 1;
nodes = (
"671 638 LINE",
"605 698 OFFCURVE",
"532 730 OFFCURVE",
"454 730 CURVE SMOOTH",
"289 730 OFFCURVE",
"221 657 OFFCURVE",
"167 507 CURVE SMOOTH",
"29 123 LINE",
"212 73 LINE",
"353 460 LINE SMOOTH",
"382 541 OFFCURVE",
"403 570 OFFCURVE",
"454 570 CURVE SMOOTH",
"495 570 OFFCURVE",
"532 545 OFFCURVE",
"562 507 CURVE"
);
},
{
closed = 1;
nodes = (
"328 23 LINE SMOOTH",
"386 4 OFFCURVE",
"418 -24 OFFCURVE",
"418 -74 CURVE SMOOTH",
"418 -145 LINE",
"609 -145 LINE",
"609 -46 LINE SMOOTH",
"609 60 OFFCURVE",
"554 116 OFFCURVE",
"373 176 CURVE SMOOTH",
"91 270 LINE",
"29 123 LINE"
);
}
);
width = 692;
},
{
layerId = "0157BCDF-0421-4A1B-8779-FA1232BA51D7";
paths = (
{
closed = 1;
nodes = (
"609 653 LINE",
"552 702 OFFCURVE",
"488 724 OFFCURVE",
"418 724 CURVE SMOOTH",
"263 724 OFFCURVE",
"189 652 OFFCURVE",
"146 498 CURVE SMOOTH",
"37 104 LINE",
"172 69 LINE",
"284 466 LINE SMOOTH",
"314 574 OFFCURVE",
"338 606 OFFCURVE",
"418 606 CURVE SMOOTH",
"461 606 OFFCURVE",
"499 586 OFFCURVE",
"530 555 CURVE"
);
},
{
closed = 1;
nodes = (
"340 25 LINE SMOOTH",
"393 11 OFFCURVE",
"422 -18 OFFCURVE",
"422 -68 CURVE SMOOTH",
"422 -120 LINE",
"563 -120 LINE",
"563 -48 LINE SMOOTH",
"563 45 OFFCURVE",
"517 102 OFFCURVE",
"372 140 CURVE SMOOTH",
"73 218 LINE",
"37 104 LINE"
);
}
);
width = 633;
},
{
layerId = "4F0D3757-41F6-4952-AF2C-391AA5989938";
paths = (
{
closed = 1;
nodes = (
"543 675 LINE",
"495 709 OFFCURVE",
"440 724 OFFCURVE",
"380 724 CURVE SMOOTH",
"235 724 OFFCURVE",
"154 653 OFFCURVE",
"123 496 CURVE SMOOTH",
"43 86 LINE",
"130 66 LINE",
"211 478 LINE SMOOTH",
"235 599 OFFCURVE",
"282 648 OFFCURVE",
"380 648 CURVE SMOOTH",
"423 648 OFFCURVE",
"462 634 OFFCURVE",
"495 610 CURVE"
);
},
{
closed = 1;
nodes = (
"350 27 LINE SMOOTH",
"397 18 OFFCURVE",
"424 -12 OFFCURVE",
"424 -62 CURVE SMOOTH",
"424 -94 LINE",
"514 -94 LINE",
"514 -50 LINE SMOOTH",
"514 30 OFFCURVE",
"475 79 OFFCURVE",
"369 100 CURVE SMOOTH",
"76 159 LINE",
"43 86 LINE"
);
}
);
width = 575;
},
{
layerId = "029FEF0C-5FA4-4A3E-AC23-838A1147A554";
paths = (
{
closed = 1;
nodes = (
"337 703 LINE",
"312 717 OFFCURVE",
"283 724 OFFCURVE",
"248 724 CURVE SMOOTH",
"153 724 OFFCURVE",
"90 672 OFFCURVE",
"76 498 CURVE SMOOTH",
"42 74 LINE",
"68 73 LINE",
"102 492 LINE SMOOTH",
"115 649 OFFCURVE",
"163 699 OFFCURVE",
"248 699 CURVE SMOOTH",
"277 699 OFFCURVE",
"303 693 OFFCURVE",
"324 681 CURVE"
);
},
{
closed = 1;
nodes = (
"220 40 LINE SMOOTH",
"273 30 OFFCURVE",
"291 14 OFFCURVE",
"291 -33 CURVE SMOOTH",
"291 -62 LINE",
"316 -62 LINE",
"316 -34 LINE SMOOTH",
"316 30 OFFCURVE",
"290 53 OFFCURVE",
"229 64 CURVE SMOOTH",
"52 97 LINE",
"42 74 LINE"
);
}
);
width = 347;
},
{
layerId = "98E204A9-1C79-49C7-AB3E-40A925F56409";
paths = (
{
closed = 1;
nodes = (
"562 658 LINE",
"505 707 OFFCURVE",
"446 724 OFFCURVE",
"379 724 CURVE SMOOTH",
"254 724 OFFCURVE",
"183 669 OFFCURVE",
"133 486 CURVE SMOOTH",
"24 85 LINE",
"190 50 LINE",
"299 448 LINE SMOOTH",
"328 553 OFFCURVE",
"355 575 OFFCURVE",
"393 575 CURVE SMOOTH",
"418 575 OFFCURVE",
"445 563 OFFCURVE",
"472 536 CURVE"
);
},
{
closed = 1;
nodes = (
"289 2 LINE SMOOTH",
"326 -10 OFFCURVE",
"334 -41 OFFCURVE",
"334 -72 CURVE SMOOTH",
"334 -145 LINE",
"504 -145 LINE",
"504 -57 LINE SMOOTH",
"504 38 OFFCURVE",
"478 92 OFFCURVE",
"367 128 CURVE SMOOTH",
"88 219 LINE",
"24 85 LINE"
);
}
);
width = 567;
},
{
layerId = "A1853AD3-B2DD-40FD-B6DE-455F76E0019F";
paths = (
{
closed = 1;
nodes = (
"427 685 LINE",
"389 713 OFFCURVE",
"348 724 OFFCURVE",
"300 724 CURVE SMOOTH",
"193 724 OFFCURVE",
"127 671 OFFCURVE",
"99 493 CURVE SMOOTH",
"35 78 LINE",
"117 64 LINE",
"181 474 LINE SMOOTH",
"200 611 OFFCURVE",
"240 650 OFFCURVE",
"306 650 CURVE SMOOTH",
"333 650 OFFCURVE",
"360 641 OFFCURVE",
"383 623 CURVE"
);
},
{
closed = 1;
nodes = (
"248 25 LINE SMOOTH",
"294 14 OFFCURVE",
"308 -8 OFFCURVE",
"308 -49 CURVE SMOOTH",
"308 -95 LINE",
"391 -95 LINE",
"391 -43 LINE SMOOTH",
"391 33 OFFCURVE",
"365 69 OFFCURVE",
"284 90 CURVE SMOOTH",
"67 146 LINE",
"35 78 LINE"
);
}
);
width = 435;
},
{
layerId = "D2208E43-FD40-4479-A9D4-232E25B1FBE9";
paths = (
{
closed = 1;
nodes = (
"510 668 LINE",
"460 709 OFFCURVE",
"408 724 OFFCURVE",
"349 724 CURVE SMOOTH",
"231 724 OFFCURVE",
"161 670 OFFCURVE",
"120 489 CURVE SMOOTH",
"28 82 LINE",
"162 55 LINE",
"253 458 LINE SMOOTH",
"279 575 OFFCURVE",
"311 604 OFFCURVE",
"359 604 CURVE SMOOTH",
"385 604 OFFCURVE",
"412 593 OFFCURVE",
"438 569 CURVE"
);
},
{
closed = 1;
nodes = (
"273 11 LINE SMOOTH",
"314 -1 OFFCURVE",
"324 -28 OFFCURVE",
"324 -63 CURVE SMOOTH",
"324 -126 LINE",
"460 -126 LINE",
"460 -52 LINE SMOOTH",
"460 36 OFFCURVE",
"434 83 OFFCURVE",
"335 113 CURVE SMOOTH",
"80 191 LINE",
"28 82 LINE"
);
}
);
width = 516;
}
);
note = uni0540;
rightKerningGroup = uni0540;
unicode = 0540;
},
{
glyphname = uni0541;
lastChange = "2016-11-04 15:54:44 +0000";
layers = (
{
layerId = "A6CE5D2C-1F2B-4AA6-9C7F-4C063FA35791";
paths = (
{
closed = 1;
nodes = (
"140 724 OFFCURVE",
"50 643 OFFCURVE",
"50 517 CURVE SMOOTH",
"50 390 OFFCURVE",
"128 305 OFFCURVE",
"265 305 CURVE SMOOTH",
"346 305 OFFCURVE",
"445 341 OFFCURVE",
"504 377 CURVE",
"504 407 LINE",
"448 368 OFFCURVE",
"354 330 OFFCURVE",
"265 330 CURVE SMOOTH",
"145 330 OFFCURVE",
"77 401 OFFCURVE",
"77 517 CURVE SMOOTH",
"77 631 OFFCURVE",
"155 699 OFFCURVE",
"277 699 CURVE SMOOTH",
"447 699 OFFCURVE",
"497 560 OFFCURVE",
"497 432 CURVE SMOOTH",
"497 127 OFFCURVE",
"339 15 OFFCURVE",
"202 15 CURVE",
"202 -10 LINE",
"353 -10 OFFCURVE",
"524 112 OFFCURVE",
"524 430 CURVE SMOOTH",
"524 573 OFFCURVE",
"466 724 OFFCURVE",
"277 724 CURVE SMOOTH"
);
},
{
closed = 1;
nodes = (
"568 30 LINE",
"452 190 OFFCURVE",
"332 236 OFFCURVE",
"225 236 CURVE SMOOTH",
"114 236 OFFCURVE",
"55 190 OFFCURVE",
"55 113 CURVE SMOOTH",
"55 31 OFFCURVE",
"117 -10 OFFCURVE",
"202 -10 CURVE",
"202 15 LINE",
"134 15 OFFCURVE",
"82 50 OFFCURVE",
"82 113 CURVE SMOOTH",
"82 176 OFFCURVE",
"134 211 OFFCURVE",
"225 211 CURVE SMOOTH",
"340 211 OFFCURVE",
"448 157 OFFCURVE",
"568 -10 CURVE"
);
}
);
width = 613;
},
{
layerId = "D8F6BD40-B230-4FAA-9AA6-14649630F8F8";
paths = (
{
closed = 1;
nodes = (
"155 724 OFFCURVE",
"41 641 OFFCURVE",
"41 526 CURVE SMOOTH",
"41 411 OFFCURVE",
"114 349 OFFCURVE",
"296 349 CURVE SMOOTH",
"347 349 OFFCURVE",
"388 352 OFFCURVE",
"444 360 CURVE",
"444 483 LINE",
"408 477 OFFCURVE",
"357 475 OFFCURVE",
"326 475 CURVE SMOOTH",
"255 475 OFFCURVE",
"232 496 OFFCURVE",
"232 524 CURVE SMOOTH",
"232 551 OFFCURVE",
"251 574 OFFCURVE",
"322 574 CURVE SMOOTH",
"389 574 OFFCURVE",
"423 548 OFFCURVE",
"423 448 CURVE SMOOTH",
"423 297 OFFCURVE",
"371 116 OFFCURVE",
"238 116 CURVE",
"238 -10 LINE",
"483 -10 OFFCURVE",
"614 235 OFFCURVE",
"614 425 CURVE SMOOTH",
"614 630 OFFCURVE",
"503 724 OFFCURVE",
"311 724 CURVE SMOOTH"
);
},
{
closed = 1;
nodes = (
"652 149 LINE",
"506 249 OFFCURVE",
"371 312 OFFCURVE",
"231 312 CURVE SMOOTH",
"112 312 OFFCURVE",
"33 249 OFFCURVE",
"33 149 CURVE SMOOTH",
"33 52 OFFCURVE",
"94 -10 OFFCURVE",
"238 -10 CURVE",
"238 116 LINE",
"210 116 OFFCURVE",
"196 133 OFFCURVE",
"196 150 CURVE SMOOTH",
"196 171 OFFCURVE",
"209 186 OFFCURVE",
"246 186 CURVE SMOOTH",
"332 186 OFFCURVE",
"488 103 OFFCURVE",
"652 -19 CURVE"
);
}
);
width = 673;
},
{
layerId = "0157BCDF-0421-4A1B-8779-FA1232BA51D7";
paths = (
{
closed = 1;
nodes = (
"160 724 OFFCURVE",
"53 635 OFFCURVE",
"53 510 CURVE SMOOTH",
"53 380 OFFCURVE",
"153 304 OFFCURVE",
"285 304 CURVE SMOOTH",
"363 304 OFFCURVE",
"415 315 OFFCURVE",
"471 335 CURVE",
"471 434 LINE",
"434 417 OFFCURVE",
"365 406 OFFCURVE",
"314 406 CURVE SMOOTH",
"235 406 OFFCURVE",
"194 442 OFFCURVE",
"194 510 CURVE SMOOTH",
"194 575 OFFCURVE",
"235 612 OFFCURVE",
"314 612 CURVE SMOOTH",
"407 612 OFFCURVE",
"455 551 OFFCURVE",
"455 450 CURVE SMOOTH",
"455 267 OFFCURVE",
"378 90 OFFCURVE",
"236 90 CURVE",
"236 -10 LINE",
"453 -10 OFFCURVE",
"596 198 OFFCURVE",
"596 426 CURVE SMOOTH",
"596 620 OFFCURVE",
"489 724 OFFCURVE",
"311 724 CURVE SMOOTH"
);
},
{
closed = 1;
nodes = (
"636 111 LINE",
"489 214 OFFCURVE",
"376 261 OFFCURVE",
"238 261 CURVE SMOOTH",
"122 261 OFFCURVE",
"49 213 OFFCURVE",
"49 124 CURVE SMOOTH",
"49 36 OFFCURVE",
"104 -10 OFFCURVE",
"236 -10 CURVE",
"236 90 LINE",
"200 90 OFFCURVE",
"180 102 OFFCURVE",
"180 124 CURVE SMOOTH",
"180 150 OFFCURVE",
"199 161 OFFCURVE",
"240 161 CURVE SMOOTH",
"329 161 OFFCURVE",
"490 86 OFFCURVE",
"636 -19 CURVE"
);
}
);
width = 669;
},
{
layerId = "4F0D3757-41F6-4952-AF2C-391AA5989938";
paths = (
{
closed = 1;
nodes = (
"149 729 OFFCURVE",
"50 643 OFFCURVE",
"50 513 CURVE SMOOTH",
"50 384 OFFCURVE",
"144 304 OFFCURVE",
"284 304 CURVE SMOOTH",
"354 304 OFFCURVE",
"427 323 OFFCURVE",
"484 353 CURVE",
"484 422 LINE",
"444 393 OFFCURVE",
"359 372 OFFCURVE",
"284 372 CURVE SMOOTH",
"194 372 OFFCURVE",
"140 424 OFFCURVE",
"140 513 CURVE SMOOTH",
"140 604 OFFCURVE",
"198 655 OFFCURVE",
"308 655 CURVE SMOOTH",
"423 655 OFFCURVE",
"472 564 OFFCURVE",
"472 442 CURVE SMOOTH",
"472 200 OFFCURVE",
"359 58 OFFCURVE",
"219 58 CURVE",
"219 -10 LINE",
"407 -10 OFFCURVE",
"562 160 OFFCURVE",
"562 440 CURVE SMOOTH",
"562 609 OFFCURVE",
"474 729 OFFCURVE",
"308 729 CURVE SMOOTH"
);
},
{
closed = 1;
nodes = (
"604 77 LINE",
"471 206 OFFCURVE",
"355 250 OFFCURVE",
"231 250 CURVE SMOOTH",
"117 250 OFFCURVE",
"50 203 OFFCURVE",
"50 119 CURVE SMOOTH",
"50 34 OFFCURVE",
"107 -10 OFFCURVE",
"219 -10 CURVE",
"219 58 LINE",
"168 58 OFFCURVE",
"135 79 OFFCURVE",
"135 119 CURVE SMOOTH",
"135 162 OFFCURVE",
"168 182 OFFCURVE",
"232 182 CURVE SMOOTH",
"332 182 OFFCURVE",
"470 118 OFFCURVE",
"604 -15 CURVE"
);
}
);
width = 649;
},
{
layerId = "029FEF0C-5FA4-4A3E-AC23-838A1147A554";
paths = (
{
closed = 1;
nodes = (
"96 724 OFFCURVE",
"42 642 OFFCURVE",
"42 507 CURVE SMOOTH",
"42 378 OFFCURVE",
"86 302 OFFCURVE",
"175 302 CURVE SMOOTH",
"222 302 OFFCURVE",
"270 319 OFFCURVE",
"313 359 CURVE",
"313 387 LINE",
"280 351 OFFCURVE",
"221 327 OFFCURVE",
"175 327 CURVE SMOOTH",
"110 327 OFFCURVE",
"68 389 OFFCURVE",
"68 507 CURVE SMOOTH",
"68 627 OFFCURVE",
"109 699 OFFCURVE",
"189 699 CURVE SMOOTH",
"268 699 OFFCURVE",
"305 614 OFFCURVE",
"305 439 CURVE SMOOTH",
"305 153 OFFCURVE",
"224 15 OFFCURVE",
"143 15 CURVE",
"143 -10 LINE",
"236 -10 OFFCURVE",
"331 122 OFFCURVE",
"331 441 CURVE SMOOTH",
"331 629 OFFCURVE",
"288 724 OFFCURVE",
"189 724 CURVE SMOOTH"
);
},
{
closed = 1;
nodes = (
"354 43 LINE",
"294 180 OFFCURVE",
"229 236 OFFCURVE",
"144 236 CURVE SMOOTH",
"78 236 OFFCURVE",
"40 188 OFFCURVE",
"40 114 CURVE SMOOTH",
"40 36 OFFCURVE",
"75 -10 OFFCURVE",
"143 -10 CURVE",
"143 15 LINE",
"91 15 OFFCURVE",
"66 55 OFFCURVE",
"66 114 CURVE SMOOTH",
"66 174 OFFCURVE",
"94 211 OFFCURVE",
"144 211 CURVE SMOOTH",
"223 211 OFFCURVE",
"287 145 OFFCURVE",
"354 -9 CURVE"
);
}
);
width = 385;
},
{
layerId = "98E204A9-1C79-49C7-AB3E-40A925F56409";
paths = (
{
closed = 1;
nodes = (
"136 724 OFFCURVE",
"38 637 OFFCURVE",
"38 524 CURVE SMOOTH",
"38 409 OFFCURVE",
"123 357 OFFCURVE",
"252 357 CURVE SMOOTH",
"287 357 OFFCURVE",
"327 360 OFFCURVE",
"351 365 CURVE",
"351 490 LINE",
"329 485 OFFCURVE",
"301 483 OFFCURVE",
"276 483 CURVE SMOOTH",
"230 483 OFFCURVE",
"208 506 OFFCURVE",
"208 528 CURVE SMOOTH",
"208 559 OFFCURVE",
"228 579 OFFCURVE",
"274 579 CURVE SMOOTH",
"322 579 OFFCURVE",
"341 552 OFFCURVE",
"342 466 CURVE SMOOTH",
"345 250 OFFCURVE",
"276 116 OFFCURVE",
"215 116 CURVE",
"215 -10 LINE",
"391 -10 OFFCURVE",
"513 201 OFFCURVE",
"513 429 CURVE SMOOTH",
"513 638 OFFCURVE",
"417 724 OFFCURVE",
"274 724 CURVE SMOOTH"
);
},
{
closed = 1;
nodes = (
"537 147 LINE",
"381 271 OFFCURVE",
"298 312 OFFCURVE",
"202 312 CURVE SMOOTH",
"98 312 OFFCURVE",
"32 247 OFFCURVE",
"32 149 CURVE SMOOTH",
"32 43 OFFCURVE",
"95 -10 OFFCURVE",
"215 -10 CURVE",
"215 116 LINE",
"198 116 OFFCURVE",
"178 124 OFFCURVE",
"178 150 CURVE SMOOTH",
"178 171 OFFCURVE",
"191 186 OFFCURVE",
"214 186 CURVE SMOOTH",
"270 186 OFFCURVE",
"415 90 OFFCURVE",
"537 -24 CURVE"
);
}
);
width = 561;
},
{
layerId = "A1853AD3-B2DD-40FD-B6DE-455F76E0019F";
paths = (
{
closed = 1;
nodes = (
"112 724 OFFCURVE",
"40 640 OFFCURVE",
"40 508 CURVE SMOOTH",
"40 381 OFFCURVE",
"100 310 OFFCURVE",
"205 310 CURVE SMOOTH",
"248 310 OFFCURVE",
"292 322 OFFCURVE",
"328 348 CURVE",
"328 419 LINE",
"299 395 OFFCURVE",
"252 380 OFFCURVE",
"215 380 CURVE SMOOTH",
"157 380 OFFCURVE",
"123 427 OFFCURVE",
"123 510 CURVE SMOOTH",
"123 599 OFFCURVE",
"156 650 OFFCURVE",
"222 650 CURVE SMOOTH",
"289 650 OFFCURVE",
"319 589 OFFCURVE",
"319 450 CURVE SMOOTH",
"319 192 OFFCURVE",
"244 56 OFFCURVE",
"171 56 CURVE",
"171 -10 LINE",
"297 -10 OFFCURVE",
"403 153 OFFCURVE",
"403 436 CURVE SMOOTH",
"403 632 OFFCURVE",
"339 724 OFFCURVE",
"222 724 CURVE SMOOTH"
);
},
{
closed = 1;
nodes = (
"426 81 LINE",
"328 210 OFFCURVE",
"256 258 OFFCURVE",
"166 258 CURVE SMOOTH",
"85 258 OFFCURVE",
"36 205 OFFCURVE",
"36 124 CURVE SMOOTH",
"36 38 OFFCURVE",
"82 -10 OFFCURVE",
"171 -10 CURVE",
"171 56 LINE",
"133 56 OFFCURVE",
"112 82 OFFCURVE",
"112 124 CURVE SMOOTH",
"112 166 OFFCURVE",
"132 193 OFFCURVE",
"171 193 CURVE SMOOTH",
"241 193 OFFCURVE",
"337 117 OFFCURVE",
"426 -18 CURVE"
);
}
);
width = 455;
},
{
layerId = "D2208E43-FD40-4479-A9D4-232E25B1FBE9";
paths = (
{
closed = 1;
nodes = (
"139 724 OFFCURVE",
"51 639 OFFCURVE",
"51 509 CURVE SMOOTH",
"51 384 OFFCURVE",
"127 318 OFFCURVE",
"246 318 CURVE SMOOTH",
"284 318 OFFCURVE",
"326 324 OFFCURVE",
"354 338 CURVE",
"354 449 LINE",
"330 436 OFFCURVE",
"295 429 OFFCURVE",
"265 429 CURVE SMOOTH",
"214 429 OFFCURVE",
"188 463 OFFCURVE",
"188 513 CURVE SMOOTH",
"188 570 OFFCURVE",
"213 604 OFFCURVE",
"266 604 CURVE SMOOTH",
"322 604 OFFCURVE",
"346 564 OFFCURVE",
"346 460 CURVE SMOOTH",
"346 228 OFFCURVE",
"276 93 OFFCURVE",
"210 93 CURVE",
"210 -10 LINE",
"367 -10 OFFCURVE",
"483 183 OFFCURVE",
"483 432 CURVE SMOOTH",
"483 637 OFFCURVE",
"399 724 OFFCURVE",
"266 724 CURVE SMOOTH"
);
},
{
closed = 1;
nodes = (
"506 117 LINE",
"372 238 OFFCURVE",
"293 279 OFFCURVE",
"200 279 CURVE SMOOTH",
"105 279 OFFCURVE",
"45 221 OFFCURVE",
"45 133 CURVE SMOOTH",
"45 39 OFFCURVE",
"102 -10 OFFCURVE",
"210 -10 CURVE",
"210 93 LINE",
"184 93 OFFCURVE",
"168 107 OFFCURVE",
"168 134 CURVE SMOOTH",
"168 159 OFFCURVE",
"180 176 OFFCURVE",
"209 176 CURVE SMOOTH",
"270 176 OFFCURVE",
"397 90 OFFCURVE",
"506 -27 CURVE"
);
}
);
width = 546;
}
);
leftKerningGroup = uni0541;
note = uni0541;
rightKerningGroup = uni0541;
unicode = 0541;
},
{
glyphname = uni0542;
lastChange = "2016-11-04 15:54:44 +0000";
layers = (
{
layerId = "A6CE5D2C-1F2B-4AA6-9C7F-4C063FA35791";
paths = (
{
closed = 1;
nodes = (
"522 462 LINE SMOOTH",
"522 640 OFFCURVE",
"434 724 OFFCURVE",
"289 724 CURVE SMOOTH",
"134 724 OFFCURVE",
"59 633 OFFCURVE",
"59 460 CURVE",
"85 460 LINE",
"85 620 OFFCURVE",
"151 699 OFFCURVE",
"290 699 CURVE SMOOTH",
"422 699 OFFCURVE",
"496 622 OFFCURVE",
"496 470 CURVE SMOOTH",
"496 0 LINE",
"522 0 LINE"
);
},
{
closed = 1;
nodes = (
"508 0 LINE",
"694 0 LINE",
"694 25 LINE",
"508 25 LINE"
);
}
);
width = 726;
},
{
layerId = "D8F6BD40-B230-4FAA-9AA6-14649630F8F8";
paths = (
{
closed = 1;
nodes = (
"610 459 LINE SMOOTH",
"610 612 OFFCURVE",
"508 724 OFFCURVE",
"328 724 CURVE SMOOTH",
"137 724 OFFCURVE",
"37 601 OFFCURVE",
"37 422 CURVE",
"228 422 LINE",
"228 526 OFFCURVE",
"258 566 OFFCURVE",
"322 566 CURVE SMOOTH",
"383 566 OFFCURVE",
"419 536 OFFCURVE",
"419 426 CURVE SMOOTH",
"419 0 LINE",
"610 0 LINE"
);
},
{
closed = 1;
nodes = (
"593 0 LINE",
"771 0 LINE",
"771 158 LINE",
"593 158 LINE"
);
}
);
width = 789;
},
{
layerId = "0157BCDF-0421-4A1B-8779-FA1232BA51D7";
paths = (
{
closed = 1;
nodes = (
"589 460 LINE SMOOTH",
"589 621 OFFCURVE",
"492 724 OFFCURVE",
"322 724 CURVE SMOOTH",
"142 724 OFFCURVE",
"50 611 OFFCURVE",
"50 433 CURVE",
"191 433 LINE",
"191 554 OFFCURVE",
"232 606 OFFCURVE",
"319 606 CURVE SMOOTH",
"401 606 OFFCURVE",
"448 561 OFFCURVE",
"448 440 CURVE SMOOTH",
"448 0 LINE",
"589 0 LINE"
);
},
{
closed = 1;
nodes = (
"573 0 LINE",
"753 0 LINE",
"753 118 LINE",
"573 118 LINE"
);
}
);
width = 780;
},
{
layerId = "4F0D3757-41F6-4952-AF2C-391AA5989938";
paths = (
{
closed = 1;
nodes = (
"564 461 LINE SMOOTH",
"564 629 OFFCURVE",
"471 724 OFFCURVE",
"313 724 CURVE SMOOTH",
"144 724 OFFCURVE",
"59 621 OFFCURVE",
"59 445 CURVE",
"149 445 LINE",
"149 584 OFFCURVE",
"201 648 OFFCURVE",
"311 648 CURVE SMOOTH",
"415 648 OFFCURVE",
"474 589 OFFCURVE",
"474 453 CURVE SMOOTH",
"474 0 LINE",
"564 0 LINE"
);
},
{
closed = 1;
nodes = (
"549 0 LINE",
"732 0 LINE",
"732 76 LINE",
"549 76 LINE"
);
}
);
width = 764;
},
{
layerId = "029FEF0C-5FA4-4A3E-AC23-838A1147A554";
paths = (
{
closed = 1;
nodes = (
"384 497 LINE SMOOTH",
"384 655 OFFCURVE",
"323 724 OFFCURVE",
"213 724 CURVE SMOOTH",
"118 724 OFFCURVE",
"42 668 OFFCURVE",
"42 493 CURVE",
"68 493 LINE",
"68 651 OFFCURVE",
"128 699 OFFCURVE",
"213 699 CURVE SMOOTH",
"304 699 OFFCURVE",
"358 643 OFFCURVE",
"358 493 CURVE SMOOTH",
"358 0 LINE",
"384 0 LINE"
);
},
{
closed = 1;
nodes = (
"375 0 LINE",
"512 0 LINE",
"512 25 LINE",
"375 25 LINE"
);
}
);
width = 524;
},
{
layerId = "98E204A9-1C79-49C7-AB3E-40A925F56409";
paths = (
{
closed = 1;
nodes = (
"517 476 LINE SMOOTH",
"517 642 OFFCURVE",
"433 724 OFFCURVE",
"281 724 CURVE SMOOTH",
"125 724 OFFCURVE",
"40 626 OFFCURVE",
"40 427 CURVE",
"210 427 LINE",
"210 551 OFFCURVE",
"231 579 OFFCURVE",
"279 579 CURVE SMOOTH",
"324 579 OFFCURVE",
"347 550 OFFCURVE",
"347 468 CURVE SMOOTH",
"347 0 LINE",
"517 0 LINE"
);
},
{
closed = 1;
nodes = (
"508 0 LINE",
"652 0 LINE",
"652 145 LINE",
"508 145 LINE"
);
}
);
width = 667;
},
{
layerId = "A1853AD3-B2DD-40FD-B6DE-455F76E0019F";
paths = (
{
closed = 1;
nodes = (
"437 489 LINE SMOOTH",
"437 650 OFFCURVE",
"367 724 OFFCURVE",
"240 724 CURVE SMOOTH",
"121 724 OFFCURVE",
"41 651 OFFCURVE",
"41 467 CURVE",
"124 467 LINE",
"124 610 OFFCURVE",
"169 650 OFFCURVE",
"239 650 CURVE SMOOTH",
"312 650 OFFCURVE",
"353 604 OFFCURVE",
"353 483 CURVE SMOOTH",
"353 0 LINE",
"437 0 LINE"
);
},
{
closed = 1;
nodes = (
"428 0 LINE",
"568 0 LINE",
"568 74 LINE",
"428 74 LINE"
);
}
);
width = 581;
},
{
layerId = "D2208E43-FD40-4479-A9D4-232E25B1FBE9";
paths = (
{
closed = 1;
nodes = (
"486 481 LINE SMOOTH",
"486 645 OFFCURVE",
"407 724 OFFCURVE",
"265 724 CURVE SMOOTH",
"123 724 OFFCURVE",
"40 636 OFFCURVE",
"40 442 CURVE",
"177 442 LINE",
"177 571 OFFCURVE",
"207 604 OFFCURVE",
"263 604 CURVE SMOOTH",
"319 604 OFFCURVE",
"349 568 OFFCURVE",
"349 474 CURVE SMOOTH",
"349 0 LINE",
"486 0 LINE"
);
},
{
closed = 1;
nodes = (
"477 0 LINE",
"619 0 LINE",
"619 120 LINE",
"477 120 LINE"
);
}
);
width = 634;
}
);
leftKerningGroup = uni0534;
note = uni0542;
rightKerningGroup = uni0533;
unicode = 0542;
},
{
glyphname = uni0543;
lastChange = "2016-11-04 15:54:44 +0000";
layers = (
{
layerId = "A6CE5D2C-1F2B-4AA6-9C7F-4C063FA35791";
paths = (
{
closed = 1;
nodes = (
"559 724 LINE",
"281 646 OFFCURVE",
"61 385 OFFCURVE",
"61 157 CURVE SMOOTH",
"61 41 OFFCURVE",
"115 0 OFFCURVE",
"225 0 CURVE",
"560 0 LINE",
"560 256 LINE SMOOTH",
"560 422 OFFCURVE",
"484 564 OFFCURVE",
"248 602 CURVE SMOOTH",
"72 630 LINE",
"72 605 LINE",
"246 577 LINE SMOOTH",
"466 542 OFFCURVE",
"534 410 OFFCURVE",
"534 256 CURVE SMOOTH",
"534 25 LINE",
"225 25 LINE SMOOTH",
"132 25 OFFCURVE",
"88 56 OFFCURVE",
"88 157 CURVE SMOOTH",
"88 374 OFFCURVE",
"294 620 OFFCURVE",
"559 699 CURVE"
);
}
);
width = 626;
},
{
layerId = "D8F6BD40-B230-4FAA-9AA6-14649630F8F8";
paths = (
{
closed = 1;
nodes = (
"697 724 LINE",
"275 724 OFFCURVE",
"35 444 OFFCURVE",
"35 183 CURVE SMOOTH",
"35 102 OFFCURVE",
"72 0 OFFCURVE",
"253 0 CURVE SMOOTH",
"684 0 LINE",
"684 160 LINE SMOOTH",
"684 417 OFFCURVE",
"606 546 OFFCURVE",
"362 606 CURVE SMOOTH",
"37 685 LINE",
"37 527 LINE",
"296 458 LINE SMOOTH",
"458 415 OFFCURVE",
"491 359 OFFCURVE",
"491 179 CURVE SMOOTH",
"491 158 LINE",
"294 158 LINE SMOOTH",
"243 158 OFFCURVE",
"228 179 OFFCURVE",
"228 220 CURVE SMOOTH",
"228 405 OFFCURVE",
"385 566 OFFCURVE",
"697 566 CURVE"
);
}
);
width = 744;
},
{
layerId = "0157BCDF-0421-4A1B-8779-FA1232BA51D7";
paths = (
{
closed = 1;
nodes = (
"662 724 LINE",
"284 717 OFFCURVE",
"50 426 OFFCURVE",
"50 175 CURVE SMOOTH",
"50 83 OFFCURVE",
"92 0 OFFCURVE",
"252 0 CURVE SMOOTH",
"654 0 LINE",
"654 118 LINE SMOOTH",
"654 418 OFFCURVE",
"591 573 OFFCURVE",
"335 619 CURVE SMOOTH",
"55 669 LINE",
"55 551 LINE",
"287 508 LINE SMOOTH",
"458 476 OFFCURVE",
"511 384 OFFCURVE",
"511 172 CURVE SMOOTH",
"511 118 LINE",
"279 118 LINE SMOOTH",
"216 118 OFFCURVE",
"192 142 OFFCURVE",
"192 201 CURVE SMOOTH",
"192 394 OFFCURVE",
"379 600 OFFCURVE",
"662 606 CURVE"
);
}
);
width = 722;
},
{
layerId = "4F0D3757-41F6-4952-AF2C-391AA5989938";
paths = (
{
closed = 1;
nodes = (
"622 724 LINE",
"289 686 OFFCURVE",
"61 408 OFFCURVE",
"61 167 CURVE SMOOTH",
"61 65 OFFCURVE",
"108 0 OFFCURVE",
"246 0 CURVE SMOOTH",
"618 0 LINE",
"618 179 LINE SMOOTH",
"618 420 OFFCURVE",
"550 568 OFFCURVE",
"302 611 CURVE SMOOTH",
"68 652 LINE",
"68 575 LINE",
"274 539 LINE SMOOTH",
"467 505 OFFCURVE",
"527 396 OFFCURVE",
"527 209 CURVE SMOOTH",
"527 76 LINE",
"261 76 LINE SMOOTH",
"185 76 OFFCURVE",
"152 104 OFFCURVE",
"152 182 CURVE SMOOTH",
"152 383 OFFCURVE",
"347 609 OFFCURVE",
"622 648 CURVE"
);
}
);
width = 688;
},
{
layerId = "029FEF0C-5FA4-4A3E-AC23-838A1147A554";
paths = (
{
closed = 1;
nodes = (
"391 724 LINE",
"227 694 OFFCURVE",
"48 500 OFFCURVE",
"48 175 CURVE SMOOTH",
"48 35 OFFCURVE",
"92 0 OFFCURVE",
"200 0 CURVE SMOOTH",
"395 0 LINE",
"395 252 LINE SMOOTH",
"395 430 OFFCURVE",
"363 562 OFFCURVE",
"197 598 CURVE SMOOTH",
"55 629 LINE",
"55 603 LINE",
"186 575 LINE SMOOTH",
"344 541 OFFCURVE",
"368 417 OFFCURVE",
"368 252 CURVE SMOOTH",
"368 25 LINE",
"200 25 LINE SMOOTH",
"113 25 OFFCURVE",
"75 55 OFFCURVE",
"75 174 CURVE SMOOTH",
"75 487 OFFCURVE",
"242 669 OFFCURVE",
"391 699 CURVE"
);
}
);
width = 457;
},
{
layerId = "98E204A9-1C79-49C7-AB3E-40A925F56409";
paths = (
{
closed = 1;
nodes = (
"581 724 LINE",
"299 720 OFFCURVE",
"42 480 OFFCURVE",
"42 226 CURVE SMOOTH",
"42 72 OFFCURVE",
"98 0 OFFCURVE",
"267 0 CURVE",
"583 0 LINE",
"583 256 LINE",
"583 397 OFFCURVE",
"534 552 OFFCURVE",
"275 622 CURVE SMOOTH",
"36 687 LINE",
"36 539 LINE",
"211 492 LINE SMOOTH",
"380 447 OFFCURVE",
"413 341 OFFCURVE",
"413 255 CURVE",
"413 145 LINE",
"282 145 LINE SMOOTH",
"230 145 OFFCURVE",
"212 161 OFFCURVE",
"212 229 CURVE SMOOTH",
"212 414 OFFCURVE",
"388 579 OFFCURVE",
"581 579 CURVE"
);
}
);
width = 637;
},
{
layerId = "A1853AD3-B2DD-40FD-B6DE-455F76E0019F";
paths = (
{
closed = 1;
nodes = (
"467 724 LINE",
"256 704 OFFCURVE",
"46 492 OFFCURVE",
"46 195 CURVE SMOOTH",
"46 50 OFFCURVE",
"95 0 OFFCURVE",
"227 0 CURVE SMOOTH",
"470 0 LINE",
"470 254 LINE SMOOTH",
"470 417 OFFCURVE",
"432 558 OFFCURVE",
"228 608 CURVE SMOOTH",
"48 652 LINE",
"48 574 LINE",
"196 538 LINE SMOOTH",
"359 500 OFFCURVE",
"386 387 OFFCURVE",
"386 253 CURVE SMOOTH",
"386 74 LINE",
"233 74 LINE SMOOTH",
"160 74 OFFCURVE",
"130 97 OFFCURVE",
"130 196 CURVE SMOOTH",
"130 458 OFFCURVE",
"301 632 OFFCURVE",
"467 650 CURVE"
);
}
);
width = 529;
},
{
layerId = "D2208E43-FD40-4479-A9D4-232E25B1FBE9";
paths = (
{
closed = 1;
nodes = (
"537 724 LINE",
"282 714 OFFCURVE",
"43 485 OFFCURVE",
"43 214 CURVE SMOOTH",
"43 63 OFFCURVE",
"96 0 OFFCURVE",
"251 0 CURVE SMOOTH",
"539 0 LINE",
"539 255 LINE SMOOTH",
"539 405 OFFCURVE",
"494 554 OFFCURVE",
"257 616 CURVE SMOOTH",
"40 674 LINE",
"40 546 LINE",
"205 503 LINE SMOOTH",
"371 461 OFFCURVE",
"402 359 OFFCURVE",
"402 254 CURVE SMOOTH",
"402 120 LINE",
"263 120 LINE SMOOTH",
"203 120 OFFCURVE",
"180 137 OFFCURVE",
"180 216 CURVE SMOOTH",
"180 431 OFFCURVE",
"354 597 OFFCURVE",
"537 604 CURVE"
);
}
);
width = 595;
}
);
leftKerningGroup = uni0543;
note = uni0543;
rightKerningGroup = uni0543;
unicode = 0543;
},
{
glyphname = uni0544;
lastChange = "2016-11-04 15:54:44 +0000";
layers = (
{
layerId = "A6CE5D2C-1F2B-4AA6-9C7F-4C063FA35791";
paths = (
{
closed = 1;
nodes = (
"505 -10 OFFCURVE",
"613 74 OFFCURVE",
"613 252 CURVE SMOOTH",
"613 690 LINE",
"763 690 LINE",
"763 714 LINE",
"587 714 LINE",
"587 244 LINE SMOOTH",
"587 92 OFFCURVE",
"493 15 OFFCURVE",
"351 15 CURVE SMOOTH",
"202 15 OFFCURVE",
"116 96 OFFCURVE",
"116 256 CURVE SMOOTH",
"116 714 LINE",
"90 714 LINE",
"90 254 LINE SMOOTH",
"90 81 OFFCURVE",
"185 -10 OFFCURVE",
"350 -10 CURVE SMOOTH"
);
}
);
width = 785;
},
{
layerId = "D8F6BD40-B230-4FAA-9AA6-14649630F8F8";
paths = (
{
closed = 1;
nodes = (
"558 -10 OFFCURVE",
"653 102 OFFCURVE",
"653 255 CURVE SMOOTH",
"653 556 LINE",
"795 556 LINE",
"795 714 LINE",
"462 714 LINE",
"462 286 LINE SMOOTH",
"462 178 OFFCURVE",
"432 148 OFFCURVE",
"362 148 CURVE SMOOTH",
"288 148 OFFCURVE",
"264 188 OFFCURVE",
"264 283 CURVE SMOOTH",
"264 714 LINE",
"73 714 LINE",
"73 251 LINE SMOOTH",
"73 111 OFFCURVE",
"167 -10 OFFCURVE",
"367 -10 CURVE SMOOTH"
);
}
);
width = 811;
},
{
layerId = "0157BCDF-0421-4A1B-8779-FA1232BA51D7";
paths = (
{
closed = 1;
nodes = (
"550 -10 OFFCURVE",
"649 93 OFFCURVE",
"649 254 CURVE SMOOTH",
"649 596 LINE",
"793 596 LINE",
"793 714 LINE",
"508 714 LINE",
"508 274 LINE SMOOTH",
"508 153 OFFCURVE",
"459 108 OFFCURVE",
"366 108 CURVE SMOOTH",
"270 108 OFFCURVE",
"227 160 OFFCURVE",
"227 276 CURVE SMOOTH",
"227 714 LINE",
"86 714 LINE",
"86 252 LINE SMOOTH",
"86 102 OFFCURVE",
"180 -10 OFFCURVE",
"370 -10 CURVE SMOOTH"
);
}
);
width = 813;
},
{
layerId = "4F0D3757-41F6-4952-AF2C-391AA5989938";
paths = (
{
closed = 1;
nodes = (
"532 -10 OFFCURVE",
"635 85 OFFCURVE",
"635 253 CURVE SMOOTH",
"635 638 LINE",
"782 638 LINE",
"782 714 LINE",
"545 714 LINE",
"545 261 LINE SMOOTH",
"545 125 OFFCURVE",
"476 66 OFFCURVE",
"362 66 CURVE SMOOTH",
"242 66 OFFCURVE",
"180 131 OFFCURVE",
"180 267 CURVE SMOOTH",
"180 714 LINE",
"90 714 LINE",
"90 253 LINE SMOOTH",
"90 93 OFFCURVE",
"184 -10 OFFCURVE",
"363 -10 CURVE SMOOTH"
);
}
);
width = 804;
},
{
layerId = "029FEF0C-5FA4-4A3E-AC23-838A1147A554";
paths = (
{
closed = 1;
nodes = (
"353 -10 OFFCURVE",
"414 59 OFFCURVE",
"414 217 CURVE SMOOTH",
"414 689 LINE",
"542 689 LINE",
"542 714 LINE",
"388 714 LINE",
"388 221 LINE SMOOTH",
"388 71 OFFCURVE",
"334 15 OFFCURVE",
"243 15 CURVE SMOOTH",
"158 15 OFFCURVE",
"98 63 OFFCURVE",
"98 221 CURVE SMOOTH",
"98 714 LINE",
"72 714 LINE",
"72 217 LINE SMOOTH",
"72 42 OFFCURVE",
"148 -10 OFFCURVE",
"243 -10 CURVE SMOOTH"
);
}
);
width = 554;
},
{
layerId = "98E204A9-1C79-49C7-AB3E-40A925F56409";
paths = (
{
closed = 1;
nodes = (
"449 -10 OFFCURVE",
"533 72 OFFCURVE",
"533 238 CURVE SMOOTH",
"533 569 LINE",
"668 569 LINE",
"668 714 LINE",
"363 714 LINE",
"363 242 LINE SMOOTH",
"363 164 OFFCURVE",
"340 135 OFFCURVE",
"295 135 CURVE SMOOTH",
"247 135 OFFCURVE",
"226 163 OFFCURVE",
"226 243 CURVE SMOOTH",
"226 714 LINE",
"56 714 LINE",
"56 242 LINE SMOOTH",
"56 77 OFFCURVE",
"141 -10 OFFCURVE",
"297 -10 CURVE SMOOTH"
);
}
);
width = 683;
},
{
layerId = "A1853AD3-B2DD-40FD-B6DE-455F76E0019F";
paths = (
{
closed = 1;
nodes = (
"392 -10 OFFCURVE",
"462 64 OFFCURVE",
"462 225 CURVE SMOOTH",
"462 640 LINE",
"593 640 LINE",
"593 714 LINE",
"378 714 LINE",
"378 231 LINE SMOOTH",
"378 110 OFFCURVE",
"337 64 OFFCURVE",
"264 64 CURVE SMOOTH",
"194 64 OFFCURVE",
"149 104 OFFCURVE",
"149 231 CURVE SMOOTH",
"149 714 LINE",
"66 714 LINE",
"66 227 LINE SMOOTH",
"66 56 OFFCURVE",
"146 -10 OFFCURVE",
"265 -10 CURVE SMOOTH"
);
}
);
width = 605;
},
{
layerId = "D2208E43-FD40-4479-A9D4-232E25B1FBE9";
paths = (
{
closed = 1;
nodes = (
"427 -10 OFFCURVE",
"506 69 OFFCURVE",
"506 233 CURVE SMOOTH",
"506 594 LINE",
"639 594 LINE",
"639 714 LINE",
"369 714 LINE",
"369 240 LINE SMOOTH",
"369 146 OFFCURVE",
"339 110 OFFCURVE",
"283 110 CURVE SMOOTH",
"227 110 OFFCURVE",
"197 143 OFFCURVE",
"197 241 CURVE SMOOTH",
"197 714 LINE",
"60 714 LINE",
"60 236 LINE SMOOTH",
"60 69 OFFCURVE",
"143 -10 OFFCURVE",
"285 -10 CURVE SMOOTH"
);
}
);
width = 653;
}
);
leftKerningGroup = uni0531;
note = uni0544;
rightKerningGroup = uni0544;
unicode = 0544;
},
{
glyphname = uni0545;
lastChange = "2016-11-04 15:54:44 +0000";
layers = (
{
layerId = "A6CE5D2C-1F2B-4AA6-9C7F-4C063FA35791";
paths = (
{
closed = 1;
nodes = (
"528 665 OFFCURVE",
"451 724 OFFCURVE",
"331 724 CURVE SMOOTH",
"243 724 OFFCURVE",
"172 695 OFFCURVE",
"113 650 CURVE",
"127 629 LINE",
"192 676 OFFCURVE",
"256 699 OFFCURVE",
"331 699 CURVE SMOOTH",
"433 699 OFFCURVE",
"501 651 OFFCURVE",
"501 551 CURVE SMOOTH",
"501 435 OFFCURVE",
"403 384 OFFCURVE",
"297 384 CURVE SMOOTH",
"44 384 LINE",
"44 359 LINE",
"297 359 LINE SMOOTH",
"430 359 OFFCURVE",
"523 314 OFFCURVE",
"523 194 CURVE SMOOTH",
"523 85 OFFCURVE",
"449 15 OFFCURVE",
"305 15 CURVE SMOOTH",
"231 15 OFFCURVE",
"155 35 OFFCURVE",
"105 60 CURVE",
"105 32 LINE",
"156 8 OFFCURVE",
"223 -10 OFFCURVE",
"305 -10 CURVE SMOOTH",
"465 -10 OFFCURVE",
"550 72 OFFCURVE",
"550 194 CURVE SMOOTH",
"550 300 OFFCURVE",
"487 358 OFFCURVE",
"376 373 CURVE",
"376 375 LINE",
"463 390 OFFCURVE",
"528 457 OFFCURVE",
"528 551 CURVE SMOOTH"
);
}
);
width = 607;
},
{
layerId = "D8F6BD40-B230-4FAA-9AA6-14649630F8F8";
paths = (
{
closed = 1;
nodes = (
"574 645 OFFCURVE",
"489 724 OFFCURVE",
"329 724 CURVE SMOOTH",
"203 724 OFFCURVE",
"102 694 OFFCURVE",
"37 645 CURVE",
"120 512 LINE",
"155 544 OFFCURVE",
"216 566 OFFCURVE",
"287 566 CURVE SMOOTH",
"365 566 OFFCURVE",
"383 540 OFFCURVE",
"383 514 CURVE SMOOTH",
"383 480 OFFCURVE",
"345 450 OFFCURVE",
"166 450 CURVE SMOOTH",
"37 450 LINE",
"37 292 LINE",
"176 292 LINE SMOOTH",
"372 292 OFFCURVE",
"399 266 OFFCURVE",
"399 220 CURVE SMOOTH",
"399 176 OFFCURVE",
"368 148 OFFCURVE",
"286 148 CURVE SMOOTH",
"213 148 OFFCURVE",
"103 164 OFFCURVE",
"48 196 CURVE",
"48 28 LINE",
"104 3 OFFCURVE",
"209 -10 OFFCURVE",
"313 -10 CURVE SMOOTH",
"498 -10 OFFCURVE",
"596 80 OFFCURVE",
"596 206 CURVE SMOOTH",
"596 297 OFFCURVE",
"533 361 OFFCURVE",
"397 373 CURVE",
"397 376 LINE",
"507 391 OFFCURVE",
"574 449 OFFCURVE",
"574 546 CURVE SMOOTH"
);
}
);
width = 634;
},
{
layerId = "0157BCDF-0421-4A1B-8779-FA1232BA51D7";
paths = (
{
closed = 1;
nodes = (
"563 651 OFFCURVE",
"480 724 OFFCURVE",
"333 724 CURVE SMOOTH",
"218 724 OFFCURVE",
"126 694 OFFCURVE",
"63 646 CURVE",
"125 547 LINE",
"169 584 OFFCURVE",
"231 606 OFFCURVE",
"303 606 CURVE SMOOTH",
"389 606 OFFCURVE",
"422 574 OFFCURVE",
"422 525 CURVE SMOOTH",
"422 466 OFFCURVE",
"365 430 OFFCURVE",
"191 430 CURVE SMOOTH",
"42 430 LINE",
"42 312 LINE",
"216 312 LINE SMOOTH",
"392 312 OFFCURVE",
"439 281 OFFCURVE",
"439 212 CURVE SMOOTH",
"439 148 OFFCURVE",
"395 108 OFFCURVE",
"295 108 CURVE SMOOTH",
"222 108 OFFCURVE",
"122 125 OFFCURVE",
"68 155 CURVE",
"68 29 LINE",
"123 4 OFFCURVE",
"216 -10 OFFCURVE",
"313 -10 CURVE SMOOTH",
"491 -10 OFFCURVE",
"585 78 OFFCURVE",
"585 202 CURVE SMOOTH",
"585 298 OFFCURVE",
"522 360 OFFCURVE",
"393 373 CURVE",
"393 376 LINE",
"497 391 OFFCURVE",
"563 451 OFFCURVE",
"563 547 CURVE SMOOTH"
);
}
);
width = 635;
},
{
layerId = "4F0D3757-41F6-4952-AF2C-391AA5989938";
paths = (
{
closed = 1;
nodes = (
"548 657 OFFCURVE",
"468 724 OFFCURVE",
"333 724 CURVE SMOOTH",
"230 724 OFFCURVE",
"147 694 OFFCURVE",
"86 648 CURVE",
"127 584 LINE",
"180 626 OFFCURVE",
"243 648 OFFCURVE",
"317 648 CURVE SMOOTH",
"409 648 OFFCURVE",
"458 608 OFFCURVE",
"458 537 CURVE SMOOTH",
"458 452 OFFCURVE",
"383 410 OFFCURVE",
"239 410 CURVE SMOOTH",
"44 410 LINE",
"44 334 LINE",
"253 334 LINE SMOOTH",
"410 334 OFFCURVE",
"477 296 OFFCURVE",
"477 204 CURVE SMOOTH",
"477 120 OFFCURVE",
"420 66 OFFCURVE",
"300 66 CURVE SMOOTH",
"227 66 OFFCURVE",
"138 84 OFFCURVE",
"86 112 CURVE",
"86 30 LINE",
"139 6 OFFCURVE",
"220 -10 OFFCURVE",
"311 -10 CURVE SMOOTH",
"480 -10 OFFCURVE",
"570 75 OFFCURVE",
"570 199 CURVE SMOOTH",
"570 299 OFFCURVE",
"507 359 OFFCURVE",
"387 373 CURVE",
"387 376 LINE",
"483 391 OFFCURVE",
"548 454 OFFCURVE",
"548 549 CURVE SMOOTH"
);
}
);
width = 627;
},
{
layerId = "029FEF0C-5FA4-4A3E-AC23-838A1147A554";
paths = (
{
closed = 1;
nodes = (
"317 659 OFFCURVE",
"264 724 OFFCURVE",
"174 724 CURVE SMOOTH",
"126 724 OFFCURVE",
"88 705 OFFCURVE",
"59 672 CURVE",
"77 655 LINE",
"100 680 OFFCURVE",
"130 699 OFFCURVE",
"173 699 CURVE SMOOTH",
"244 699 OFFCURVE",
"290 646 OFFCURVE",
"290 556 CURVE SMOOTH",
"290 446 OFFCURVE",
"228 381 OFFCURVE",
"139 381 CURVE SMOOTH",
"36 381 LINE",
"36 356 LINE",
"139 356 LINE SMOOTH",
"245 356 OFFCURVE",
"302 299 OFFCURVE",
"302 189 CURVE SMOOTH",
"302 69 OFFCURVE",
"241 15 OFFCURVE",
"158 15 CURVE SMOOTH",
"122 15 OFFCURVE",
"80 25 OFFCURVE",
"48 45 CURVE",
"48 15 LINE",
"82 -2 OFFCURVE",
"122 -10 OFFCURVE",
"158 -10 CURVE SMOOTH",
"264 -10 OFFCURVE",
"329 61 OFFCURVE",
"329 187 CURVE SMOOTH",
"329 290 OFFCURVE",
"282 357 OFFCURVE",
"197 368 CURVE",
"197 371 LINE",
"272 391 OFFCURVE",
"317 456 OFFCURVE",
"317 556 CURVE SMOOTH"
);
}
);
width = 391;
},
{
layerId = "98E204A9-1C79-49C7-AB3E-40A925F56409";
paths = (
{
closed = 1;
nodes = (
"473 653 OFFCURVE",
"390 724 OFFCURVE",
"265 724 CURVE SMOOTH",
"165 724 OFFCURVE",
"108 707 OFFCURVE",
"41 654 CURVE",
"103 528 LINE",
"137 561 OFFCURVE",
"177 579 OFFCURVE",
"226 579 CURVE SMOOTH",
"277 579 OFFCURVE",
"302 557 OFFCURVE",
"302 516 CURVE SMOOTH",
"302 458 OFFCURVE",
"275 444 OFFCURVE",
"191 444 CURVE SMOOTH",
"36 444 LINE",
"36 299 LINE",
"198 299 LINE SMOOTH",
"279 299 OFFCURVE",
"320 273 OFFCURVE",
"320 219 CURVE SMOOTH",
"320 157 OFFCURVE",
"288 135 OFFCURVE",
"206 135 CURVE SMOOTH",
"156 135 OFFCURVE",
"85 154 OFFCURVE",
"44 182 CURVE",
"44 26 LINE",
"95 2 OFFCURVE",
"158 -10 OFFCURVE",
"234 -10 CURVE SMOOTH",
"422 -10 OFFCURVE",
"494 85 OFFCURVE",
"494 204 CURVE SMOOTH",
"494 302 OFFCURVE",
"442 362 OFFCURVE",
"344 373 CURVE",
"344 377 LINE",
"430 396 OFFCURVE",
"473 453 OFFCURVE",
"473 547 CURVE SMOOTH"
);
}
);
width = 536;
},
{
layerId = "A1853AD3-B2DD-40FD-B6DE-455F76E0019F";
paths = (
{
closed = 1;
nodes = (
"379 657 OFFCURVE",
"314 724 OFFCURVE",
"210 724 CURVE SMOOTH",
"142 724 OFFCURVE",
"96 706 OFFCURVE",
"52 665 CURVE",
"87 603 LINE",
"115 632 OFFCURVE",
"149 650 OFFCURVE",
"194 650 CURVE SMOOTH",
"257 650 OFFCURVE",
"295 610 OFFCURVE",
"295 540 CURVE SMOOTH",
"295 451 OFFCURVE",
"247 407 OFFCURVE",
"160 407 CURVE SMOOTH",
"36 407 LINE",
"36 333 LINE",
"163 333 LINE SMOOTH",
"259 333 OFFCURVE",
"309 289 OFFCURVE",
"309 201 CURVE SMOOTH",
"309 105 OFFCURVE",
"260 64 OFFCURVE",
"177 64 CURVE SMOOTH",
"136 64 OFFCURVE",
"82 77 OFFCURVE",
"46 100 CURVE",
"46 19 LINE",
"87 0 OFFCURVE",
"136 -10 OFFCURVE",
"188 -10 CURVE SMOOTH",
"327 -10 OFFCURVE",
"395 71 OFFCURVE",
"395 194 CURVE SMOOTH",
"395 295 OFFCURVE",
"346 359 OFFCURVE",
"256 370 CURVE",
"256 373 LINE",
"335 393 OFFCURVE",
"379 455 OFFCURVE",
"379 552 CURVE SMOOTH"
);
}
);
width = 449;
},
{
layerId = "D2208E43-FD40-4479-A9D4-232E25B1FBE9";
paths = (
{
closed = 1;
nodes = (
"437 654 OFFCURVE",
"361 724 OFFCURVE",
"244 724 CURVE SMOOTH",
"156 724 OFFCURVE",
"103 707 OFFCURVE",
"45 658 CURVE",
"97 555 LINE",
"128 586 OFFCURVE",
"166 604 OFFCURVE",
"214 604 CURVE SMOOTH",
"269 604 OFFCURVE",
"299 576 OFFCURVE",
"299 523 CURVE SMOOTH",
"299 455 OFFCURVE",
"264 431 OFFCURVE",
"179 431 CURVE SMOOTH",
"36 431 LINE",
"36 311 LINE",
"184 311 LINE SMOOTH",
"271 311 OFFCURVE",
"316 279 OFFCURVE",
"316 212 CURVE SMOOTH",
"316 139 OFFCURVE",
"277 110 OFFCURVE",
"195 110 CURVE SMOOTH",
"148 110 OFFCURVE",
"84 127 OFFCURVE",
"45 153 CURVE",
"45 23 LINE",
"92 1 OFFCURVE",
"150 -10 OFFCURVE",
"216 -10 CURVE SMOOTH",
"386 -10 OFFCURVE",
"456 79 OFFCURVE",
"456 200 CURVE SMOOTH",
"456 299 OFFCURVE",
"405 361 OFFCURVE",
"310 372 CURVE",
"310 376 LINE",
"394 395 OFFCURVE",
"437 454 OFFCURVE",
"437 549 CURVE SMOOTH"
);
}
);
width = 503;
}
);
leftKerningGroup = uni0545;
note = uni0545;
rightKerningGroup = uni0545;
unicode = 0545;
},
{
glyphname = uni0546;
lastChange = "2016-11-04 15:54:44 +0000";
layers = (
{
layerId = "A6CE5D2C-1F2B-4AA6-9C7F-4C063FA35791";
paths = (
{
closed = 1;
nodes = (
"434 -10 OFFCURVE",
"502 55 OFFCURVE",
"502 188 CURVE SMOOTH",
"502 416 LINE",
"476 416 LINE",
"476 191 LINE SMOOTH",
"476 74 OFFCURVE",
"422 15 OFFCURVE",
"307 15 CURVE",
"179 15 OFFCURVE",
"124 98 OFFCURVE",
"124 216 CURVE",
"97 216 LINE",
"97 82 OFFCURVE",
"157 -10 OFFCURVE",
"307 -10 CURVE"
);
},
{
closed = 1;
nodes = (
"137 622 LINE",
"97 622 OFFCURVE",
"73 644 OFFCURVE",
"73 694 CURVE SMOOTH",
"73 760 LINE",
"47 760 LINE",
"47 693 LINE SMOOTH",
"47 628 OFFCURVE",
"80 597 OFFCURVE",
"137 597 CURVE",
"210 597 LINE",
"221 607 LINE",
"212 622 LINE"
);
},
{
closed = 1;
nodes = (
"124 372 OFFCURVE",
"186 545 OFFCURVE",
"221 607 CURVE",
"196 607 LINE",
"161 540 OFFCURVE",
"97 391 OFFCURVE",
"97 216 CURVE",
"124 216 LINE"
);
}
);
width = 572;
},
{
layerId = "D8F6BD40-B230-4FAA-9AA6-14649630F8F8";
paths = (
{
closed = 1;
nodes = (
"535 -10 OFFCURVE",
"658 99 OFFCURVE",
"658 272 CURVE SMOOTH",
"658 421 LINE",
"467 421 LINE",
"467 285 LINE SMOOTH",
"467 197 OFFCURVE",
"434 148 OFFCURVE",
"350 148 CURVE SMOOTH",
"283 148 OFFCURVE",
"235 193 OFFCURVE",
"235 282 CURVE",
"44 282 LINE",
"44 97 OFFCURVE",
"171 -10 OFFCURVE",
"350 -10 CURVE SMOOTH"
);
},
{
closed = 1;
nodes = (
"347 646 LINE SMOOTH",
"278 646 OFFCURVE",
"251 660 OFFCURVE",
"251 745 CURVE SMOOTH",
"251 760 LINE",
"60 760 LINE",
"60 747 LINE SMOOTH",
"60 600 OFFCURVE",
"123 546 OFFCURVE",
"246 546 CURVE SMOOTH",
"267 546 LINE",
"400 632 LINE",
"393 646 LINE"
);
},
{
closed = 1;
nodes = (
"235 393 OFFCURVE",
"313 542 OFFCURVE",
"400 632 CURVE",
"218 632 LINE",
"105 525 OFFCURVE",
"44 408 OFFCURVE",
"44 282 CURVE",
"235 282 LINE"
);
}
);
width = 705;
},
{
layerId = "0157BCDF-0421-4A1B-8779-FA1232BA51D7";
paths = (
{
closed = 1;
nodes = (
"505 -10 OFFCURVE",
"610 85 OFFCURVE",
"610 247 CURVE SMOOTH",
"610 420 LINE",
"469 420 LINE",
"469 256 LINE SMOOTH",
"469 160 OFFCURVE",
"430 108 OFFCURVE",
"337 108 CURVE SMOOTH",
"251 108 OFFCURVE",
"201 164 OFFCURVE",
"201 262 CURVE",
"60 262 LINE",
"60 92 OFFCURVE",
"167 -10 OFFCURVE",
"337 -10 CURVE SMOOTH"
);
},
{
closed = 1;
nodes = (
"283 639 LINE SMOOTH",
"223 639 OFFCURVE",
"197 655 OFFCURVE",
"197 730 CURVE SMOOTH",
"197 760 LINE",
"56 760 LINE",
"56 731 LINE SMOOTH",
"56 609 OFFCURVE",
"110 561 OFFCURVE",
"213 561 CURVE SMOOTH",
"249 561 LINE",
"346 624 LINE",
"338 639 LINE"
);
},
{
closed = 1;
nodes = (
"201 387 OFFCURVE",
"274 543 OFFCURVE",
"346 624 CURVE",
"211 624 LINE",
"122 530 OFFCURVE",
"60 397 OFFCURVE",
"60 262 CURVE",
"201 262 LINE"
);
}
);
width = 672;
},
{
layerId = "4F0D3757-41F6-4952-AF2C-391AA5989938";
paths = (
{
closed = 1;
nodes = (
"469 -10 OFFCURVE",
"558 72 OFFCURVE",
"558 221 CURVE SMOOTH",
"558 418 LINE",
"468 418 LINE",
"468 227 LINE SMOOTH",
"468 122 OFFCURVE",
"422 66 OFFCURVE",
"319 66 CURVE SMOOTH",
"215 66 OFFCURVE",
"162 135 OFFCURVE",
"162 242 CURVE",
"72 242 LINE",
"72 88 OFFCURVE",
"158 -10 OFFCURVE",
"319 -10 CURVE SMOOTH"
);
},
{
closed = 1;
nodes = (
"213 631 LINE SMOOTH",
"162 631 OFFCURVE",
"137 650 OFFCURVE",
"137 714 CURVE SMOOTH",
"137 760 LINE",
"47 760 LINE",
"47 714 LINE SMOOTH",
"47 617 OFFCURVE",
"92 577 OFFCURVE",
"174 577 CURVE SMOOTH",
"227 577 LINE",
"286 617 LINE",
"277 631 LINE"
);
},
{
closed = 1;
nodes = (
"162 380 OFFCURVE",
"225 536 OFFCURVE",
"286 617 CURVE",
"200 617 LINE",
"138 537 OFFCURVE",
"72 398 OFFCURVE",
"72 242 CURVE",
"162 242 LINE"
);
}
);
width = 628;
},
{
layerId = "029FEF0C-5FA4-4A3E-AC23-838A1147A554";
paths = (
{
closed = 1;
nodes = (
"330 -10 OFFCURVE",
"411 42 OFFCURVE",
"411 217 CURVE SMOOTH",
"411 414 LINE",
"385 414 LINE",
"385 221 LINE SMOOTH",
"385 63 OFFCURVE",
"320 15 OFFCURVE",
"235 15 CURVE SMOOTH",
"144 15 OFFCURVE",
"85 71 OFFCURVE",
"85 221 CURVE",
"59 221 LINE",
"59 59 OFFCURVE",
"125 -10 OFFCURVE",
"235 -10 CURVE SMOOTH"
);
},
{
closed = 1;
nodes = (
"121 623 LINE SMOOTH",
"71 623 OFFCURVE",
"56 632 OFFCURVE",
"56 687 CURVE SMOOTH",
"56 760 LINE",
"30 760 LINE",
"30 686 LINE SMOOTH",
"30 615 OFFCURVE",
"54 598 OFFCURVE",
"118 598 CURVE SMOOTH",
"156 598 LINE",
"166 615 LINE",
"162 623 LINE"
);
},
{
closed = 1;
nodes = (
"85 364 OFFCURVE",
"119 485 OFFCURVE",
"166 615 CURVE",
"139 615 LINE",
"92 486 OFFCURVE",
"59 362 OFFCURVE",
"59 221 CURVE",
"85 221 LINE"
);
}
);
width = 459;
},
{
layerId = "98E204A9-1C79-49C7-AB3E-40A925F56409";
paths = (
{
closed = 1;
nodes = (
"439 -10 OFFCURVE",
"524 77 OFFCURVE",
"524 242 CURVE SMOOTH",
"524 419 LINE",
"354 419 LINE",
"354 243 LINE SMOOTH",
"354 163 OFFCURVE",
"333 135 OFFCURVE",
"285 135 CURVE SMOOTH",
"240 135 OFFCURVE",
"217 164 OFFCURVE",
"217 279 CURVE",
"47 279 LINE",
"47 72 OFFCURVE",
"131 -10 OFFCURVE",
"283 -10 CURVE SMOOTH"
);
},
{
closed = 1;
nodes = (
"289 644 LINE SMOOTH",
"247 644 OFFCURVE",
"227 668 OFFCURVE",
"227 707 CURVE SMOOTH",
"227 760 LINE",
"57 760 LINE",
"57 686 LINE SMOOTH",
"57 576 OFFCURVE",
"96 539 OFFCURVE",
"206 539 CURVE SMOOTH",
"258 539 LINE",
"350 634 LINE",
"343 644 LINE"
);
},
{
closed = 1;
nodes = (
"217 404 OFFCURVE",
"255 503 OFFCURVE",
"350 634 CURVE",
"192 634 LINE",
"93 504 OFFCURVE",
"47 406 OFFCURVE",
"47 279 CURVE",
"217 279 LINE"
);
}
);
width = 568;
},
{
layerId = "A1853AD3-B2DD-40FD-B6DE-455F76E0019F";
paths = (
{
closed = 1;
nodes = (
"373 -10 OFFCURVE",
"456 56 OFFCURVE",
"456 227 CURVE SMOOTH",
"456 416 LINE",
"372 416 LINE",
"372 231 LINE SMOOTH",
"372 104 OFFCURVE",
"325 64 OFFCURVE",
"255 64 CURVE SMOOTH",
"182 64 OFFCURVE",
"137 110 OFFCURVE",
"137 244 CURVE",
"54 244 LINE",
"54 64 OFFCURVE",
"127 -10 OFFCURVE",
"254 -10 CURVE SMOOTH"
);
},
{
closed = 1;
nodes = (
"188 631 LINE SMOOTH",
"141 631 OFFCURVE",
"124 646 OFFCURVE",
"124 695 CURVE SMOOTH",
"124 760 LINE",
"41 760 LINE",
"41 692 LINE SMOOTH",
"41 599 OFFCURVE",
"75 569 OFFCURVE",
"153 569 CURVE SMOOTH",
"197 569 LINE",
"240 623 LINE",
"234 631 LINE"
);
},
{
closed = 1;
nodes = (
"137 380 OFFCURVE",
"173 492 OFFCURVE",
"239 623 CURVE",
"160 623 LINE",
"92 493 OFFCURVE",
"54 380 OFFCURVE",
"54 244 CURVE",
"137 244 LINE"
);
}
);
width = 502;
},
{
layerId = "D2208E43-FD40-4479-A9D4-232E25B1FBE9";
paths = (
{
closed = 1;
nodes = (
"414 -10 OFFCURVE",
"498 69 OFFCURVE",
"498 236 CURVE SMOOTH",
"498 418 LINE",
"361 418 LINE",
"361 241 LINE SMOOTH",
"361 143 OFFCURVE",
"330 110 OFFCURVE",
"274 110 CURVE SMOOTH",
"218 110 OFFCURVE",
"187 146 OFFCURVE",
"187 266 CURVE",
"50 266 LINE",
"50 69 OFFCURVE",
"130 -10 OFFCURVE",
"272 -10 CURVE SMOOTH"
);
},
{
closed = 1;
nodes = (
"250 639 LINE SMOOTH",
"207 639 OFFCURVE",
"188 660 OFFCURVE",
"188 702 CURVE SMOOTH",
"188 760 LINE",
"51 760 LINE",
"51 698 LINE SMOOTH",
"51 585 OFFCURVE",
"93 550 OFFCURVE",
"186 550 CURVE SMOOTH",
"235 550 LINE",
"308 630 LINE",
"301 639 LINE"
);
},
{
closed = 1;
nodes = (
"187 395 OFFCURVE",
"224 499 OFFCURVE",
"308 630 CURVE",
"180 630 LINE",
"93 500 OFFCURVE",
"50 396 OFFCURVE",
"50 266 CURVE",
"187 266 LINE"
);
}
);
width = 543;
}
);
leftKerningGroup = uni0546;
note = uni0546;
rightKerningGroup = uni0546;
unicode = 0546;
},
{
glyphname = uni0547;
lastChange = "2016-11-04 15:54:44 +0000";
layers = (
{
layerId = "A6CE5D2C-1F2B-4AA6-9C7F-4C063FA35791";
paths = (
{
closed = 1;
nodes = (
"328 647 LINE",
"193 565 OFFCURVE",
"69 406 OFFCURVE",
"69 247 CURVE SMOOTH",
"69 101 OFFCURVE",
"153 -10 OFFCURVE",
"303 -10 CURVE SMOOTH",
"464 -10 OFFCURVE",
"531 87 OFFCURVE",
"531 226 CURVE SMOOTH",
"531 312 LINE",
"504 312 LINE",
"504 226 LINE SMOOTH",
"504 103 OFFCURVE",
"449 15 OFFCURVE",
"303 15 CURVE SMOOTH",
"175 15 OFFCURVE",
"96 116 OFFCURVE",
"96 248 CURVE SMOOTH",
"96 404 OFFCURVE",
"221 555 OFFCURVE",
"355 637 CURVE"
);
},
{
closed = 1;
nodes = (
"76 701 LINE",
"539 574 LINE",
"545 599 LINE",
"82 725 LINE"
);
}
);
width = 613;
},
{
layerId = "D8F6BD40-B230-4FAA-9AA6-14649630F8F8";
paths = (
{
closed = 1;
nodes = (
"242 593 LINE",
"124 529 OFFCURVE",
"53 381 OFFCURVE",
"53 272 CURVE SMOOTH",
"53 90 OFFCURVE",
"173 -10 OFFCURVE",
"352 -10 CURVE SMOOTH",
"526 -10 OFFCURVE",
"648 88 OFFCURVE",
"648 260 CURVE SMOOTH",
"648 270 LINE",
"458 270 LINE",
"458 265 LINE SMOOTH",
"458 187 OFFCURVE",
"425 148 OFFCURVE",
"352 148 CURVE SMOOTH",
"284 148 OFFCURVE",
"244 186 OFFCURVE",
"244 270 CURVE SMOOTH",
"244 364 OFFCURVE",
"310 476 OFFCURVE",
"452 555 CURVE"
);
},
{
closed = 1;
nodes = (
"54 566 LINE",
"617 517 LINE",
"637 674 LINE",
"73 724 LINE"
);
}
);
width = 698;
},
{
layerId = "0157BCDF-0421-4A1B-8779-FA1232BA51D7";
paths = (
{
closed = 1;
nodes = (
"274 609 LINE",
"151 540 OFFCURVE",
"64 389 OFFCURVE",
"64 264 CURVE SMOOTH",
"64 94 OFFCURVE",
"173 -10 OFFCURVE",
"343 -10 CURVE SMOOTH",
"513 -10 OFFCURVE",
"619 88 OFFCURVE",
"619 250 CURVE SMOOTH",
"619 283 LINE",
"478 283 LINE",
"478 259 LINE SMOOTH",
"478 162 OFFCURVE",
"438 108 OFFCURVE",
"343 108 CURVE SMOOTH",
"257 108 OFFCURVE",
"205 165 OFFCURVE",
"205 264 CURVE SMOOTH",
"205 376 OFFCURVE",
"290 500 OFFCURVE",
"429 580 CURVE"
);
},
{
closed = 1;
nodes = (
"66 607 LINE",
"599 534 LINE",
"614 651 LINE",
"81 724 LINE"
);
}
);
width = 682;
},
{
layerId = "4F0D3757-41F6-4952-AF2C-391AA5989938";
paths = (
{
closed = 1;
nodes = (
"305 626 LINE",
"177 551 OFFCURVE",
"69 396 OFFCURVE",
"69 257 CURVE SMOOTH",
"69 97 OFFCURVE",
"167 -10 OFFCURVE",
"328 -10 CURVE SMOOTH",
"494 -10 OFFCURVE",
"583 88 OFFCURVE",
"583 239 CURVE SMOOTH",
"583 296 LINE",
"492 296 LINE",
"492 244 LINE SMOOTH",
"492 136 OFFCURVE",
"446 66 OFFCURVE",
"328 66 CURVE SMOOTH",
"224 66 OFFCURVE",
"159 143 OFFCURVE",
"159 257 CURVE SMOOTH",
"159 389 OFFCURVE",
"263 524 OFFCURVE",
"400 605 CURVE"
);
},
{
closed = 1;
nodes = (
"73 649 LINE",
"575 552 LINE",
"586 628 LINE",
"84 724 LINE"
);
}
);
width = 654;
},
{
layerId = "029FEF0C-5FA4-4A3E-AC23-838A1147A554";
paths = (
{
closed = 1;
nodes = (
"239 656 LINE",
"124 537 OFFCURVE",
"59 383 OFFCURVE",
"59 217 CURVE SMOOTH",
"59 59 OFFCURVE",
"125 -10 OFFCURVE",
"235 -10 CURVE SMOOTH",
"330 -10 OFFCURVE",
"411 42 OFFCURVE",
"411 217 CURVE SMOOTH",
"411 314 LINE",
"385 314 LINE",
"385 221 LINE SMOOTH",
"385 63 OFFCURVE",
"320 15 OFFCURVE",
"235 15 CURVE SMOOTH",
"144 15 OFFCURVE",
"85 71 OFFCURVE",
"85 221 CURVE SMOOTH",
"85 385 OFFCURVE",
"144 520 OFFCURVE",
"258 638 CURVE"
);
},
{
closed = 1;
nodes = (
"56 701 LINE",
"426 564 LINE",
"435 587 LINE",
"64 724 LINE"
);
}
);
width = 483;
},
{
layerId = "98E204A9-1C79-49C7-AB3E-40A925F56409";
paths = (
{
closed = 1;
nodes = (
"282 654 LINE",
"135 533 OFFCURVE",
"47 412 OFFCURVE",
"47 238 CURVE SMOOTH",
"47 72 OFFCURVE",
"131 -10 OFFCURVE",
"283 -10 CURVE SMOOTH",
"439 -10 OFFCURVE",
"524 77 OFFCURVE",
"524 242 CURVE SMOOTH",
"524 274 LINE",
"354 274 LINE",
"354 247 LINE SMOOTH",
"354 163 OFFCURVE",
"333 135 OFFCURVE",
"285 135 CURVE SMOOTH",
"240 135 OFFCURVE",
"217 164 OFFCURVE",
"217 220 CURVE SMOOTH",
"217 354 OFFCURVE",
"287 468 OFFCURVE",
"380 552 CURVE"
);
},
{
closed = 1;
nodes = (
"42 568 LINE",
"509 501 LINE",
"537 656 LINE",
"70 724 LINE"
);
}
);
width = 575;
},
{
layerId = "A1853AD3-B2DD-40FD-B6DE-455F76E0019F";
paths = (
{
closed = 1;
nodes = (
"256 655 LINE",
"128 535 OFFCURVE",
"54 395 OFFCURVE",
"54 225 CURVE SMOOTH",
"54 64 OFFCURVE",
"127 -10 OFFCURVE",
"254 -10 CURVE SMOOTH",
"373 -10 OFFCURVE",
"456 56 OFFCURVE",
"456 227 CURVE SMOOTH",
"456 298 LINE",
"372 298 LINE",
"372 231 LINE SMOOTH",
"372 104 OFFCURVE",
"325 64 OFFCURVE",
"255 64 CURVE SMOOTH",
"182 64 OFFCURVE",
"137 110 OFFCURVE",
"137 221 CURVE SMOOTH",
"137 373 OFFCURVE",
"201 499 OFFCURVE",
"306 604 CURVE"
);
},
{
closed = 1;
nodes = (
"50 648 LINE",
"459 539 LINE",
"475 615 LINE",
"66 724 LINE"
);
}
);
width = 520;
},
{
layerId = "D2208E43-FD40-4479-A9D4-232E25B1FBE9";
paths = (
{
closed = 1;
nodes = (
"272 654 LINE",
"133 534 OFFCURVE",
"50 405 OFFCURVE",
"50 233 CURVE SMOOTH",
"50 69 OFFCURVE",
"130 -10 OFFCURVE",
"272 -10 CURVE SMOOTH",
"414 -10 OFFCURVE",
"498 69 OFFCURVE",
"498 236 CURVE SMOOTH",
"498 283 LINE",
"361 283 LINE",
"361 241 LINE SMOOTH",
"361 143 OFFCURVE",
"330 110 OFFCURVE",
"274 110 CURVE SMOOTH",
"218 110 OFFCURVE",
"187 146 OFFCURVE",
"187 220 CURVE SMOOTH",
"187 361 OFFCURVE",
"254 480 OFFCURVE",
"352 572 CURVE"
);
},
{
closed = 1;
nodes = (
"45 599 LINE",
"490 516 LINE",
"513 640 LINE",
"68 724 LINE"
);
}
);
width = 554;
}
);
leftKerningGroup = uni0547;
note = uni0547;
rightKerningGroup = uni0547;
unicode = 0547;
},
{
glyphname = uni0548;
lastChange = "2016-11-04 15:54:44 +0000";
layers = (
{
layerId = "A6CE5D2C-1F2B-4AA6-9C7F-4C063FA35791";
paths = (
{
closed = 1;
nodes = (
"112 0 LINE",
"112 470 LINE SMOOTH",
"112 622 OFFCURVE",
"206 699 OFFCURVE",
"348 699 CURVE SMOOTH",
"497 699 OFFCURVE",
"583 618 OFFCURVE",
"583 458 CURVE SMOOTH",
"583 0 LINE",
"609 0 LINE",
"609 460 LINE SMOOTH",
"609 633 OFFCURVE",
"514 724 OFFCURVE",
"349 724 CURVE SMOOTH",
"194 724 OFFCURVE",
"86 640 OFFCURVE",
"86 462 CURVE SMOOTH",
"86 0 LINE"
);
}
);
width = 703;
},
{
layerId = "D8F6BD40-B230-4FAA-9AA6-14649630F8F8";
paths = (
{
closed = 1;
nodes = (
"263 0 LINE",
"263 427 LINE SMOOTH",
"263 525 OFFCURVE",
"285 566 OFFCURVE",
"361 566 CURVE SMOOTH",
"429 566 OFFCURVE",
"461 537 OFFCURVE",
"461 432 CURVE SMOOTH",
"461 0 LINE",
"652 0 LINE",
"652 460 LINE SMOOTH",
"652 615 OFFCURVE",
"553 724 OFFCURVE",
"366 724 CURVE SMOOTH",
"162 724 OFFCURVE",
"72 600 OFFCURVE",
"72 462 CURVE SMOOTH",
"72 0 LINE"
);
}
);
width = 725;
},
{
layerId = "0157BCDF-0421-4A1B-8779-FA1232BA51D7";
paths = (
{
closed = 1;
nodes = (
"226 0 LINE",
"226 440 LINE SMOOTH",
"226 554 OFFCURVE",
"270 606 OFFCURVE",
"366 606 CURVE SMOOTH",
"459 606 OFFCURVE",
"507 561 OFFCURVE",
"507 440 CURVE SMOOTH",
"507 0 LINE",
"648 0 LINE",
"648 460 LINE SMOOTH",
"648 620 OFFCURVE",
"550 724 OFFCURVE",
"370 724 CURVE SMOOTH",
"181 724 OFFCURVE",
"85 612 OFFCURVE",
"85 462 CURVE SMOOTH",
"85 0 LINE"
);
}
);
width = 734;
},
{
layerId = "4F0D3757-41F6-4952-AF2C-391AA5989938";
paths = (
{
closed = 1;
nodes = (
"180 0 LINE",
"180 454 LINE SMOOTH",
"180 585 OFFCURVE",
"246 648 OFFCURVE",
"362 648 CURVE SMOOTH",
"480 648 OFFCURVE",
"545 587 OFFCURVE",
"545 448 CURVE SMOOTH",
"545 0 LINE",
"635 0 LINE",
"635 460 LINE SMOOTH",
"635 626 OFFCURVE",
"538 724 OFFCURVE",
"365 724 CURVE SMOOTH",
"191 724 OFFCURVE",
"90 625 OFFCURVE",
"90 462 CURVE SMOOTH",
"90 0 LINE"
);
}
);
width = 725;
},
{
layerId = "029FEF0C-5FA4-4A3E-AC23-838A1147A554";
paths = (
{
closed = 1;
nodes = (
"98 0 LINE",
"98 493 LINE SMOOTH",
"98 651 OFFCURVE",
"158 699 OFFCURVE",
"243 699 CURVE SMOOTH",
"334 699 OFFCURVE",
"388 643 OFFCURVE",
"388 493 CURVE SMOOTH",
"388 0 LINE",
"414 0 LINE",
"414 497 LINE SMOOTH",
"414 655 OFFCURVE",
"353 724 OFFCURVE",
"243 724 CURVE SMOOTH",
"148 724 OFFCURVE",
"72 672 OFFCURVE",
"72 497 CURVE SMOOTH",
"72 0 LINE"
);
}
);
width = 486;
},
{
layerId = "98E204A9-1C79-49C7-AB3E-40A925F56409";
paths = (
{
closed = 1;
nodes = (
"226 0 LINE",
"226 471 LINE SMOOTH",
"226 551 OFFCURVE",
"247 579 OFFCURVE",
"295 579 CURVE SMOOTH",
"340 579 OFFCURVE",
"363 550 OFFCURVE",
"363 472 CURVE SMOOTH",
"363 0 LINE",
"533 0 LINE",
"533 476 LINE SMOOTH",
"533 642 OFFCURVE",
"449 724 OFFCURVE",
"297 724 CURVE SMOOTH",
"141 724 OFFCURVE",
"56 637 OFFCURVE",
"56 472 CURVE SMOOTH",
"56 0 LINE"
);
}
);
width = 589;
},
{
layerId = "A1853AD3-B2DD-40FD-B6DE-455F76E0019F";
paths = (
{
closed = 1;
nodes = (
"149 0 LINE",
"149 483 LINE SMOOTH",
"149 610 OFFCURVE",
"194 650 OFFCURVE",
"264 650 CURVE SMOOTH",
"337 650 OFFCURVE",
"378 604 OFFCURVE",
"378 483 CURVE SMOOTH",
"378 0 LINE",
"462 0 LINE",
"462 489 LINE SMOOTH",
"462 650 OFFCURVE",
"392 724 OFFCURVE",
"265 724 CURVE SMOOTH",
"146 724 OFFCURVE",
"66 658 OFFCURVE",
"66 487 CURVE SMOOTH",
"66 0 LINE"
);
}
);
width = 527;
},
{
layerId = "D2208E43-FD40-4479-A9D4-232E25B1FBE9";
paths = (
{
closed = 1;
nodes = (
"197 0 LINE",
"197 473 LINE SMOOTH",
"197 571 OFFCURVE",
"227 604 OFFCURVE",
"283 604 CURVE SMOOTH",
"339 604 OFFCURVE",
"369 568 OFFCURVE",
"369 474 CURVE SMOOTH",
"369 0 LINE",
"506 0 LINE",
"506 481 LINE SMOOTH",
"506 645 OFFCURVE",
"427 724 OFFCURVE",
"285 724 CURVE SMOOTH",
"143 724 OFFCURVE",
"60 645 OFFCURVE",
"60 478 CURVE SMOOTH",
"60 0 LINE"
);
}
);
width = 565;
}
);
leftKerningGroup = uni0538;
note = uni0548;
rightKerningGroup = uni0535;
unicode = 0548;
},
{
glyphname = uni0549;
lastChange = "2016-11-04 15:54:44 +0000";
layers = (
{
layerId = "A6CE5D2C-1F2B-4AA6-9C7F-4C063FA35791";
paths = (
{
closed = 1;
nodes = (
"455 201 OFFCURVE",
"549 343 OFFCURVE",
"549 472 CURVE SMOOTH",
"549 618 OFFCURVE",
"460 724 OFFCURVE",
"310 724 CURVE SMOOTH",
"149 724 OFFCURVE",
"67 632 OFFCURVE",
"67 493 CURVE SMOOTH",
"67 477 LINE",
"94 477 LINE",
"94 493 LINE SMOOTH",
"94 616 OFFCURVE",
"164 699 OFFCURVE",
"310 699 CURVE SMOOTH",
"438 699 OFFCURVE",
"522 603 OFFCURVE",
"522 471 CURVE SMOOTH",
"522 350 OFFCURVE",
"427 210 OFFCURVE",
"239 96 CURVE",
"268 87 LINE"
);
},
{
closed = 1;
nodes = (
"510 26 LINE",
"318 38 OFFCURVE",
"183 132 OFFCURVE",
"67 253 CURVE",
"50 236 LINE",
"164 112 OFFCURVE",
"315 11 OFFCURVE",
"510 -1 CURVE"
);
}
);
width = 608;
},
{
layerId = "D8F6BD40-B230-4FAA-9AA6-14649630F8F8";
paths = (
{
closed = 1;
nodes = (
"495 201 OFFCURVE",
"609 322 OFFCURVE",
"609 461 CURVE SMOOTH",
"609 629 OFFCURVE",
"508 722 OFFCURVE",
"325 722 CURVE SMOOTH",
"150 722 OFFCURVE",
"46 631 OFFCURVE",
"46 478 CURVE SMOOTH",
"46 460 LINE",
"237 460 LINE",
"237 465 LINE SMOOTH",
"237 525 OFFCURVE",
"251 564 OFFCURVE",
"325 564 CURVE SMOOTH",
"396 564 OFFCURVE",
"418 526 OFFCURVE",
"418 455 CURVE SMOOTH",
"418 358 OFFCURVE",
"359 309 OFFCURVE",
"255 204 CURVE",
"380 108 LINE"
);
},
{
closed = 1;
nodes = (
"569 157 LINE",
"468 153 OFFCURVE",
"265 251 OFFCURVE",
"150 351 CURVE",
"42 223 LINE",
"214 82 OFFCURVE",
"415 -4 OFFCURVE",
"569 -1 CURVE"
);
}
);
width = 650;
},
{
layerId = "0157BCDF-0421-4A1B-8779-FA1232BA51D7";
paths = (
{
closed = 1;
nodes = (
"486 201 OFFCURVE",
"594 328 OFFCURVE",
"594 465 CURVE SMOOTH",
"594 625 OFFCURVE",
"497 724 OFFCURVE",
"324 724 CURVE SMOOTH",
"154 724 OFFCURVE",
"56 631 OFFCURVE",
"56 483 CURVE SMOOTH",
"56 465 LINE",
"197 465 LINE",
"197 474 LINE SMOOTH",
"197 553 OFFCURVE",
"228 606 OFFCURVE",
"324 606 CURVE SMOOTH",
"412 606 OFFCURVE",
"453 550 OFFCURVE",
"453 460 CURVE SMOOTH",
"453 356 OFFCURVE",
"383 279 OFFCURVE",
"254 172 CURVE",
"350 102 LINE"
);
},
{
closed = 1;
nodes = (
"555 117 LINE",
"426 118 OFFCURVE",
"244 215 OFFCURVE",
"128 321 CURVE",
"48 227 LINE",
"202 91 OFFCURVE",
"388 1 OFFCURVE",
"555 -1 CURVE"
);
}
);
width = 647;
},
{
layerId = "4F0D3757-41F6-4952-AF2C-391AA5989938";
paths = (
{
closed = 1;
nodes = (
"474 201 OFFCURVE",
"575 335 OFFCURVE",
"575 468 CURVE SMOOTH",
"575 622 OFFCURVE",
"482 726 OFFCURVE",
"319 726 CURVE SMOOTH",
"153 726 OFFCURVE",
"62 631 OFFCURVE",
"62 487 CURVE SMOOTH",
"62 470 LINE",
"152 470 LINE",
"152 482 LINE SMOOTH",
"152 581 OFFCURVE",
"201 650 OFFCURVE",
"319 650 CURVE SMOOTH",
"425 650 OFFCURVE",
"485 573 OFFCURVE",
"485 465 CURVE SMOOTH",
"485 353 OFFCURVE",
"402 249 OFFCURVE",
"248 138 CURVE",
"315 95 LINE"
);
},
{
closed = 1;
nodes = (
"536 77 LINE",
"379 83 OFFCURVE",
"218 178 OFFCURVE",
"102 291 CURVE",
"50 231 LINE",
"187 100 OFFCURVE",
"357 5 OFFCURVE",
"536 -1 CURVE"
);
}
);
width = 634;
},
{
layerId = "029FEF0C-5FA4-4A3E-AC23-838A1147A554";
paths = (
{
closed = 1;
nodes = (
"330 203 OFFCURVE",
"397 367 OFFCURVE",
"397 517 CURVE SMOOTH",
"397 655 OFFCURVE",
"331 724 OFFCURVE",
"221 724 CURVE SMOOTH",
"126 724 OFFCURVE",
"45 672 OFFCURVE",
"45 497 CURVE SMOOTH",
"45 470 LINE",
"71 470 LINE",
"71 493 LINE SMOOTH",
"71 651 OFFCURVE",
"136 699 OFFCURVE",
"221 699 CURVE SMOOTH",
"312 699 OFFCURVE",
"371 643 OFFCURVE",
"371 517 CURVE SMOOTH",
"371 379 OFFCURVE",
"301 209 OFFCURVE",
"191 96 CURVE",
"215 85 LINE"
);
},
{
closed = 1;
nodes = (
"370 23 LINE",
"247 69 OFFCURVE",
"140 123 OFFCURVE",
"65 231 CURVE",
"44 217 LINE",
"120 108 OFFCURVE",
"238 46 OFFCURVE",
"370 0 CURVE"
);
}
);
width = 453;
},
{
layerId = "98E204A9-1C79-49C7-AB3E-40A925F56409";
paths = (
{
closed = 1;
nodes = (
"463 240 OFFCURVE",
"519 367 OFFCURVE",
"519 503 CURVE SMOOTH",
"519 642 OFFCURVE",
"435 724 OFFCURVE",
"283 724 CURVE SMOOTH",
"127 724 OFFCURVE",
"42 637 OFFCURVE",
"42 472 CURVE SMOOTH",
"42 440 LINE",
"212 440 LINE",
"212 467 LINE SMOOTH",
"212 551 OFFCURVE",
"233 579 OFFCURVE",
"281 579 CURVE SMOOTH",
"326 579 OFFCURVE",
"349 550 OFFCURVE",
"349 494 CURVE SMOOTH",
"349 360 OFFCURVE",
"284 270 OFFCURVE",
"164 162 CURVE",
"323 116 LINE"
);
},
{
closed = 1;
nodes = (
"509 156 LINE",
"353 178 OFFCURVE",
"269 231 OFFCURVE",
"143 338 CURVE",
"32 226 LINE",
"165 74 OFFCURVE",
"353 0 OFFCURVE",
"509 0 CURVE"
);
}
);
width = 561;
},
{
layerId = "A1853AD3-B2DD-40FD-B6DE-455F76E0019F";
paths = (
{
closed = 1;
nodes = (
"383 218 OFFCURVE",
"446 367 OFFCURVE",
"446 511 CURVE SMOOTH",
"446 650 OFFCURVE",
"373 724 OFFCURVE",
"246 724 CURVE SMOOTH",
"127 724 OFFCURVE",
"44 658 OFFCURVE",
"44 487 CURVE SMOOTH",
"44 458 LINE",
"127 458 LINE",
"127 483 LINE SMOOTH",
"127 610 OFFCURVE",
"175 650 OFFCURVE",
"245 650 CURVE SMOOTH",
"318 650 OFFCURVE",
"362 604 OFFCURVE",
"362 508 CURVE SMOOTH",
"362 371 OFFCURVE",
"294 233 OFFCURVE",
"180 122 CURVE",
"258 97 LINE"
);
},
{
closed = 1;
nodes = (
"425 76 LINE",
"289 112 OFFCURVE",
"191 166 OFFCURVE",
"96 274 CURVE",
"39 221 LINE",
"138 94 OFFCURVE",
"284 28 OFFCURVE",
"425 0 CURVE"
);
}
);
width = 496;
},
{
layerId = "D2208E43-FD40-4479-A9D4-232E25B1FBE9";
paths = (
{
closed = 1;
nodes = (
"433 231 OFFCURVE",
"491 367 OFFCURVE",
"491 506 CURVE SMOOTH",
"491 645 OFFCURVE",
"411 724 OFFCURVE",
"269 724 CURVE SMOOTH",
"127 724 OFFCURVE",
"43 645 OFFCURVE",
"43 478 CURVE SMOOTH",
"43 447 LINE",
"180 447 LINE",
"180 473 LINE SMOOTH",
"180 571 OFFCURVE",
"211 604 OFFCURVE",
"267 604 CURVE SMOOTH",
"323 604 OFFCURVE",
"354 568 OFFCURVE",
"354 499 CURVE SMOOTH",
"354 364 OFFCURVE",
"288 256 OFFCURVE",
"171 147 CURVE",
"298 109 LINE"
);
},
{
closed = 1;
nodes = (
"477 125 LINE",
"329 153 OFFCURVE",
"239 206 OFFCURVE",
"125 313 CURVE",
"35 224 LINE",
"155 82 OFFCURVE",
"327 11 OFFCURVE",
"477 0 CURVE"
);
}
);
width = 536;
}
);
leftKerningGroup = uni0549;
note = uni0549;
rightKerningGroup = uni0549;
unicode = 0549;
},
{
glyphname = uni054A;
lastChange = "2016-11-04 15:54:44 +0000";
layers = (
{
layerId = "A6CE5D2C-1F2B-4AA6-9C7F-4C063FA35791";
paths = (
{
closed = 1;
nodes = (
"108 330 LINE",
"108 470 LINE SMOOTH",
"108 622 OFFCURVE",
"202 699 OFFCURVE",
"344 699 CURVE SMOOTH",
"493 699 OFFCURVE",
"579 618 OFFCURVE",
"579 458 CURVE SMOOTH",
"579 0 LINE",
"605 0 LINE",
"605 460 LINE SMOOTH",
"605 633 OFFCURVE",
"510 724 OFFCURVE",
"345 724 CURVE SMOOTH",
"190 724 OFFCURVE",
"82 640 OFFCURVE",
"82 462 CURVE SMOOTH",
"82 330 LINE"
);
},
{
closed = 1;
nodes = (
"356 170 LINE",
"356 714 LINE",
"330 714 LINE",
"330 170 LINE"
);
}
);
width = 695;
},
{
layerId = "D8F6BD40-B230-4FAA-9AA6-14649630F8F8";
paths = (
{
closed = 1;
nodes = (
"246 330 LINE",
"246 430 LINE SMOOTH",
"246 528 OFFCURVE",
"296 569 OFFCURVE",
"442 569 CURVE SMOOTH",
"573 569 OFFCURVE",
"639 540 OFFCURVE",
"639 435 CURVE SMOOTH",
"639 0 LINE",
"830 0 LINE",
"830 460 LINE SMOOTH",
"830 615 OFFCURVE",
"697 724 OFFCURVE",
"449 724 CURVE SMOOTH",
"178 724 OFFCURVE",
"55 600 OFFCURVE",
"55 462 CURVE SMOOTH",
"55 330 LINE"
);
},
{
closed = 1;
nodes = (
"539 163 LINE",
"539 619 LINE",
"347 619 LINE",
"347 163 LINE"
);
}
);
width = 903;
},
{
layerId = "0157BCDF-0421-4A1B-8779-FA1232BA51D7";
paths = (
{
closed = 1;
nodes = (
"213 330 LINE",
"213 439 LINE SMOOTH",
"213 554 OFFCURVE",
"277 606 OFFCURVE",
"421 606 CURVE SMOOTH",
"558 606 OFFCURVE",
"630 561 OFFCURVE",
"630 439 CURVE SMOOTH",
"630 0 LINE",
"771 0 LINE",
"771 460 LINE SMOOTH",
"771 620 OFFCURVE",
"649 724 OFFCURVE",
"426 724 CURVE SMOOTH",
"190 724 OFFCURVE",
"72 612 OFFCURVE",
"72 462 CURVE SMOOTH",
"72 330 LINE"
);
},
{
closed = 1;
nodes = (
"492 165 LINE",
"492 648 LINE",
"350 648 LINE",
"350 165 LINE"
);
}
);
width = 857;
},
{
layerId = "4F0D3757-41F6-4952-AF2C-391AA5989938";
paths = (
{
closed = 1;
nodes = (
"172 330 LINE",
"172 453 LINE SMOOTH",
"172 585 OFFCURVE",
"249 648 OFFCURVE",
"393 648 CURVE SMOOTH",
"534 648 OFFCURVE",
"613 587 OFFCURVE",
"613 447 CURVE SMOOTH",
"613 0 LINE",
"703 0 LINE",
"703 460 LINE SMOOTH",
"703 626 OFFCURVE",
"593 724 OFFCURVE",
"396 724 CURVE SMOOTH",
"196 724 OFFCURVE",
"82 625 OFFCURVE",
"82 462 CURVE SMOOTH",
"82 330 LINE"
);
},
{
closed = 1;
nodes = (
"438 167 LINE",
"438 677 LINE",
"347 677 LINE",
"347 167 LINE"
);
}
);
width = 793;
},
{
layerId = "029FEF0C-5FA4-4A3E-AC23-838A1147A554";
paths = (
{
closed = 1;
nodes = (
"78 330 LINE",
"78 493 LINE SMOOTH",
"78 651 OFFCURVE",
"138 699 OFFCURVE",
"223 699 CURVE SMOOTH",
"314 699 OFFCURVE",
"368 643 OFFCURVE",
"368 493 CURVE SMOOTH",
"368 0 LINE",
"394 0 LINE",
"394 497 LINE SMOOTH",
"394 655 OFFCURVE",
"333 724 OFFCURVE",
"223 724 CURVE SMOOTH",
"128 724 OFFCURVE",
"52 672 OFFCURVE",
"52 497 CURVE SMOOTH",
"52 330 LINE"
);
},
{
closed = 1;
nodes = (
"236 167 LINE",
"236 711 LINE",
"210 711 LINE",
"210 167 LINE"
);
}
);
width = 466;
},
{
layerId = "98E204A9-1C79-49C7-AB3E-40A925F56409";
paths = (
{
closed = 1;
nodes = (
"216 330 LINE",
"216 467 LINE SMOOTH",
"216 551 OFFCURVE",
"265 579 OFFCURVE",
"373 579 CURVE SMOOTH",
"477 579 OFFCURVE",
"530 550 OFFCURVE",
"530 468 CURVE SMOOTH",
"530 0 LINE",
"700 0 LINE",
"700 476 LINE SMOOTH",
"700 642 OFFCURVE",
"584 724 OFFCURVE",
"375 724 CURVE SMOOTH",
"163 724 OFFCURVE",
"46 637 OFFCURVE",
"46 472 CURVE SMOOTH",
"46 330 LINE"
);
},
{
closed = 1;
nodes = (
"458 165 LINE",
"458 619 LINE",
"288 619 LINE",
"288 165 LINE"
);
}
);
width = 756;
},
{
layerId = "A1853AD3-B2DD-40FD-B6DE-455F76E0019F";
paths = (
{
closed = 1;
nodes = (
"133 330 LINE",
"133 483 LINE SMOOTH",
"133 610 OFFCURVE",
"189 650 OFFCURVE",
"283 650 CURVE SMOOTH",
"379 650 OFFCURVE",
"433 604 OFFCURVE",
"433 483 CURVE SMOOTH",
"433 0 LINE",
"516 0 LINE",
"516 489 LINE SMOOTH",
"516 650 OFFCURVE",
"433 724 OFFCURVE",
"284 724 CURVE SMOOTH",
"142 724 OFFCURVE",
"50 658 OFFCURVE",
"50 487 CURVE SMOOTH",
"50 330 LINE"
);
},
{
closed = 1;
nodes = (
"324 166 LINE",
"324 674 LINE",
"241 674 LINE",
"241 166 LINE"
);
}
);
width = 582;
},
{
layerId = "D2208E43-FD40-4479-A9D4-232E25B1FBE9";
paths = (
{
closed = 1;
nodes = (
"184 330 LINE",
"184 473 LINE SMOOTH",
"184 571 OFFCURVE",
"235 604 OFFCURVE",
"338 604 CURVE SMOOTH",
"439 604 OFFCURVE",
"492 568 OFFCURVE",
"492 474 CURVE SMOOTH",
"492 0 LINE",
"629 0 LINE",
"629 481 LINE SMOOTH",
"629 645 OFFCURVE",
"526 724 OFFCURVE",
"340 724 CURVE SMOOTH",
"155 724 OFFCURVE",
"47 645 OFFCURVE",
"47 478 CURVE SMOOTH",
"47 330 LINE"
);
},
{
closed = 1;
nodes = (
"407 165 LINE",
"407 640 LINE",
"270 640 LINE",
"270 165 LINE"
);
}
);
width = 689;
}
);
leftKerningGroup = uni0550;
note = uni054A;
rightKerningGroup = uni0535;
unicode = 054A;
},
{
glyphname = uni054B;
lastChange = "2016-11-04 15:54:44 +0000";
layers = (
{
layerId = "A6CE5D2C-1F2B-4AA6-9C7F-4C063FA35791";
paths = (
{
closed = 1;
nodes = (
"538 -1 LINE",
"538 49 LINE SMOOTH",
"538 114 OFFCURVE",
"505 145 OFFCURVE",
"448 145 CURVE SMOOTH",
"122 145 LINE",
"122 204 LINE",
"96 204 LINE",
"96 0 LINE",
"122 0 LINE",
"122 120 LINE",
"448 120 LINE SMOOTH",
"488 120 OFFCURVE",
"512 98 OFFCURVE",
"512 48 CURVE SMOOTH",
"512 -1 LINE"
);
},
{
closed = 1;
nodes = (
"280 232 OFFCURVE",
"241 275 OFFCURVE",
"187 321 CURVE SMOOTH",
"125 373 OFFCURVE",
"91 420 OFFCURVE",
"91 499 CURVE SMOOTH",
"91 636 OFFCURVE",
"178 700 OFFCURVE",
"306 700 CURVE SMOOTH",
"447 700 OFFCURVE",
"518 631 OFFCURVE",
"518 489 CURVE SMOOTH",
"518 355 OFFCURVE",
"434 253 OFFCURVE",
"280 163 CURVE"
);
},
{
closed = 1;
nodes = (
"286 145 LINE",
"465 240 OFFCURVE",
"545 360 OFFCURVE",
"545 489 CURVE SMOOTH",
"545 644 OFFCURVE",
"463 725 OFFCURVE",
"306 725 CURVE SMOOTH",
"158 725 OFFCURVE",
"64 645 OFFCURVE",
"64 499 CURVE SMOOTH",
"64 422 OFFCURVE",
"93 368 OFFCURVE",
"170 303 CURVE SMOOTH",
"236 248 OFFCURVE",
"257 211 OFFCURVE",
"257 156 CURVE",
"245 151 OFFCURVE",
"206 145 OFFCURVE",
"198 145 CURVE"
);
}
);
width = 592;
},
{
layerId = "D8F6BD40-B230-4FAA-9AA6-14649630F8F8";
paths = (
{
closed = 1;
nodes = (
"679 0 LINE",
"679 71 LINE SMOOTH",
"679 175 OFFCURVE",
"631 208 OFFCURVE",
"534 208 CURVE SMOOTH",
"175 208 LINE",
"175 249 LINE",
"17 249 LINE",
"17 0 LINE",
"175 0 LINE",
"175 58 LINE",
"442 58 LINE SMOOTH",
"492 58 OFFCURVE",
"503 48 OFFCURVE",
"503 18 CURVE SMOOTH",
"503 0 LINE"
);
},
{
closed = 1;
nodes = (
"362 335 OFFCURVE",
"347 353 OFFCURVE",
"305 382 CURVE SMOOTH",
"261 413 OFFCURVE",
"251 454 OFFCURVE",
"251 488 CURVE SMOOTH",
"251 538 OFFCURVE",
"273 575 OFFCURVE",
"339 575 CURVE SMOOTH",
"393 575 OFFCURVE",
"427 543 OFFCURVE",
"427 476 CURVE SMOOTH",
"427 408 OFFCURVE",
"410 353 OFFCURVE",
"369 303 CURVE"
);
},
{
closed = 1;
nodes = (
"457 208 LINE",
"576 302 OFFCURVE",
"617 380 OFFCURVE",
"618 488 CURVE SMOOTH",
"620 646 OFFCURVE",
"506 725 OFFCURVE",
"338 725 CURVE SMOOTH",
"172 725 OFFCURVE",
"60 633 OFFCURVE",
"60 495 CURVE SMOOTH",
"60 402 OFFCURVE",
"91 346 OFFCURVE",
"174 297 CURVE SMOOTH",
"225 267 OFFCURVE",
"232 249 OFFCURVE",
"232 226 CURVE",
"223 218 OFFCURVE",
"201 210 OFFCURVE",
"190 208 CURVE"
);
}
);
width = 693;
},
{
layerId = "0157BCDF-0421-4A1B-8779-FA1232BA51D7";
paths = (
{
closed = 1;
nodes = (
"639 0 LINE",
"639 66 LINE SMOOTH",
"639 158 OFFCURVE",
"595 190 OFFCURVE",
"510 190 CURVE SMOOTH",
"161 189 LINE",
"161 235 LINE",
"43 235 LINE",
"43 0 LINE",
"161 0 LINE",
"161 71 LINE",
"446 71 LINE SMOOTH",
"493 71 OFFCURVE",
"508 63 OFFCURVE",
"508 27 CURVE SMOOTH",
"508 0 LINE"
);
},
{
closed = 1;
nodes = (
"334 302 OFFCURVE",
"316 329 OFFCURVE",
"271 363 CURVE SMOOTH",
"221 401 OFFCURVE",
"204 444 OFFCURVE",
"204 492 CURVE SMOOTH",
"204 566 OFFCURVE",
"246 612 OFFCURVE",
"329 612 CURVE SMOOTH",
"411 612 OFFCURVE",
"456 570 OFFCURVE",
"456 480 CURVE SMOOTH",
"456 392 OFFCURVE",
"412 316 OFFCURVE",
"344 261 CURVE"
);
},
{
closed = 1;
nodes = (
"410 190 LINE",
"548 289 OFFCURVE",
"597 374 OFFCURVE",
"597 488 CURVE SMOOTH",
"597 644 OFFCURVE",
"488 724 OFFCURVE",
"330 724 CURVE SMOOTH",
"170 724 OFFCURVE",
"63 634 OFFCURVE",
"63 496 CURVE SMOOTH",
"63 408 OFFCURVE",
"93 352 OFFCURVE",
"174 298 CURVE SMOOTH",
"230 261 OFFCURVE",
"241 230 OFFCURVE",
"241 205 CURVE",
"231 198 OFFCURVE",
"204 190 OFFCURVE",
"194 189 CURVE"
);
}
);
width = 670;
},
{
layerId = "4F0D3757-41F6-4952-AF2C-391AA5989938";
paths = (
{
closed = 1;
nodes = (
"595 0 LINE",
"595 58 LINE SMOOTH",
"595 139 OFFCURVE",
"555 170 OFFCURVE",
"483 170 CURVE SMOOTH",
"144 170 LINE",
"144 221 LINE",
"67 221 LINE",
"67 0 LINE",
"144 0 LINE",
"144 94 LINE",
"447 94 LINE SMOOTH",
"491 94 OFFCURVE",
"510 80 OFFCURVE",
"510 36 CURVE SMOOTH",
"510 0 LINE"
);
},
{
closed = 1;
nodes = (
"312 271 OFFCURVE",
"284 305 OFFCURVE",
"235 345 CURVE SMOOTH",
"181 389 OFFCURVE",
"155 433 OFFCURVE",
"155 495 CURVE SMOOTH",
"155 595 OFFCURVE",
"217 650 OFFCURVE",
"323 650 CURVE SMOOTH",
"428 650 OFFCURVE",
"485 596 OFFCURVE",
"485 484 CURVE SMOOTH",
"485 375 OFFCURVE",
"422 288 OFFCURVE",
"318 218 CURVE"
);
},
{
closed = 1;
nodes = (
"360 170 LINE",
"516 273 OFFCURVE",
"575 368 OFFCURVE",
"575 488 CURVE SMOOTH",
"575 643 OFFCURVE",
"477 724 OFFCURVE",
"323 724 CURVE SMOOTH",
"165 724 OFFCURVE",
"64 637 OFFCURVE",
"64 497 CURVE SMOOTH",
"64 414 OFFCURVE",
"93 359 OFFCURVE",
"173 300 CURVE SMOOTH",
"233 255 OFFCURVE",
"247 222 OFFCURVE",
"249 183 CURVE",
"238 177 OFFCURVE",
"205 170 OFFCURVE",
"196 170 CURVE"
);
}
);
width = 642;
},
{
layerId = "029FEF0C-5FA4-4A3E-AC23-838A1147A554";
paths = (
{
closed = 1;
nodes = (
"394 0 LINE",
"394 48 LINE SMOOTH",
"394 112 OFFCURVE",
"368 145 OFFCURVE",
"307 145 CURVE SMOOTH",
"82 145 LINE",
"82 205 LINE",
"56 205 LINE",
"56 0 LINE",
"82 0 LINE",
"82 120 LINE",
"298 120 LINE SMOOTH",
"351 120 OFFCURVE",
"369 96 OFFCURVE",
"369 49 CURVE SMOOTH",
"369 0 LINE"
);
},
{
closed = 1;
nodes = (
"178 233 OFFCURVE",
"154 274 OFFCURVE",
"123 320 CURVE SMOOTH",
"86 374 OFFCURVE",
"68 419 OFFCURVE",
"68 498 CURVE SMOOTH",
"68 627 OFFCURVE",
"114 699 OFFCURVE",
"208 699 CURVE SMOOTH",
"298 699 OFFCURVE",
"344 628 OFFCURVE",
"344 489 CURVE SMOOTH",
"344 371 OFFCURVE",
"300 262 OFFCURVE",
"179 160 CURVE"
);
},
{
closed = 1;
nodes = (
"194 145 LINE",
"329 254 OFFCURVE",
"370 367 OFFCURVE",
"370 488 CURVE SMOOTH",
"370 651 OFFCURVE",
"309 724 OFFCURVE",
"208 724 CURVE SMOOTH",
"102 724 OFFCURVE",
"42 640 OFFCURVE",
"42 498 CURVE SMOOTH",
"42 421 OFFCURVE",
"60 365 OFFCURVE",
"106 300 CURVE SMOOTH",
"144 246 OFFCURVE",
"155 214 OFFCURVE",
"156 152 CURVE",
"150 150 OFFCURVE",
"133 146 OFFCURVE",
"121 145 CURVE"
);
}
);
width = 418;
},
{
layerId = "98E204A9-1C79-49C7-AB3E-40A925F56409";
paths = (
{
closed = 1;
nodes = (
"566 0 LINE",
"566 73 LINE",
"566 171 OFFCURVE",
"519 208 OFFCURVE",
"429 208 CURVE SMOOTH",
"158 208 LINE",
"158 242 LINE",
"12 242 LINE",
"12 0 LINE",
"158 0 LINE",
"158 63 LINE",
"365 63 LINE SMOOTH",
"405 63 OFFCURVE",
"410 48 OFFCURVE",
"410 18 CURVE SMOOTH",
"410 0 LINE"
);
},
{
closed = 1;
nodes = (
"296 346 OFFCURVE",
"283 362 OFFCURVE",
"258 382 CURVE SMOOTH",
"229 406 OFFCURVE",
"215 445 OFFCURVE",
"215 488 CURVE SMOOTH",
"215 547 OFFCURVE",
"236 579 OFFCURVE",
"279 579 CURVE SMOOTH",
"329 579 OFFCURVE",
"352 545 OFFCURVE",
"352 476 CURVE SMOOTH",
"352 421 OFFCURVE",
"338 357 OFFCURVE",
"310 313 CURVE"
);
},
{
closed = 1;
nodes = (
"385 208 LINE",
"481 297 OFFCURVE",
"522 375 OFFCURVE",
"522 488 CURVE SMOOTH",
"522 639 OFFCURVE",
"432 724 OFFCURVE",
"280 724 CURVE SMOOTH",
"140 724 OFFCURVE",
"45 637 OFFCURVE",
"45 495 CURVE SMOOTH",
"45 401 OFFCURVE",
"68 338 OFFCURVE",
"143 297 CURVE SMOOTH",
"185 274 OFFCURVE",
"209 254 OFFCURVE",
"209 225 CURVE",
"201 216 OFFCURVE",
"188 210 OFFCURVE",
"177 208 CURVE"
);
}
);
width = 576;
},
{
layerId = "A1853AD3-B2DD-40FD-B6DE-455F76E0019F";
paths = (
{
closed = 1;
nodes = (
"462 0 LINE",
"462 58 LINE SMOOTH",
"462 136 OFFCURVE",
"428 170 OFFCURVE",
"355 170 CURVE SMOOTH",
"112 170 LINE",
"112 220 LINE",
"38 220 LINE",
"38 0 LINE",
"112 0 LINE",
"112 96 LINE",
"324 96 LINE SMOOTH",
"372 96 OFFCURVE",
"385 75 OFFCURVE",
"385 37 CURVE SMOOTH",
"385 0 LINE"
);
},
{
closed = 1;
nodes = (
"225 278 OFFCURVE",
"206 309 OFFCURVE",
"177 345 CURVE SMOOTH",
"143 387 OFFCURVE",
"127 429 OFFCURVE",
"127 494 CURVE SMOOTH",
"127 595 OFFCURVE",
"163 651 OFFCURVE",
"237 651 CURVE SMOOTH",
"311 651 OFFCURVE",
"348 595 OFFCURVE",
"348 484 CURVE SMOOTH",
"348 391 OFFCURVE",
"316 306 OFFCURVE",
"232 221 CURVE"
);
},
{
closed = 1;
nodes = (
"271 170 LINE",
"390 277 OFFCURVE",
"430 370 OFFCURVE",
"430 488 CURVE SMOOTH",
"431 645 OFFCURVE",
"358 724 OFFCURVE",
"237 724 CURVE SMOOTH",
"117 724 OFFCURVE",
"43 639 OFFCURVE",
"43 497 CURVE SMOOTH",
"43 413 OFFCURVE",
"63 354 OFFCURVE",
"121 299 CURVE SMOOTH",
"160 257 OFFCURVE",
"176 230 OFFCURVE",
"177 181 CURVE",
"170 176 OFFCURVE",
"155 172 OFFCURVE",
"143 170 CURVE"
);
}
);
width = 481;
},
{
layerId = "D2208E43-FD40-4479-A9D4-232E25B1FBE9";
paths = (
{
closed = 1;
nodes = (
"526 0 LINE",
"526 67 LINE SMOOTH",
"526 157 OFFCURVE",
"484 193 OFFCURVE",
"401 193 CURVE SMOOTH",
"140 193 LINE",
"140 233 LINE",
"22 233 LINE",
"22 0 LINE",
"140 0 LINE",
"140 73 LINE",
"349 73 LINE SMOOTH",
"392 73 OFFCURVE",
"400 56 OFFCURVE",
"400 25 CURVE SMOOTH",
"400 0 LINE"
);
},
{
closed = 1;
nodes = (
"269 320 OFFCURVE",
"253 342 OFFCURVE",
"227 368 CURVE SMOOTH",
"196 399 OFFCURVE",
"181 439 OFFCURVE",
"181 490 CURVE SMOOTH",
"181 565 OFFCURVE",
"208 604 OFFCURVE",
"263 604 CURVE SMOOTH",
"322 604 OFFCURVE",
"350 564 OFFCURVE",
"350 479 CURVE SMOOTH",
"350 409 OFFCURVE",
"329 337 OFFCURVE",
"280 278 CURVE"
);
},
{
closed = 1;
nodes = (
"341 193 LINE",
"446 289 OFFCURVE",
"485 373 OFFCURVE",
"487 488 CURVE SMOOTH",
"488 640 OFFCURVE",
"403 724 OFFCURVE",
"263 724 CURVE SMOOTH",
"131 724 OFFCURVE",
"44 638 OFFCURVE",
"44 496 CURVE SMOOTH",
"44 406 OFFCURVE",
"66 344 OFFCURVE",
"134 298 CURVE SMOOTH",
"175 268 OFFCURVE",
"196 245 OFFCURVE",
"196 208 CURVE",
"189 201 OFFCURVE",
"175 195 OFFCURVE",
"164 193 CURVE"
);
}
);
width = 540;
}
);
leftKerningGroup = uni054B;
note = uni054B;
rightKerningGroup = uni054B;
unicode = 054B;
},
{
glyphname = uni054C;
lastChange = "2016-11-04 15:54:44 +0000";
layers = (
{
layerId = "A6CE5D2C-1F2B-4AA6-9C7F-4C063FA35791";
paths = (
{
closed = 1;
nodes = (
"116 0 LINE",
"116 470 LINE SMOOTH",
"116 622 OFFCURVE",
"200 699 OFFCURVE",
"342 699 CURVE SMOOTH",
"491 699 OFFCURVE",
"567 618 OFFCURVE",
"567 458 CURVE SMOOTH",
"567 0 LINE",
"593 0 LINE",
"593 460 LINE SMOOTH",
"593 633 OFFCURVE",
"508 724 OFFCURVE",
"343 724 CURVE SMOOTH",
"188 724 OFFCURVE",
"90 640 OFFCURVE",
"90 462 CURVE SMOOTH",
"90 0 LINE"
);
},
{
closed = 1;
nodes = (
"583 304 LINE",
"753 304 LINE",
"753 329 LINE",
"583 329 LINE"
);
}
);
width = 777;
},
{
layerId = "D8F6BD40-B230-4FAA-9AA6-14649630F8F8";
paths = (
{
closed = 1;
nodes = (
"264 0 LINE",
"264 427 LINE SMOOTH",
"264 525 OFFCURVE",
"289 566 OFFCURVE",
"365 566 CURVE SMOOTH",
"433 566 OFFCURVE",
"468 537 OFFCURVE",
"468 432 CURVE SMOOTH",
"468 0 LINE",
"659 0 LINE",
"659 460 LINE SMOOTH",
"659 615 OFFCURVE",
"557 724 OFFCURVE",
"370 724 CURVE SMOOTH",
"166 724 OFFCURVE",
"73 600 OFFCURVE",
"73 462 CURVE SMOOTH",
"73 0 LINE"
);
},
{
closed = 1;
nodes = (
"642 203 LINE",
"800 203 LINE",
"800 361 LINE",
"642 361 LINE"
);
}
);
width = 819;
},
{
layerId = "0157BCDF-0421-4A1B-8779-FA1232BA51D7";
paths = (
{
closed = 1;
nodes = (
"227 0 LINE",
"227 439 LINE SMOOTH",
"227 554 OFFCURVE",
"270 606 OFFCURVE",
"366 606 CURVE SMOOTH",
"458 606 OFFCURVE",
"506 561 OFFCURVE",
"506 439 CURVE SMOOTH",
"506 0 LINE",
"647 0 LINE",
"647 460 LINE SMOOTH",
"647 620 OFFCURVE",
"550 724 OFFCURVE",
"369 724 CURVE SMOOTH",
"180 724 OFFCURVE",
"86 612 OFFCURVE",
"86 462 CURVE SMOOTH",
"86 0 LINE"
);
},
{
closed = 1;
nodes = (
"631 233 LINE",
"791 233 LINE",
"791 351 LINE",
"631 351 LINE"
);
}
);
width = 818;
},
{
layerId = "4F0D3757-41F6-4952-AF2C-391AA5989938";
paths = (
{
closed = 1;
nodes = (
"180 0 LINE",
"180 453 LINE SMOOTH",
"180 585 OFFCURVE",
"241 648 OFFCURVE",
"357 648 CURVE SMOOTH",
"475 648 OFFCURVE",
"535 587 OFFCURVE",
"535 447 CURVE SMOOTH",
"535 0 LINE",
"625 0 LINE",
"625 460 LINE SMOOTH",
"625 626 OFFCURVE",
"534 724 OFFCURVE",
"360 724 CURVE SMOOTH",
"186 724 OFFCURVE",
"90 625 OFFCURVE",
"90 462 CURVE SMOOTH",
"90 0 LINE"
);
},
{
closed = 1;
nodes = (
"610 265 LINE",
"773 265 LINE",
"773 341 LINE",
"610 341 LINE"
);
}
);
width = 805;
},
{
layerId = "029FEF0C-5FA4-4A3E-AC23-838A1147A554";
paths = (
{
closed = 1;
nodes = (
"98 0 LINE",
"98 493 LINE SMOOTH",
"98 651 OFFCURVE",
"158 699 OFFCURVE",
"243 699 CURVE SMOOTH",
"334 699 OFFCURVE",
"388 643 OFFCURVE",
"388 493 CURVE SMOOTH",
"388 0 LINE",
"414 0 LINE",
"414 497 LINE SMOOTH",
"414 655 OFFCURVE",
"353 724 OFFCURVE",
"243 724 CURVE SMOOTH",
"148 724 OFFCURVE",
"72 672 OFFCURVE",
"72 497 CURVE SMOOTH",
"72 0 LINE"
);
},
{
closed = 1;
nodes = (
"405 303 LINE",
"542 303 LINE",
"542 328 LINE",
"405 328 LINE"
);
}
);
width = 554;
},
{
layerId = "98E204A9-1C79-49C7-AB3E-40A925F56409";
paths = (
{
closed = 1;
nodes = (
"226 0 LINE",
"226 471 LINE SMOOTH",
"226 551 OFFCURVE",
"247 579 OFFCURVE",
"295 579 CURVE SMOOTH",
"340 579 OFFCURVE",
"363 550 OFFCURVE",
"363 472 CURVE SMOOTH",
"363 0 LINE",
"533 0 LINE",
"533 476 LINE SMOOTH",
"533 642 OFFCURVE",
"449 724 OFFCURVE",
"297 724 CURVE SMOOTH",
"141 724 OFFCURVE",
"56 637 OFFCURVE",
"56 472 CURVE SMOOTH",
"56 0 LINE"
);
},
{
closed = 1;
nodes = (
"524 219 LINE",
"668 219 LINE",
"668 364 LINE",
"524 364 LINE"
);
}
);
width = 683;
},
{
layerId = "A1853AD3-B2DD-40FD-B6DE-455F76E0019F";
paths = (
{
closed = 1;
nodes = (
"149 0 LINE",
"149 483 LINE SMOOTH",
"149 610 OFFCURVE",
"194 650 OFFCURVE",
"264 650 CURVE SMOOTH",
"337 650 OFFCURVE",
"378 604 OFFCURVE",
"378 483 CURVE SMOOTH",
"378 0 LINE",
"462 0 LINE",
"462 489 LINE SMOOTH",
"462 650 OFFCURVE",
"392 724 OFFCURVE",
"265 724 CURVE SMOOTH",
"146 724 OFFCURVE",
"66 658 OFFCURVE",
"66 487 CURVE SMOOTH",
"66 0 LINE"
);
},
{
closed = 1;
nodes = (
"452 269 LINE",
"592 269 LINE",
"592 343 LINE",
"452 343 LINE"
);
}
);
width = 605;
},
{
layerId = "D2208E43-FD40-4479-A9D4-232E25B1FBE9";
paths = (
{
closed = 1;
nodes = (
"197 0 LINE",
"197 473 LINE SMOOTH",
"197 571 OFFCURVE",
"227 604 OFFCURVE",
"283 604 CURVE SMOOTH",
"339 604 OFFCURVE",
"369 568 OFFCURVE",
"369 474 CURVE SMOOTH",
"369 0 LINE",
"506 0 LINE",
"506 481 LINE SMOOTH",
"506 645 OFFCURVE",
"427 724 OFFCURVE",
"285 724 CURVE SMOOTH",
"143 724 OFFCURVE",
"60 645 OFFCURVE",
"60 478 CURVE SMOOTH",
"60 0 LINE"
);
},
{
closed = 1;
nodes = (
"497 248 LINE",
"639 248 LINE",
"639 368 LINE",
"497 368 LINE"
);
}
);
width = 653;
}
);
leftKerningGroup = uni0538;
note = uni054C;
rightKerningGroup = uni0533;
unicode = 054C;
},
{
glyphname = uni054D;
lastChange = "2016-11-04 15:54:44 +0000";
layers = (
{
layerId = "A6CE5D2C-1F2B-4AA6-9C7F-4C063FA35791";
paths = (
{
closed = 1;
nodes = (
"587 714 LINE",
"587 244 LINE SMOOTH",
"587 92 OFFCURVE",
"493 15 OFFCURVE",
"351 15 CURVE SMOOTH",
"202 15 OFFCURVE",
"116 96 OFFCURVE",
"116 256 CURVE SMOOTH",
"116 714 LINE",
"90 714 LINE",
"90 254 LINE SMOOTH",
"90 81 OFFCURVE",
"185 -10 OFFCURVE",
"350 -10 CURVE SMOOTH",
"505 -10 OFFCURVE",
"613 74 OFFCURVE",
"613 252 CURVE SMOOTH",
"613 714 LINE"
);
}
);
width = 703;
},
{
layerId = "D8F6BD40-B230-4FAA-9AA6-14649630F8F8";
paths = (
{
closed = 1;
nodes = (
"462 714 LINE",
"462 287 LINE SMOOTH",
"462 189 OFFCURVE",
"440 148 OFFCURVE",
"364 148 CURVE SMOOTH",
"296 148 OFFCURVE",
"264 177 OFFCURVE",
"264 282 CURVE SMOOTH",
"264 714 LINE",
"73 714 LINE",
"73 254 LINE SMOOTH",
"73 99 OFFCURVE",
"172 -10 OFFCURVE",
"359 -10 CURVE SMOOTH",
"563 -10 OFFCURVE",
"653 114 OFFCURVE",
"653 252 CURVE SMOOTH",
"653 714 LINE"
);
}
);
width = 725;
},
{
layerId = "0157BCDF-0421-4A1B-8779-FA1232BA51D7";
paths = (
{
closed = 1;
nodes = (
"508 714 LINE",
"508 274 LINE SMOOTH",
"508 160 OFFCURVE",
"464 108 OFFCURVE",
"368 108 CURVE SMOOTH",
"275 108 OFFCURVE",
"227 153 OFFCURVE",
"227 274 CURVE SMOOTH",
"227 714 LINE",
"86 714 LINE",
"86 254 LINE SMOOTH",
"86 94 OFFCURVE",
"184 -10 OFFCURVE",
"364 -10 CURVE SMOOTH",
"553 -10 OFFCURVE",
"649 102 OFFCURVE",
"649 252 CURVE SMOOTH",
"649 714 LINE"
);
}
);
width = 734;
},
{
layerId = "4F0D3757-41F6-4952-AF2C-391AA5989938";
paths = (
{
closed = 1;
nodes = (
"545 714 LINE",
"545 260 LINE SMOOTH",
"545 129 OFFCURVE",
"479 66 OFFCURVE",
"363 66 CURVE SMOOTH",
"245 66 OFFCURVE",
"180 127 OFFCURVE",
"180 266 CURVE SMOOTH",
"180 714 LINE",
"90 714 LINE",
"90 254 LINE SMOOTH",
"90 88 OFFCURVE",
"187 -10 OFFCURVE",
"360 -10 CURVE SMOOTH",
"534 -10 OFFCURVE",
"635 89 OFFCURVE",
"635 252 CURVE SMOOTH",
"635 714 LINE"
);
}
);
width = 725;
},
{
layerId = "029FEF0C-5FA4-4A3E-AC23-838A1147A554";
paths = (
{
closed = 1;
nodes = (
"388 714 LINE",
"388 221 LINE SMOOTH",
"388 63 OFFCURVE",
"328 15 OFFCURVE",
"243 15 CURVE SMOOTH",
"152 15 OFFCURVE",
"98 71 OFFCURVE",
"98 221 CURVE SMOOTH",
"98 714 LINE",
"72 714 LINE",
"72 217 LINE SMOOTH",
"72 59 OFFCURVE",
"133 -10 OFFCURVE",
"243 -10 CURVE SMOOTH",
"338 -10 OFFCURVE",
"414 42 OFFCURVE",
"414 217 CURVE SMOOTH",
"414 714 LINE"
);
}
);
width = 486;
},
{
layerId = "98E204A9-1C79-49C7-AB3E-40A925F56409";
paths = (
{
closed = 1;
nodes = (
"363 714 LINE",
"363 243 LINE SMOOTH",
"363 163 OFFCURVE",
"342 135 OFFCURVE",
"294 135 CURVE SMOOTH",
"249 135 OFFCURVE",
"226 164 OFFCURVE",
"226 242 CURVE SMOOTH",
"226 714 LINE",
"56 714 LINE",
"56 238 LINE SMOOTH",
"56 72 OFFCURVE",
"140 -10 OFFCURVE",
"292 -10 CURVE SMOOTH",
"448 -10 OFFCURVE",
"533 77 OFFCURVE",
"533 242 CURVE SMOOTH",
"533 714 LINE"
);
}
);
width = 589;
},
{
layerId = "A1853AD3-B2DD-40FD-B6DE-455F76E0019F";
paths = (
{
closed = 1;
nodes = (
"378 714 LINE",
"378 231 LINE SMOOTH",
"378 104 OFFCURVE",
"334 64 OFFCURVE",
"264 64 CURVE SMOOTH",
"191 64 OFFCURVE",
"149 110 OFFCURVE",
"149 231 CURVE SMOOTH",
"149 714 LINE",
"66 714 LINE",
"66 225 LINE SMOOTH",
"66 64 OFFCURVE",
"136 -10 OFFCURVE",
"263 -10 CURVE SMOOTH",
"382 -10 OFFCURVE",
"462 56 OFFCURVE",
"462 227 CURVE SMOOTH",
"462 714 LINE"
);
}
);
width = 527;
},
{
layerId = "D2208E43-FD40-4479-A9D4-232E25B1FBE9";
paths = (
{
closed = 1;
nodes = (
"369 714 LINE",
"369 241 LINE SMOOTH",
"369 143 OFFCURVE",
"339 110 OFFCURVE",
"283 110 CURVE SMOOTH",
"227 110 OFFCURVE",
"197 146 OFFCURVE",
"197 240 CURVE SMOOTH",
"197 714 LINE",
"60 714 LINE",
"60 233 LINE SMOOTH",
"60 69 OFFCURVE",
"139 -10 OFFCURVE",
"281 -10 CURVE SMOOTH",
"423 -10 OFFCURVE",
"506 69 OFFCURVE",
"506 236 CURVE SMOOTH",
"506 714 LINE"
);
}
);
width = 565;
}
);
leftKerningGroup = uni0531;
note = uni054D;
rightKerningGroup = uni0535;
unicode = 054D;
},
{
glyphname = uni054E;
lastChange = "2016-11-04 15:54:44 +0000";
layers = (
{
layerId = "A6CE5D2C-1F2B-4AA6-9C7F-4C063FA35791";
paths = (
{
closed = 1;
nodes = (
"531 714 LINE",
"505 714 LINE",
"505 297 LINE",
"508 297 LINE",
"506 249 OFFCURVE",
"505 211 OFFCURVE",
"505 168 CURVE SMOOTH",
"505 0 LINE",
"531 0 LINE"
);
},
{
closed = 1;
nodes = (
"505 499 LINE",
"505 415 LINE SMOOTH",
"505 263 OFFCURVE",
"434 186 OFFCURVE",
"292 186 CURVE SMOOTH",
"143 186 OFFCURVE",
"91 265 OFFCURVE",
"91 425 CURVE",
"91 495 LINE",
"65 495 LINE",
"65 425 LINE",
"65 252 OFFCURVE",
"126 161 OFFCURVE",
"291 161 CURVE SMOOTH",
"446 161 OFFCURVE",
"521 247 OFFCURVE",
"521 403 CURVE SMOOTH",
"521 499 LINE"
);
},
{
closed = 1;
nodes = (
"517 0 LINE",
"703 0 LINE",
"703 25 LINE",
"517 25 LINE"
);
}
);
width = 735;
},
{
layerId = "D8F6BD40-B230-4FAA-9AA6-14649630F8F8";
paths = (
{
closed = 1;
nodes = (
"672 715 LINE",
"481 715 LINE",
"481 234 LINE",
"489 234 LINE",
"483 202 OFFCURVE",
"481 147 OFFCURVE",
"481 131 CURVE SMOOTH",
"481 0 LINE",
"672 0 LINE"
);
},
{
closed = 1;
nodes = (
"481 574 LINE",
"481 523 LINE SMOOTH",
"481 388 OFFCURVE",
"455 304 OFFCURVE",
"341 304 CURVE SMOOTH",
"275 304 OFFCURVE",
"239 346 OFFCURVE",
"239 425 CURVE SMOOTH",
"239 455 LINE",
"48 455 LINE",
"48 376 LINE SMOOTH",
"48 214 OFFCURVE",
"153 146 OFFCURVE",
"279 146 CURVE SMOOTH",
"430 146 OFFCURVE",
"542 254 OFFCURVE",
"542 399 CURVE SMOOTH",
"542 574 LINE"
);
},
{
closed = 1;
nodes = (
"641 0 LINE",
"819 0 LINE",
"819 158 LINE",
"641 158 LINE"
);
}
);
width = 837;
},
{
layerId = "0157BCDF-0421-4A1B-8779-FA1232BA51D7";
paths = (
{
closed = 1;
nodes = (
"636 714 LINE",
"495 714 LINE",
"495 246 LINE",
"502 246 LINE",
"497 209 OFFCURVE",
"495 159 OFFCURVE",
"495 136 CURVE SMOOTH",
"495 0 LINE",
"636 0 LINE"
);
},
{
closed = 1;
nodes = (
"495 551 LINE",
"495 490 LINE SMOOTH",
"495 350 OFFCURVE",
"455 269 OFFCURVE",
"332 269 CURVE SMOOTH",
"241 269 OFFCURVE",
"200 321 OFFCURVE",
"200 425 CURVE SMOOTH",
"200 467 LINE",
"59 467 LINE",
"59 391 LINE SMOOTH",
"59 225 OFFCURVE",
"150 151 OFFCURVE",
"289 151 CURVE SMOOTH",
"441 151 OFFCURVE",
"543 252 OFFCURVE",
"543 400 CURVE SMOOTH",
"543 551 LINE"
);
},
{
closed = 1;
nodes = (
"610 0 LINE",
"790 0 LINE",
"790 118 LINE",
"610 118 LINE"
);
}
);
width = 816;
},
{
layerId = "4F0D3757-41F6-4952-AF2C-391AA5989938";
paths = (
{
closed = 1;
nodes = (
"592 714 LINE",
"502 714 LINE",
"502 264 LINE",
"507 264 LINE",
"504 222 OFFCURVE",
"502 177 OFFCURVE",
"502 145 CURVE SMOOTH",
"502 0 LINE",
"592 0 LINE"
);
},
{
closed = 1;
nodes = (
"502 528 LINE",
"502 457 LINE SMOOTH",
"502 312 OFFCURVE",
"449 232 OFFCURVE",
"318 232 CURVE SMOOTH",
"201 232 OFFCURVE",
"155 295 OFFCURVE",
"155 424 CURVE SMOOTH",
"155 480 LINE",
"65 480 LINE",
"65 406 LINE SMOOTH",
"65 237 OFFCURVE",
"143 155 OFFCURVE",
"293 155 CURVE SMOOTH",
"447 155 OFFCURVE",
"536 250 OFFCURVE",
"536 401 CURVE SMOOTH",
"536 528 LINE"
);
},
{
closed = 1;
nodes = (
"572 0 LINE",
"755 0 LINE",
"755 76 LINE",
"572 76 LINE"
);
}
);
width = 787;
},
{
layerId = "029FEF0C-5FA4-4A3E-AC23-838A1147A554";
paths = (
{
closed = 1;
nodes = (
"372 714 LINE",
"346 714 LINE",
"346 259 LINE",
"351 259 LINE",
"348 226 OFFCURVE",
"346 194 OFFCURVE",
"346 161 CURVE SMOOTH",
"346 0 LINE",
"372 0 LINE"
);
},
{
closed = 1;
nodes = (
"346 397 LINE",
"346 329 LINE SMOOTH",
"346 262 OFFCURVE",
"294 188 OFFCURVE",
"211 188 CURVE SMOOTH",
"104 188 OFFCURVE",
"78 233 OFFCURVE",
"78 338 CURVE SMOOTH",
"78 494 LINE",
"52 494 LINE",
"52 326 LINE SMOOTH",
"52 221 OFFCURVE",
"90 163 OFFCURVE",
"210 163 CURVE SMOOTH",
"264 163 OFFCURVE",
"355 201 OFFCURVE",
"355 312 CURVE SMOOTH",
"355 397 LINE"
);
},
{
closed = 1;
nodes = (
"363 0 LINE",
"500 0 LINE",
"500 25 LINE",
"363 25 LINE"
);
}
);
width = 512;
},
{
layerId = "98E204A9-1C79-49C7-AB3E-40A925F56409";
paths = (
{
closed = 1;
nodes = (
"521 714 LINE",
"351 714 LINE",
"351 227 LINE",
"356 227 LINE",
"353 204 OFFCURVE",
"351 169 OFFCURVE",
"351 125 CURVE SMOOTH",
"351 0 LINE",
"521 0 LINE"
);
},
{
closed = 1;
nodes = (
"351 480 LINE",
"351 429 LINE SMOOTH",
"351 342 OFFCURVE",
"320 297 OFFCURVE",
"275 297 CURVE SMOOTH",
"222 297 OFFCURVE",
"210 332 OFFCURVE",
"210 393 CURVE SMOOTH",
"210 464 LINE",
"40 464 LINE",
"40 340 LINE SMOOTH",
"40 206 OFFCURVE",
"107 150 OFFCURVE",
"212 150 CURVE SMOOTH",
"271 150 OFFCURVE",
"324 176 OFFCURVE",
"365 246 CURVE",
"365 480 LINE"
);
},
{
closed = 1;
nodes = (
"508 0 LINE",
"652 0 LINE",
"652 145 LINE",
"508 145 LINE"
);
}
);
width = 667;
},
{
layerId = "A1853AD3-B2DD-40FD-B6DE-455F76E0019F";
paths = (
{
closed = 1;
nodes = (
"425 714 LINE",
"342 714 LINE",
"342 250 LINE",
"347 250 LINE",
"344 221 OFFCURVE",
"342 188 OFFCURVE",
"342 151 CURVE SMOOTH",
"342 0 LINE",
"425 0 LINE"
);
},
{
closed = 1;
nodes = (
"342 430 LINE",
"342 369 LINE SMOOTH",
"342 294 OFFCURVE",
"298 232 OFFCURVE",
"230 232 CURVE SMOOTH",
"145 232 OFFCURVE",
"124 273 OFFCURVE",
"124 360 CURVE SMOOTH",
"124 482 LINE",
"41 482 LINE",
"41 332 LINE SMOOTH",
"41 215 OFFCURVE",
"91 158 OFFCURVE",
"205 158 CURVE SMOOTH",
"261 158 OFFCURVE",
"336 191 OFFCURVE",
"353 286 CURVE SMOOTH",
"353 430 LINE"
);
},
{
closed = 1;
nodes = (
"415 0 LINE",
"555 0 LINE",
"555 74 LINE",
"415 74 LINE"
);
}
);
width = 568;
},
{
layerId = "D2208E43-FD40-4479-A9D4-232E25B1FBE9";
paths = (
{
closed = 1;
nodes = (
"485 714 LINE",
"348 714 LINE",
"348 236 LINE",
"353 236 LINE",
"350 211 OFFCURVE",
"348 177 OFFCURVE",
"348 135 CURVE SMOOTH",
"348 0 LINE",
"485 0 LINE"
);
},
{
closed = 1;
nodes = (
"348 461 LINE",
"348 406 LINE SMOOTH",
"348 324 OFFCURVE",
"311 273 OFFCURVE",
"257 273 CURVE SMOOTH",
"192 273 OFFCURVE",
"177 309 OFFCURVE",
"177 380 CURVE SMOOTH",
"177 471 LINE",
"40 471 LINE",
"40 337 LINE SMOOTH",
"40 209 OFFCURVE",
"100 153 OFFCURVE",
"209 153 CURVE SMOOTH",
"267 153 OFFCURVE",
"329 182 OFFCURVE",
"361 261 CURVE",
"361 461 LINE"
);
},
{
closed = 1;
nodes = (
"472 0 LINE",
"614 0 LINE",
"614 120 LINE",
"472 120 LINE"
);
}
);
width = 629;
}
);
leftKerningGroup = uni054E;
note = uni054E;
rightKerningGroup = uni0533;
unicode = 054E;
},
{
glyphname = uni054F;
lastChange = "2016-11-04 15:54:44 +0000";
layers = (
{
layerId = "A6CE5D2C-1F2B-4AA6-9C7F-4C063FA35791";
paths = (
{
closed = 1;
nodes = (
"484 298 OFFCURVE",
"399 335 OFFCURVE",
"272 375 CURVE SMOOTH",
"169 407 OFFCURVE",
"86 437 OFFCURVE",
"86 546 CURVE SMOOTH",
"86 653 OFFCURVE",
"178 699 OFFCURVE",
"284 699 CURVE SMOOTH",
"337 699 OFFCURVE",
"393 691 OFFCURVE",
"455 664 CURVE",
"466 687 LINE",
"407 713 OFFCURVE",
"349 724 OFFCURVE",
"286 724 CURVE SMOOTH",
"160 724 OFFCURVE",
"59 664 OFFCURVE",
"59 544 CURVE SMOOTH",
"59 425 OFFCURVE",
"142 389 OFFCURVE",
"258 352 CURVE SMOOTH",
"381 313 OFFCURVE",
"457 280 OFFCURVE",
"457 181 CURVE SMOOTH",
"457 65 OFFCURVE",
"360 15 OFFCURVE",
"247 15 CURVE SMOOTH",
"166 15 OFFCURVE",
"104 29 OFFCURVE",
"51 48 CURVE",
"51 19 LINE",
"99 5 OFFCURVE",
"153 -10 OFFCURVE",
"245 -10 CURVE SMOOTH",
"375 -10 OFFCURVE",
"484 51 OFFCURVE",
"484 180 CURVE SMOOTH"
);
}
);
width = 536;
},
{
layerId = "D8F6BD40-B230-4FAA-9AA6-14649630F8F8";
paths = (
{
closed = 1;
nodes = (
"561 314 OFFCURVE",
"505 386 OFFCURVE",
"347 440 CURVE SMOOTH",
"240 476 OFFCURVE",
"233 489 OFFCURVE",
"233 520 CURVE SMOOTH",
"233 546 OFFCURVE",
"247 564 OFFCURVE",
"309 564 CURVE SMOOTH",
"364 564 OFFCURVE",
"421 552 OFFCURVE",
"504 516 CURVE",
"549 670 LINE",
"463 706 OFFCURVE",
"390 724 OFFCURVE",
"318 724 CURVE SMOOTH",
"146 724 OFFCURVE",
"46 644 OFFCURVE",
"46 514 CURVE SMOOTH",
"46 396 OFFCURVE",
"80 357 OFFCURVE",
"250 294 CURVE SMOOTH",
"365 251 OFFCURVE",
"374 235 OFFCURVE",
"374 198 CURVE SMOOTH",
"374 172 OFFCURVE",
"361 150 OFFCURVE",
"278 150 CURVE SMOOTH",
"214 150 OFFCURVE",
"137 172 OFFCURVE",
"38 222 CURVE",
"38 51 LINE",
"111 12 OFFCURVE",
"201 -10 OFFCURVE",
"283 -10 CURVE SMOOTH",
"468 -10 OFFCURVE",
"561 77 OFFCURVE",
"561 204 CURVE"
);
}
);
width = 604;
},
{
layerId = "0157BCDF-0421-4A1B-8779-FA1232BA51D7";
paths = (
{
closed = 1;
nodes = (
"543 309 OFFCURVE",
"478 371 OFFCURVE",
"330 420 CURVE SMOOTH",
"213 459 OFFCURVE",
"193 482 OFFCURVE",
"193 528 CURVE SMOOTH",
"193 576 OFFCURVE",
"226 606 OFFCURVE",
"307 606 CURVE SMOOTH",
"361 606 OFFCURVE",
"418 594 OFFCURVE",
"494 561 CURVE",
"529 675 LINE",
"451 708 OFFCURVE",
"383 724 OFFCURVE",
"313 724 CURVE SMOOTH",
"155 724 OFFCURVE",
"55 650 OFFCURVE",
"55 523 CURVE SMOOTH",
"55 394 OFFCURVE",
"113 363 OFFCURVE",
"258 312 CURVE SMOOTH",
"383 268 OFFCURVE",
"404 240 OFFCURVE",
"404 190 CURVE SMOOTH",
"404 140 OFFCURVE",
"369 108 OFFCURVE",
"273 108 CURVE SMOOTH",
"216 108 OFFCURVE",
"137 126 OFFCURVE",
"47 168 CURVE",
"47 41 LINE",
"112 10 OFFCURVE",
"191 -10 OFFCURVE",
"277 -10 CURVE SMOOTH",
"445 -10 OFFCURVE",
"543 69 OFFCURVE",
"543 197 CURVE"
);
}
);
width = 593;
},
{
layerId = "4F0D3757-41F6-4952-AF2C-391AA5989938";
paths = (
{
closed = 1;
nodes = (
"519 304 OFFCURVE",
"445 355 OFFCURVE",
"306 400 CURVE SMOOTH",
"196 436 OFFCURVE",
"148 462 OFFCURVE",
"148 536 CURVE SMOOTH",
"148 611 OFFCURVE",
"207 648 OFFCURVE",
"299 648 CURVE SMOOTH",
"352 648 OFFCURVE",
"409 638 OFFCURVE",
"479 607 CURVE",
"503 680 LINE",
"434 710 OFFCURVE",
"370 724 OFFCURVE",
"303 724 CURVE SMOOTH",
"159 724 OFFCURVE",
"59 656 OFFCURVE",
"59 532 CURVE SMOOTH",
"59 408 OFFCURVE",
"128 375 OFFCURVE",
"260 329 CURVE SMOOTH",
"385 286 OFFCURVE",
"430 257 OFFCURVE",
"430 186 CURVE SMOOTH",
"430 106 OFFCURVE",
"367 66 OFFCURVE",
"264 66 CURVE SMOOTH",
"196 66 OFFCURVE",
"124 82 OFFCURVE",
"51 115 CURVE",
"51 31 LINE",
"109 8 OFFCURVE",
"177 -10 OFFCURVE",
"265 -10 CURVE SMOOTH",
"416 -10 OFFCURVE",
"519 61 OFFCURVE",
"519 189 CURVE"
);
}
);
width = 571;
},
{
layerId = "029FEF0C-5FA4-4A3E-AC23-838A1147A554";
paths = (
{
closed = 1;
nodes = (
"346 264 OFFCURVE",
"311 309 OFFCURVE",
"201 376 CURVE SMOOTH",
"111 431 OFFCURVE",
"74 467 OFFCURVE",
"74 545 CURVE SMOOTH",
"74 640 OFFCURVE",
"125 699 OFFCURVE",
"219 699 CURVE SMOOTH",
"246 699 OFFCURVE",
"287 694 OFFCURVE",
"326 674 CURVE",
"337 696 LINE",
"310 711 OFFCURVE",
"264 724 OFFCURVE",
"219 724 CURVE SMOOTH",
"117 724 OFFCURVE",
"47 663 OFFCURVE",
"47 545 CURVE SMOOTH",
"47 451 OFFCURVE",
"92 413 OFFCURVE",
"189 354 CURVE SMOOTH",
"296 289 OFFCURVE",
"319 245 OFFCURVE",
"319 185 CURVE SMOOTH",
"319 82 OFFCURVE",
"272 16 OFFCURVE",
"172 16 CURVE SMOOTH",
"129 16 OFFCURVE",
"77 28 OFFCURVE",
"42 44 CURVE",
"42 15 LINE",
"81 -2 OFFCURVE",
"134 -10 OFFCURVE",
"172 -10 CURVE SMOOTH",
"284 -10 OFFCURVE",
"346 59 OFFCURVE",
"346 185 CURVE SMOOTH"
);
}
);
width = 389;
},
{
layerId = "98E204A9-1C79-49C7-AB3E-40A925F56409";
paths = (
{
closed = 1;
nodes = (
"465 312 OFFCURVE",
"414 369 OFFCURVE",
"319 422 CURVE SMOOTH",
"229 471 OFFCURVE",
"206 486 OFFCURVE",
"206 524 CURVE SMOOTH",
"206 559 OFFCURVE",
"222 579 OFFCURVE",
"266 579 CURVE SMOOTH",
"310 579 OFFCURVE",
"360 564 OFFCURVE",
"420 533 CURVE",
"465 673 LINE",
"398 707 OFFCURVE",
"333 724 OFFCURVE",
"269 724 CURVE SMOOTH",
"115 724 OFFCURVE",
"32 642 OFFCURVE",
"32 515 CURVE SMOOTH",
"32 401 OFFCURVE",
"97 358 OFFCURVE",
"191 300 CURVE SMOOTH",
"271 251 OFFCURVE",
"291 226 OFFCURVE",
"291 195 CURVE SMOOTH",
"291 157 OFFCURVE",
"269 135 OFFCURVE",
"221 135 CURVE SMOOTH",
"164 135 OFFCURVE",
"92 157 OFFCURVE",
"28 195 CURVE",
"28 35 LINE",
"89 1 OFFCURVE",
"149 -10 OFFCURVE",
"217 -10 CURVE SMOOTH",
"369 -10 OFFCURVE",
"465 84 OFFCURVE",
"465 217 CURVE SMOOTH"
);
}
);
width = 490;
},
{
layerId = "A1853AD3-B2DD-40FD-B6DE-455F76E0019F";
paths = (
{
closed = 1;
nodes = (
"393 283 OFFCURVE",
"352 333 OFFCURVE",
"248 394 CURVE SMOOTH",
"158 447 OFFCURVE",
"126 475 OFFCURVE",
"126 537 CURVE SMOOTH",
"126 604 OFFCURVE",
"163 650 OFFCURVE",
"237 650 CURVE SMOOTH",
"271 650 OFFCURVE",
"316 641 OFFCURVE",
"363 616 CURVE",
"388 687 LINE",
"345 709 OFFCURVE",
"291 724 OFFCURVE",
"239 724 CURVE SMOOTH",
"116 724 OFFCURVE",
"41 655 OFFCURVE",
"41 533 CURVE SMOOTH",
"41 431 OFFCURVE",
"92 389 OFFCURVE",
"189 332 CURVE SMOOTH",
"290 274 OFFCURVE",
"312 239 OFFCURVE",
"312 191 CURVE SMOOTH",
"312 117 OFFCURVE",
"275 64 OFFCURVE",
"191 64 CURVE SMOOTH",
"143 64 OFFCURVE",
"83 80 OFFCURVE",
"36 105 CURVE",
"36 23 LINE",
"84 -1 OFFCURVE",
"140 -10 OFFCURVE",
"190 -10 CURVE SMOOTH",
"317 -10 OFFCURVE",
"393 69 OFFCURVE",
"393 198 CURVE SMOOTH"
);
}
);
width = 429;
},
{
layerId = "D2208E43-FD40-4479-A9D4-232E25B1FBE9";
paths = (
{
closed = 1;
nodes = (
"437 301 OFFCURVE",
"390 355 OFFCURVE",
"292 411 CURVE SMOOTH",
"202 462 OFFCURVE",
"175 482 OFFCURVE",
"175 529 CURVE SMOOTH",
"175 575 OFFCURVE",
"199 604 OFFCURVE",
"255 604 CURVE SMOOTH",
"295 604 OFFCURVE",
"343 591 OFFCURVE",
"398 563 CURVE",
"435 678 LINE",
"377 708 OFFCURVE",
"317 724 OFFCURVE",
"257 724 CURVE SMOOTH",
"115 724 OFFCURVE",
"35 647 OFFCURVE",
"35 522 CURVE SMOOTH",
"35 413 OFFCURVE",
"93 367 OFFCURVE",
"190 312 CURVE SMOOTH",
"285 260 OFFCURVE",
"306 233 OFFCURVE",
"306 190 CURVE SMOOTH",
"306 142 OFFCURVE",
"278 110 OFFCURVE",
"209 110 CURVE SMOOTH",
"156 110 OFFCURVE",
"88 129 OFFCURVE",
"31 162 CURVE",
"31 30 LINE",
"87 0 OFFCURVE",
"145 -10 OFFCURVE",
"206 -10 CURVE SMOOTH",
"349 -10 OFFCURVE",
"437 78 OFFCURVE",
"437 210 CURVE SMOOTH"
);
}
);
width = 467;
}
);
leftKerningGroup = uni054F;
note = uni054F;
rightKerningGroup = uni054F;
unicode = 054F;
},
{
glyphname = uni0550;
lastChange = "2016-11-04 15:54:44 +0000";
layers = (
{
layerId = "A6CE5D2C-1F2B-4AA6-9C7F-4C063FA35791";
paths = (
{
closed = 1;
nodes = (
"116 0 LINE",
"116 470 LINE SMOOTH",
"116 622 OFFCURVE",
"200 699 OFFCURVE",
"342 699 CURVE SMOOTH",
"491 699 OFFCURVE",
"567 620 OFFCURVE",
"567 460 CURVE",
"593 460 LINE",
"593 633 OFFCURVE",
"508 724 OFFCURVE",
"343 724 CURVE SMOOTH",
"188 724 OFFCURVE",
"90 640 OFFCURVE",
"90 462 CURVE SMOOTH",
"90 0 LINE"
);
}
);
width = 653;
},
{
layerId = "D8F6BD40-B230-4FAA-9AA6-14649630F8F8";
paths = (
{
closed = 1;
nodes = (
"264 0 LINE",
"264 425 LINE SMOOTH",
"264 525 OFFCURVE",
"283 566 OFFCURVE",
"349 566 CURVE SMOOTH",
"415 566 OFFCURVE",
"436 528 OFFCURVE",
"436 420 CURVE",
"627 420 LINE",
"627 618 OFFCURVE",
"542 724 OFFCURVE",
"354 724 CURVE SMOOTH",
"160 724 OFFCURVE",
"73 600 OFFCURVE",
"73 462 CURVE SMOOTH",
"73 0 LINE"
);
}
);
width = 664;
},
{
layerId = "0157BCDF-0421-4A1B-8779-FA1232BA51D7";
paths = (
{
closed = 1;
nodes = (
"227 0 LINE",
"227 439 LINE SMOOTH",
"227 554 OFFCURVE",
"266 606 OFFCURVE",
"355 606 CURVE SMOOTH",
"446 606 OFFCURVE",
"484 556 OFFCURVE",
"484 432 CURVE",
"625 432 LINE",
"625 623 OFFCURVE",
"540 724 OFFCURVE",
"358 724 CURVE SMOOTH",
"177 724 OFFCURVE",
"86 612 OFFCURVE",
"86 462 CURVE SMOOTH",
"86 0 LINE"
);
}
);
width = 675;
},
{
layerId = "4F0D3757-41F6-4952-AF2C-391AA5989938";
paths = (
{
closed = 1;
nodes = (
"180 0 LINE",
"180 453 LINE SMOOTH",
"180 585 OFFCURVE",
"239 648 OFFCURVE",
"351 648 CURVE SMOOTH",
"468 648 OFFCURVE",
"523 585 OFFCURVE",
"523 445 CURVE",
"613 445 LINE",
"613 627 OFFCURVE",
"528 724 OFFCURVE",
"354 724 CURVE SMOOTH",
"184 724 OFFCURVE",
"90 625 OFFCURVE",
"90 462 CURVE SMOOTH",
"90 0 LINE"
);
}
);
width = 673;
},
{
layerId = "029FEF0C-5FA4-4A3E-AC23-838A1147A554";
paths = (
{
closed = 1;
nodes = (
"98 0 LINE",
"98 493 LINE SMOOTH",
"98 651 OFFCURVE",
"158 699 OFFCURVE",
"243 699 CURVE SMOOTH",
"334 699 OFFCURVE",
"388 643 OFFCURVE",
"388 493 CURVE",
"414 493 LINE",
"414 655 OFFCURVE",
"353 724 OFFCURVE",
"243 724 CURVE SMOOTH",
"148 724 OFFCURVE",
"72 672 OFFCURVE",
"72 497 CURVE SMOOTH",
"72 0 LINE"
);
}
);
width = 456;
},
{
layerId = "98E204A9-1C79-49C7-AB3E-40A925F56409";
paths = (
{
closed = 1;
nodes = (
"226 0 LINE",
"226 471 LINE SMOOTH",
"226 551 OFFCURVE",
"247 579 OFFCURVE",
"295 579 CURVE SMOOTH",
"351 579 OFFCURVE",
"363 543 OFFCURVE",
"363 430 CURVE",
"533 430 LINE",
"533 645 OFFCURVE",
"461 724 OFFCURVE",
"297 724 CURVE SMOOTH",
"141 724 OFFCURVE",
"56 637 OFFCURVE",
"56 472 CURVE SMOOTH",
"56 0 LINE"
);
}
);
width = 573;
},
{
layerId = "A1853AD3-B2DD-40FD-B6DE-455F76E0019F";
paths = (
{
closed = 1;
nodes = (
"149 0 LINE",
"149 483 LINE SMOOTH",
"149 610 OFFCURVE",
"194 650 OFFCURVE",
"264 650 CURVE SMOOTH",
"341 650 OFFCURVE",
"378 602 OFFCURVE",
"378 468 CURVE",
"462 468 LINE",
"462 651 OFFCURVE",
"400 724 OFFCURVE",
"265 724 CURVE SMOOTH",
"146 724 OFFCURVE",
"66 658 OFFCURVE",
"66 487 CURVE SMOOTH",
"66 0 LINE"
);
}
);
width = 503;
},
{
layerId = "D2208E43-FD40-4479-A9D4-232E25B1FBE9";
paths = (
{
closed = 1;
nodes = (
"197 0 LINE",
"197 473 LINE SMOOTH",
"197 571 OFFCURVE",
"227 604 OFFCURVE",
"283 604 CURVE SMOOTH",
"347 604 OFFCURVE",
"369 563 OFFCURVE",
"369 445 CURVE",
"506 445 LINE",
"506 647 OFFCURVE",
"444 724 OFFCURVE",
"285 724 CURVE SMOOTH",
"143 724 OFFCURVE",
"60 645 OFFCURVE",
"60 478 CURVE SMOOTH",
"60 0 LINE"
);
}
);
width = 546;
}
);
leftKerningGroup = uni0550;
note = uni0550;
unicode = 0550;
},
{
glyphname = uni0551;
lastChange = "2016-11-04 15:54:44 +0000";
layers = (
{
layerId = "A6CE5D2C-1F2B-4AA6-9C7F-4C063FA35791";
paths = (
{
closed = 1;
nodes = (
"184 397 OFFCURVE",
"87 444 OFFCURVE",
"87 551 CURVE SMOOTH",
"87 646 OFFCURVE",
"180 699 OFFCURVE",
"320 699 CURVE SMOOTH",
"459 699 OFFCURVE",
"552 646 OFFCURVE",
"552 551 CURVE SMOOTH",
"552 456 OFFCURVE",
"463 403 OFFCURVE",
"349 389 CURVE SMOOTH",
"76 356 LINE",
"79 331 LINE",
"279 359 LINE",
"431 359 OFFCURVE",
"574 314 OFFCURVE",
"574 194 CURVE SMOOTH",
"574 85 OFFCURVE",
"488 15 OFFCURVE",
"321 15 CURVE SMOOTH",
"234 15 OFFCURVE",
"146 35 OFFCURVE",
"88 60 CURVE",
"88 32 LINE",
"147 8 OFFCURVE",
"224 -10 OFFCURVE",
"319 -10 CURVE SMOOTH",
"503 -10 OFFCURVE",
"601 72 OFFCURVE",
"601 194 CURVE SMOOTH",
"601 300 OFFCURVE",
"506 362 OFFCURVE",
"381 372 CURVE",
"381 374 LINE",
"495 389 OFFCURVE",
"579 457 OFFCURVE",
"579 551 CURVE SMOOTH",
"579 660 OFFCURVE",
"478 724 OFFCURVE",
"320 724 CURVE SMOOTH",
"161 724 OFFCURVE",
"60 660 OFFCURVE",
"60 551 CURVE SMOOTH",
"60 457 OFFCURVE",
"130 377 OFFCURVE",
"321 362 CURVE",
"356 379 LINE"
);
}
);
width = 663;
},
{
layerId = "D8F6BD40-B230-4FAA-9AA6-14649630F8F8";
paths = (
{
closed = 1;
nodes = (
"253 473 OFFCURVE",
"229 495 OFFCURVE",
"229 536 CURVE SMOOTH",
"229 567 OFFCURVE",
"253 584 OFFCURVE",
"294 584 CURVE SMOOTH",
"331 584 OFFCURVE",
"359 567 OFFCURVE",
"359 537 CURVE SMOOTH",
"359 511 OFFCURVE",
"350 491 OFFCURVE",
"303 473 CURVE SMOOTH",
"46 372 LINE",
"98 231 LINE",
"312 323 LINE",
"397 285 OFFCURVE",
"404 252 OFFCURVE",
"404 215 CURVE SMOOTH",
"404 168 OFFCURVE",
"357 148 OFFCURVE",
"274 148 CURVE SMOOTH",
"221 148 OFFCURVE",
"151 164 OFFCURVE",
"63 209 CURVE",
"63 41 LINE",
"117 12 OFFCURVE",
"210 -10 OFFCURVE",
"281 -10 CURVE SMOOTH",
"471 -10 OFFCURVE",
"596 68 OFFCURVE",
"596 212 CURVE SMOOTH",
"596 288 OFFCURVE",
"566 369 OFFCURVE",
"467 408 CURVE",
"467 414 LINE",
"529 459 OFFCURVE",
"550 494 OFFCURVE",
"550 550 CURVE SMOOTH",
"550 659 OFFCURVE",
"460 724 OFFCURVE",
"294 724 CURVE SMOOTH",
"155 724 OFFCURVE",
"38 654 OFFCURVE",
"38 550 CURVE SMOOTH",
"38 450 OFFCURVE",
"101 411 OFFCURVE",
"239 345 CURVE",
"371 435 LINE"
);
}
);
width = 630;
},
{
layerId = "0157BCDF-0421-4A1B-8779-FA1232BA51D7";
paths = (
{
closed = 1;
nodes = (
"216 471 OFFCURVE",
"194 496 OFFCURVE",
"194 541 CURVE SMOOTH",
"194 587 OFFCURVE",
"239 612 OFFCURVE",
"307 612 CURVE SMOOTH",
"375 612 OFFCURVE",
"419 587 OFFCURVE",
"419 541 CURVE SMOOTH",
"419 500 OFFCURVE",
"389 473 OFFCURVE",
"323 453 CURVE SMOOTH",
"60 374 LINE",
"97 268 LINE",
"307 334 LINE",
"412 307 OFFCURVE",
"460 271 OFFCURVE",
"460 209 CURVE SMOOTH",
"460 143 OFFCURVE",
"402 108 OFFCURVE",
"293 108 CURVE SMOOTH",
"230 108 OFFCURVE",
"155 125 OFFCURVE",
"75 164 CURVE",
"75 38 LINE",
"131 11 OFFCURVE",
"219 -10 OFFCURVE",
"297 -10 CURVE SMOOTH",
"486 -10 OFFCURVE",
"602 69 OFFCURVE",
"602 207 CURVE SMOOTH",
"602 292 OFFCURVE",
"552 367 OFFCURVE",
"446 397 CURVE",
"446 402 LINE",
"520 438 OFFCURVE",
"560 483 OFFCURVE",
"560 550 CURVE SMOOTH",
"560 658 OFFCURVE",
"470 724 OFFCURVE",
"307 724 CURVE SMOOTH",
"161 724 OFFCURVE",
"53 658 OFFCURVE",
"53 550 CURVE SMOOTH",
"53 452 OFFCURVE",
"115 401 OFFCURVE",
"269 350 CURVE",
"371 425 LINE"
);
}
);
width = 653;
},
{
layerId = "4F0D3757-41F6-4952-AF2C-391AA5989938";
paths = (
{
closed = 1;
nodes = (
"206 438 OFFCURVE",
"150 473 OFFCURVE",
"150 545 CURVE SMOOTH",
"150 612 OFFCURVE",
"217 650 OFFCURVE",
"316 650 CURVE SMOOTH",
"416 650 OFFCURVE",
"482 612 OFFCURVE",
"482 545 CURVE SMOOTH",
"482 481 OFFCURVE",
"426 443 OFFCURVE",
"338 424 CURVE SMOOTH",
"71 366 LINE",
"93 296 LINE",
"298 345 LINE",
"424 330 OFFCURVE",
"515 290 OFFCURVE",
"515 202 CURVE SMOOTH",
"515 116 OFFCURVE",
"444 66 OFFCURVE",
"309 66 CURVE SMOOTH",
"236 66 OFFCURVE",
"155 84 OFFCURVE",
"85 117 CURVE",
"85 36 LINE",
"142 10 OFFCURVE",
"225 -10 OFFCURVE",
"311 -10 CURVE SMOOTH",
"497 -10 OFFCURVE",
"606 70 OFFCURVE",
"606 201 CURVE SMOOTH",
"606 295 OFFCURVE",
"536 365 OFFCURVE",
"421 386 CURVE",
"421 389 LINE",
"513 416 OFFCURVE",
"572 471 OFFCURVE",
"572 550 CURVE SMOOTH",
"572 659 OFFCURVE",
"477 724 OFFCURVE",
"316 724 CURVE SMOOTH",
"165 724 OFFCURVE",
"60 659 OFFCURVE",
"60 550 CURVE SMOOTH",
"60 454 OFFCURVE",
"125 390 OFFCURVE",
"296 355 CURVE",
"368 405 LINE"
);
}
);
width = 668;
},
{
layerId = "029FEF0C-5FA4-4A3E-AC23-838A1147A554";
paths = (
{
closed = 1;
nodes = (
"93 422 OFFCURVE",
"62 482 OFFCURVE",
"62 566 CURVE SMOOTH",
"62 646 OFFCURVE",
"110 699 OFFCURVE",
"192 699 CURVE SMOOTH",
"265 699 OFFCURVE",
"319 648 OFFCURVE",
"319 562 CURVE SMOOTH",
"319 456 OFFCURVE",
"262 400 OFFCURVE",
"194 386 CURVE SMOOTH",
"45 355 LINE",
"49 332 LINE",
"186 360 LINE",
"293 325 OFFCURVE",
"333 259 OFFCURVE",
"333 170 CURVE SMOOTH",
"333 85 OFFCURVE",
"273 15 OFFCURVE",
"180 15 CURVE SMOOTH",
"120 15 OFFCURVE",
"65 30 OFFCURVE",
"32 58 CURVE",
"32 28 LINE",
"70 4 OFFCURVE",
"110 -10 OFFCURVE",
"179 -10 CURVE SMOOTH",
"292 -10 OFFCURVE",
"360 70 OFFCURVE",
"360 172 CURVE SMOOTH",
"360 272 OFFCURVE",
"311 339 OFFCURVE",
"225 370 CURVE",
"225 372 LINE",
"287 389 OFFCURVE",
"345 452 OFFCURVE",
"345 562 CURVE SMOOTH",
"345 662 OFFCURVE",
"285 724 OFFCURVE",
"192 724 CURVE SMOOTH",
"101 724 OFFCURVE",
"36 660 OFFCURVE",
"36 567 CURVE SMOOTH",
"36 471 OFFCURVE",
"75 404 OFFCURVE",
"163 372 CURVE",
"197 381 LINE"
);
}
);
width = 400;
},
{
layerId = "98E204A9-1C79-49C7-AB3E-40A925F56409";
paths = (
{
closed = 1;
nodes = (
"213 479 OFFCURVE",
"194 505 OFFCURVE",
"194 538 CURVE SMOOTH",
"194 570 OFFCURVE",
"212 592 OFFCURVE",
"256 592 CURVE SMOOTH",
"296 592 OFFCURVE",
"314 571 OFFCURVE",
"314 538 CURVE SMOOTH",
"314 508 OFFCURVE",
"297 488 OFFCURVE",
"267 474 CURVE SMOOTH",
"36 365 LINE",
"92 243 LINE",
"252 328 LINE",
"310 291 OFFCURVE",
"336 260 OFFCURVE",
"336 221 CURVE SMOOTH",
"336 167 OFFCURVE",
"300 135 OFFCURVE",
"226 135 CURVE SMOOTH",
"178 135 OFFCURVE",
"105 158 OFFCURVE",
"55 188 CURVE",
"55 33 LINE",
"105 9 OFFCURVE",
"159 -10 OFFCURVE",
"238 -10 CURVE SMOOTH",
"406 -10 OFFCURVE",
"506 73 OFFCURVE",
"506 214 CURVE SMOOTH",
"506 300 OFFCURVE",
"483 350 OFFCURVE",
"392 409 CURVE",
"392 413 LINE",
"448 455 OFFCURVE",
"470 500 OFFCURVE",
"470 568 CURVE SMOOTH",
"470 668 OFFCURVE",
"388 724 OFFCURVE",
"260 724 CURVE SMOOTH",
"126 724 OFFCURVE",
"38 658 OFFCURVE",
"38 569 CURVE SMOOTH",
"38 481 OFFCURVE",
"67 418 OFFCURVE",
"198 352 CURVE",
"305 444 LINE"
);
}
);
width = 538;
},
{
layerId = "A1853AD3-B2DD-40FD-B6DE-455F76E0019F";
paths = (
{
closed = 1;
nodes = (
"143 448 OFFCURVE",
"117 493 OFFCURVE",
"117 555 CURVE SMOOTH",
"117 612 OFFCURVE",
"153 650 OFFCURVE",
"218 650 CURVE SMOOTH",
"276 650 OFFCURVE",
"315 614 OFFCURVE",
"315 552 CURVE SMOOTH",
"315 483 OFFCURVE",
"276 444 OFFCURVE",
"223 426 CURVE SMOOTH",
"42 364 LINE",
"66 301 LINE",
"213 347 LINE",
"300 311 OFFCURVE",
"334 259 OFFCURVE",
"334 190 CURVE SMOOTH",
"334 118 OFFCURVE",
"284 64 OFFCURVE",
"199 64 CURVE SMOOTH",
"143 64 OFFCURVE",
"81 82 OFFCURVE",
"41 111 CURVE",
"41 30 LINE",
"84 6 OFFCURVE",
"130 -10 OFFCURVE",
"203 -10 CURVE SMOOTH",
"338 -10 OFFCURVE",
"418 71 OFFCURVE",
"418 189 CURVE SMOOTH",
"418 283 OFFCURVE",
"380 343 OFFCURVE",
"292 386 CURVE",
"292 388 LINE",
"349 415 OFFCURVE",
"395 469 OFFCURVE",
"395 562 CURVE SMOOTH",
"395 663 OFFCURVE",
"326 724 OFFCURVE",
"219 724 CURVE SMOOTH",
"111 724 OFFCURVE",
"37 658 OFFCURVE",
"37 566 CURVE SMOOTH",
"37 473 OFFCURVE",
"72 410 OFFCURVE",
"177 364 CURVE",
"240 408 LINE"
);
}
);
width = 455;
},
{
layerId = "D2208E43-FD40-4479-A9D4-232E25B1FBE9";
paths = (
{
closed = 1;
nodes = (
"189 469 OFFCURVE",
"167 503 OFFCURVE",
"167 544 CURVE SMOOTH",
"167 585 OFFCURVE",
"192 614 OFFCURVE",
"241 614 CURVE SMOOTH",
"285 614 OFFCURVE",
"311 587 OFFCURVE",
"311 544 CURVE SMOOTH",
"311 504 OFFCURVE",
"286 474 OFFCURVE",
"250 462 CURVE SMOOTH",
"38 371 LINE",
"82 271 LINE",
"237 335 LINE",
"306 299 OFFCURVE",
"335 260 OFFCURVE",
"335 209 CURVE SMOOTH",
"335 151 OFFCURVE",
"294 110 OFFCURVE",
"215 110 CURVE SMOOTH",
"165 110 OFFCURVE",
"96 131 OFFCURVE",
"50 161 CURVE",
"50 32 LINE",
"97 8 OFFCURVE",
"148 -10 OFFCURVE",
"224 -10 CURVE SMOOTH",
"380 -10 OFFCURVE",
"472 72 OFFCURVE",
"472 204 CURVE SMOOTH",
"472 294 OFFCURVE",
"443 347 OFFCURVE",
"353 400 CURVE",
"353 404 LINE",
"407 440 OFFCURVE",
"437 489 OFFCURVE",
"437 567 CURVE SMOOTH",
"437 666 OFFCURVE",
"364 724 OFFCURVE",
"244 724 CURVE SMOOTH",
"120 724 OFFCURVE",
"41 658 OFFCURVE",
"41 569 CURVE SMOOTH",
"41 479 OFFCURVE",
"69 415 OFFCURVE",
"190 357 CURVE",
"280 433 LINE"
);
}
);
width = 506;
}
);
leftKerningGroup = uni0551;
note = uni0551;
rightKerningGroup = uni0551;
unicode = 0551;
},
{
glyphname = uni0552;
lastChange = "2016-11-04 15:54:44 +0000";
layers = (
{
layerId = "A6CE5D2C-1F2B-4AA6-9C7F-4C063FA35791";
paths = (
{
closed = 1;
nodes = (
"122 0 LINE",
"122 488 LINE",
"162 488 LINE SMOOTH",
"246 488 OFFCURVE",
"265 480 OFFCURVE",
"321 360 CURVE SMOOTH",
"372 251 OFFCURVE",
"395 232 OFFCURVE",
"457 232 CURVE SMOOTH",
"495 232 LINE",
"495 257 LINE",
"460 257 LINE SMOOTH",
"411 257 OFFCURVE",
"397 269 OFFCURVE",
"345 372 CURVE SMOOTH",
"284 493 OFFCURVE",
"267 513 OFFCURVE",
"166 513 CURVE SMOOTH",
"122 513 LINE",
"122 714 LINE",
"96 714 LINE",
"96 0 LINE"
);
}
);
width = 540;
},
{
layerId = "D8F6BD40-B230-4FAA-9AA6-14649630F8F8";
paths = (
{
closed = 1;
nodes = (
"268 0 LINE",
"268 416 LINE",
"296 416 LINE SMOOTH",
"334 416 OFFCURVE",
"346 393 OFFCURVE",
"402 281 CURVE SMOOTH",
"438 210 OFFCURVE",
"504 167 OFFCURVE",
"590 167 CURVE SMOOTH",
"625 167 LINE",
"625 325 LINE",
"610 325 LINE SMOOTH",
"579 325 OFFCURVE",
"564 333 OFFCURVE",
"513 431 CURVE SMOOTH",
"453 546 OFFCURVE",
"414 574 OFFCURVE",
"309 574 CURVE SMOOTH",
"268 574 LINE",
"268 714 LINE",
"77 714 LINE",
"77 0 LINE"
);
}
);
width = 652;
},
{
layerId = "0157BCDF-0421-4A1B-8779-FA1232BA51D7";
paths = (
{
closed = 1;
nodes = (
"232 0 LINE",
"232 437 LINE",
"264 437 LINE SMOOTH",
"316 437 OFFCURVE",
"330 419 OFFCURVE",
"386 305 CURVE SMOOTH",
"427 223 OFFCURVE",
"479 187 OFFCURVE",
"558 187 CURVE SMOOTH",
"594 187 LINE",
"594 305 LINE",
"573 305 LINE SMOOTH",
"537 305 OFFCURVE",
"522 314 OFFCURVE",
"471 413 CURVE SMOOTH",
"411 530 OFFCURVE",
"378 555 OFFCURVE",
"274 555 CURVE SMOOTH",
"232 555 LINE",
"232 714 LINE",
"91 714 LINE",
"91 0 LINE"
);
}
);
width = 632;
},
{
layerId = "4F0D3757-41F6-4952-AF2C-391AA5989938";
paths = (
{
closed = 1;
nodes = (
"186 0 LINE",
"186 461 LINE",
"221 461 LINE SMOOTH",
"287 461 OFFCURVE",
"304 446 OFFCURVE",
"360 329 CURVE SMOOTH",
"405 236 OFFCURVE",
"445 207 OFFCURVE",
"516 207 CURVE SMOOTH",
"553 207 LINE",
"553 283 LINE",
"526 283 LINE SMOOTH",
"484 283 OFFCURVE",
"469 294 OFFCURVE",
"418 395 CURVE SMOOTH",
"358 513 OFFCURVE",
"332 537 OFFCURVE",
"229 537 CURVE SMOOTH",
"186 537 LINE",
"186 714 LINE",
"96 714 LINE",
"96 0 LINE"
);
}
);
width = 598;
},
{
layerId = "029FEF0C-5FA4-4A3E-AC23-838A1147A554";
paths = (
{
closed = 1;
nodes = (
"104 -3 LINE",
"104 488 LINE",
"132 488 LINE SMOOTH",
"189 488 OFFCURVE",
"202 481 OFFCURVE",
"239 362 CURVE SMOOTH",
"276 249 OFFCURVE",
"291 232 OFFCURVE",
"337 232 CURVE SMOOTH",
"367 232 LINE",
"367 257 LINE",
"346 257 LINE SMOOTH",
"310 257 OFFCURVE",
"296 270 OFFCURVE",
"264 371 CURVE SMOOTH",
"225 494 OFFCURVE",
"205 513 OFFCURVE",
"136 513 CURVE SMOOTH",
"104 513 LINE",
"104 717 LINE",
"78 717 LINE",
"78 -3 LINE"
);
}
);
width = 379;
},
{
layerId = "98E204A9-1C79-49C7-AB3E-40A925F56409";
paths = (
{
closed = 1;
nodes = (
"228 0 LINE",
"228 429 LINE",
"247 429 LINE SMOOTH",
"267 429 OFFCURVE",
"277 423 OFFCURVE",
"313 328 CURVE SMOOTH",
"363 195 OFFCURVE",
"402 177 OFFCURVE",
"472 177 CURVE SMOOTH",
"526 177 LINE",
"526 322 LINE",
"509 322 LINE SMOOTH",
"484 322 OFFCURVE",
"472 330 OFFCURVE",
"433 431 CURVE SMOOTH",
"383 560 OFFCURVE",
"364 574 OFFCURVE",
"270 574 CURVE SMOOTH",
"228 574 LINE",
"228 714 LINE",
"59 714 LINE",
"59 0 LINE"
);
}
);
width = 541;
},
{
layerId = "A1853AD3-B2DD-40FD-B6DE-455F76E0019F";
paths = (
{
closed = 1;
nodes = (
"153 -2 LINE",
"153 463 LINE",
"177 463 LINE SMOOTH",
"220 463 OFFCURVE",
"231 456 OFFCURVE",
"268 348 CURVE SMOOTH",
"310 227 OFFCURVE",
"335 210 OFFCURVE",
"390 210 CURVE SMOOTH",
"430 210 LINE",
"430 284 LINE",
"411 284 LINE SMOOTH",
"379 284 OFFCURVE",
"366 295 OFFCURVE",
"331 395 CURVE SMOOTH",
"287 520 OFFCURVE",
"268 537 OFFCURVE",
"189 537 CURVE SMOOTH",
"153 537 LINE",
"153 716 LINE",
"70 716 LINE",
"70 -2 LINE"
);
}
);
width = 444;
},
{
layerId = "D2208E43-FD40-4479-A9D4-232E25B1FBE9";
paths = (
{
closed = 1;
nodes = (
"199 -1 LINE",
"199 440 LINE",
"220 440 LINE SMOOTH",
"249 440 OFFCURVE",
"259 434 OFFCURVE",
"296 336 CURVE SMOOTH",
"345 207 OFFCURVE",
"376 190 OFFCURVE",
"440 190 CURVE SMOOTH",
"489 190 LINE",
"489 310 LINE",
"471 310 LINE SMOOTH",
"443 310 OFFCURVE",
"431 319 OFFCURVE",
"394 417 CURVE SMOOTH",
"346 545 OFFCURVE",
"327 560 OFFCURVE",
"239 560 CURVE SMOOTH",
"199 560 LINE",
"199 715 LINE",
"63 715 LINE",
"63 -1 LINE"
);
}
);
width = 504;
}
);
leftKerningGroup = uni053B;
note = uni0552;
rightKerningGroup = uni0552;
unicode = 0552;
},
